<svg width="1454" height="253" viewBox="0 0 1454 253" fill="none" xmlns="http://www.w3.org/2000/svg">
<path d="M-133.974 219.802C20.7479 154.505 339.703 24.9973 377.744 29.3414C425.295 34.7715 -39.1622 216.428 28.7095 232.611C96.5813 248.794 542.825 20.6613 600.326 25.1887C657.826 29.7161 193.508 227.521 261.376 234.792C329.244 242.063 748.578 15.1835 816.45 31.3665C884.321 47.5495 450.986 237.196 498.669 240.951C546.352 244.705 980.834 31.5436 1059.37 37.7273C1137.91 43.9111 664.598 221.498 731.769 237.626C798.94 253.754 1219.25 14.4267 1303.27 22.7278C1387.28 31.0289 874.698 232.501 937.808 237.47C1000.92 242.439 1489.8 1.52512 1563.01 12.5888" stroke="#5557FF" stroke-width="23"/>
</svg>
