<svg width="119" height="255" viewBox="0 0 119 255" fill="none" xmlns="http://www.w3.org/2000/svg">
<rect width="119" height="255" fill="#F5F5F5"/>
<g id="Home 1928" clip-path="url(#clip0_0_1)">
<rect width="1454" height="3096" transform="translate(0 -1005)" fill="white"/>
<g id="Mask group">
<mask id="mask0_0_1" style="mask-type:alpha" maskUnits="userSpaceOnUse" x="0" y="-46" width="122" height="305">
<rect id="Rectangle 61" y="-46" width="122" height="305" fill="#D9D9D9"/>
</mask>
<g mask="url(#mask0_0_1)">
<g id="Vector">
<path fill-rule="evenodd" clip-rule="evenodd" d="M34.6829 87.5565C39.933 90.7827 47.0659 97.7055 46.6747 99.415C46.0638 102.084 39.905 109.97 39.7045 115.927C39.619 118.467 43.533 120.382 44.6565 121.84C48.4158 126.72 60.809 138.863 60.9912 145.693C61.0642 148.429 54.3932 178.226 51.1474 193.514C50.7815 195.237 50.5342 196.881 50.3861 198.448L51.1271 197.574C57.0876 190.527 60.5262 186.168 61.4429 184.497C62.8752 181.885 66.8362 169.725 70.4554 168.065C74.0384 166.422 80.2506 166.879 82.5105 168.06L82.5778 168.096C84.0454 168.9 85.5706 169.14 87.1533 168.814L89.1724 168.886C99.4389 169.26 105.358 169.623 106.929 169.975C109.437 170.536 112.389 173.89 109.449 174.882C107.489 175.543 103.109 176.212 96.308 176.888L93.6316 177.348L93.7923 177.589C95.5052 180.178 96.3359 182.023 96.2843 183.122C96.2311 184.256 95.4417 185.198 93.9161 185.948L93.9765 186.146C94.4762 187.803 94.6265 188.813 94.4274 189.176L93.4546 190.95C93.6662 193.119 93.2136 194.582 92.0969 195.341C90.9802 196.1 89.6253 196.545 88.0321 196.676C85.9269 198.471 84.0157 199.522 82.2985 199.829C80.5813 200.136 78.0853 199.807 74.8105 198.841L68.6918 203.72L61.6693 211.437L55.1456 220.769L55.3348 221.168C56.2078 223.025 56.7085 224.322 56.2633 225.133C55.5698 226.398 33.3915 252.917 23.5324 249.241C21.4002 248.446 11.9354 241.418 10.0741 236.838L9.96163 237.161C8.13116 242.375 6.60242 244.765 5.37546 244.332C-9.70371 239.013 -49.3796 218.163 -113.652 181.783C-95.1816 147.194 -80.8819 125.254 -70.7533 115.963C-44.8487 92.202 -28.4708 88.2166 -24.1857 89.4562C-20.4321 90.5421 -6.30662 92.2848 -2.39377 92.8372C0.1604 93.1978 1.92879 91.0485 4.33954 92.3708L4.53387 92.4787C6.85245 93.7808 8.69113 95.3319 10.5106 94.7695C15.2854 93.2936 16.8231 88.469 20.376 84.9906C22.3336 83.0741 28.2402 83.5976 34.6829 87.5565Z" fill="white"/>
<path fill-rule="evenodd" clip-rule="evenodd" d="M15.3366 87.6675C15.9977 87.2134 16.7939 87.7559 17.1924 88.345C18.1889 90.4746 15.1542 91.8784 13.8793 93.111C11.1155 95.342 7.51501 97.0291 3.93771 96.8183C2.60246 99.8106 1.30196 102.814 -0.175064 105.74C0.984306 112.235 6.20228 117.235 10.9413 121.479C18.1787 128.519 30.4605 128.964 37.9676 122.107C35.712 118.446 37.3267 112.987 40.171 110.12C40.3871 109.928 40.8155 110.026 40.8009 110.365C40.6855 112.703 39.3302 114.891 39.3499 117.275C48.6285 123.584 59.2396 134.212 61.3098 145.654C61.9789 151.177 60.2776 156.95 59.1584 162.312C56.9517 173.421 54.0328 184.389 51.7632 195.477L53.0926 193.872C56.7495 189.45 60.3566 184.914 62.4735 179.538L62.5939 179.291C64.5782 175.178 67.4027 167.061 71.9832 166.062C75.9627 165.457 80.9692 165.962 83.9458 168.88C91.7362 169.527 99.7151 167.797 107.386 169.627C109.671 170.33 112.349 172.45 110.336 174.969C106.32 179.103 99.6523 177.906 94.4256 178.307C96.526 180.329 97.8874 184.98 94.5243 186.54C94.4822 186.577 94.4481 186.604 94.418 186.624C95.6011 188.174 94.8647 190.036 93.6618 191.319C93.4065 191.693 93.4887 191.297 93.5243 191.782C94.3754 194.413 91.0515 198.624 88.3085 197.324C87.2769 199.617 84.6947 200.978 82.2496 201.196C79.6145 201.431 76.7983 199.959 74.2336 200.852C66.8656 205.403 61.2964 212.493 56.7391 219.834C58.7008 222.112 59.3995 226.091 55.8705 227.206C55.8233 227.187 55.7762 227.168 55.7294 227.147C52.5254 229.905 49.994 233.33 47.3182 236.578C42.8678 242.183 36.996 246.35 30.6495 249.572C22.8375 254.159 12.4833 247.074 9.38264 239.647C8.77127 240.814 0.35218 253.087 -0.629608 254C-1.83585 254.905 -2.60307 251 5 241.5C1.185 241.541 4.08526 235.627 6.85513 238.263C8.75249 234.212 10.7577 230.214 12.7908 226.229C8.47011 225.404 11.6519 219.228 14.7371 222.504L15.656 220.818C22.7087 207.894 29.9558 195.019 38.6832 183.146C39.3661 182.275 40.141 181.494 40.819 180.627C40.8897 180.538 41.0281 180.65 40.9769 180.745C31.406 198.82 20.3791 216.146 11.7634 234.753C12.6107 235.621 12.3758 237.012 12.7559 238.105C13.5811 240.567 15.4462 242.569 17.5298 244.052C23.2868 248.348 27.0247 247.92 32.7766 244.02C31.0646 244.17 30.183 241.763 31.6735 240.856L31.7194 240.829C33.2827 239.86 35.0603 241.93 33.9141 243.347C39.1601 240.405 43.3883 236.162 47.2747 231.636L47.7561 231.105C49.4726 229.22 51.5191 227.104 53.8574 225.829C47.248 219.655 43.0054 209.564 46.2947 200.715C40.9807 205.777 35.0503 210.321 29.2604 214.903C27.3451 216.55 25.7983 218.601 23.6281 219.913C23.1248 220.215 22.5303 219.74 22.6408 219.19C24.0982 214.155 29.4773 211.555 33.2698 208.383C35.8099 206.807 45.2241 198.415 47.531 199.647C51.151 186.936 53.8646 173.838 56.7112 160.886C61.8094 144.085 56.9535 137.642 45.8926 125.405C41.4663 139.32 46.0475 157.652 32.8332 167.545L32.5001 167.807C31.0909 168.924 29.7793 170.109 29.3322 171.938C28.8984 173.713 29.1062 175.575 29.0989 177.381C29.0121 187.559 21.0686 195.144 14.945 202.435C7.61595 210.903 0.30703 219.394 -7.08346 227.81C-8.55274 229.491 -9.90572 231.312 -11.5573 232.817C-12.4096 233.593 -13.9954 232.605 -13.2778 231.548C-11.8889 229.494 -10.1237 227.716 -8.51299 225.835C1.69052 213.531 12.7429 201.903 22.6086 189.335C29.6901 179.91 24.7658 175.164 28.6076 168.672C31.2485 165.723 34.9852 163.847 36.8419 160.179C43.3537 149.404 40.3139 135.901 45.2057 124.631L43.7978 123.046C43.0948 122.253 42.3941 121.457 41.7003 120.656C28.6898 155.253 9.31696 187.271 -10.6582 218.254C-11.9424 219.484 -17.1967 230.121 -18.6541 228.121C-19.0718 228.648 -19.6933 229.05 -20.3623 228.679C-26.4815 225.395 -32.6249 222.151 -38.7534 218.884C-41.534 217.008 -46.173 215.918 -47.7369 212.862C-50.1627 210.463 -46.2195 202.49 -45.4651 199.29L-44.657 197.106C-31.4416 161.421 -17.3391 125.336 4.45574 93.9311C-0.53492 91.4382 -4.43803 96.1619 -6.90789 99.8052C-12.4655 107.788 -21.9481 112.087 -26.9153 120.521C-28.0789 122.589 -28.7919 124.821 -29.0084 127.188C-29.3698 133.079 -28.5227 140.583 -34.242 144.248C-39.8469 146.468 -40.1426 147.699 -41.6638 153.408C-47.3021 171.946 -50.2875 191.103 -53.5803 210.152C-58.1932 215.727 -52.6937 188.652 -52.4133 186.536C-56.4734 186.392 -55.2981 180.126 -51.4407 181.75C-49.4794 172.614 -47.2991 163.522 -44.7097 154.541L-44.6337 154.289C-43.4009 150.16 -42.5889 144.978 -38.156 143.147C-27.5899 139.999 -34.6603 126.125 -28.6689 118.578C-30.3982 118.815 -31.7328 116.836 -30.8649 115.32C-29.975 113.565 -27.1755 113.951 -26.783 115.878C-21.9316 109.749 -14.7114 106.036 -9.81039 99.9606L-9.58237 99.674C-7.86781 97.5171 -6.37845 95.075 -4.01916 93.546C-6.17764 93.7072 -8.33074 93.6134 -10.4783 93.3949C-8.79005 97.7084 -16.1288 96.775 -13.423 93.0261C-33.2273 88.5984 -40.8739 93.3779 -55.8381 105.778C-54.0411 105.282 -52.8418 107.857 -54.3404 108.925C-55.7397 110.149 -57.9362 108.362 -57.0404 106.731L-57.7006 107.257C-66.4982 114.272 -75.0752 121.695 -82.1585 130.482C-78.4797 131.872 -82.343 136.854 -84.5923 133.618C-90.5853 141.6 -95.4238 150.375 -100.062 159.192C-96.3536 159.26 -99.0824 164.441 -101.218 161.366C-105.036 168.581 -108.804 175.824 -112.611 183.046C-113.422 184.582 -115.767 183.287 -114.972 181.75C-109.215 170.604 -103.673 159.313 -97.4024 148.444C-87.1546 129.23 -71.5757 113.838 -54.0212 101.219C-35.9878 85.4948 -24.7687 88.7352 -3.24714 93.0918C-0.168427 91.5028 4.76368 91.108 6.85354 94.3124C9.97385 92.5478 12.5506 89.843 15.3366 87.6675ZM-53.7987 139.024C-53.597 138.819 -53.2841 139.07 -53.4042 139.315C-54.9447 142.489 -56.7872 145.523 -58.6999 148.509C-59.8666 150.333 -61.0615 152.138 -62.2266 153.946C-65.3022 158.715 -68.3124 163.526 -71.2561 168.379C-71.1628 168.389 -71.0697 168.404 -70.9761 168.427C-70.5459 168.53 -70.1716 168.735 -69.8536 169.042C-69.571 169.319 -69.3687 169.642 -69.2465 170.015L-69.2215 170.095C-69.1205 170.399 -69.0982 170.705 -69.1563 171.013C-69.1624 171.312 -69.2373 171.595 -69.3832 171.86L-69.4212 171.926C-69.6321 172.307 -69.9207 172.609 -70.2944 172.833C-70.6553 173.048 -71.0454 173.162 -71.4657 173.177C-71.9002 173.187 -72.3061 173.087 -72.6884 172.88C-72.7313 172.861 -72.7742 172.843 -72.8158 172.822C-73.1055 172.678 -73.3377 172.473 -73.5122 172.211L-73.543 172.18C-75.0189 174.651 -76.4792 177.133 -77.919 179.627C-79.1755 181.799 -80.4486 183.962 -81.6994 186.137L-82.3236 187.226L-83.6976 189.635C-84.2593 190.628 -84.7781 191.589 -85.6352 192.346L-85.7356 192.433C-86.3255 192.928 -86.997 193.7 -87.8433 193.692C-88.5189 193.685 -89.166 193.195 -89.1671 192.486C-89.1691 191.892 -88.5908 191.356 -88.0496 191.252C-88.0459 191.228 -88.0469 191.203 -88.045 191.178C-88.0108 190.979 -88.0118 190.774 -87.971 190.577C-87.8414 189.954 -87.4848 189.41 -87.1826 188.854C-86.6461 187.876 -86.0763 186.916 -85.5144 185.954C-84.3166 183.906 -83.1107 181.865 -81.89 179.833C-77.7926 173.015 -73.4521 166.331 -69.047 159.708L-67.5591 157.473C-65.58 154.501 -63.5896 151.531 -61.4945 148.644C-61.3949 148.506 -61.2948 148.368 -61.1931 148.231C-61.3464 148.01 -61.4624 147.756 -61.5288 147.507C-61.7932 146.509 -61.6343 145.322 -61.5261 144.283L-61.5023 144.046C-61.3936 142.934 -61.2492 141.827 -60.902 140.759L-60.8707 140.66C-60.7285 140.203 -60.4931 139.382 -59.947 139.422C-59.6622 139.443 -59.5586 139.596 -59.6093 139.865C-59.6161 139.9 -59.6422 139.929 -59.6729 139.946C-59.6446 140.32 -59.5044 140.733 -59.4668 141.086L-59.3357 142.29L-59.2748 142.893C-59.2012 143.664 -59.0885 144.425 -58.9587 145.185C-57.3507 143.04 -55.6734 140.944 -53.7987 139.024ZM-57.2876 204.579C-56.1989 204.4 -55.1375 205.404 -55.7413 206.505C-56.348 207.611 -57.764 207.249 -58.1961 206.236L-58.2186 206.187L-58.2387 206.137C-58.475 205.587 -58.0273 204.738 -57.4387 204.605L-57.3932 204.596C-57.358 204.588 -57.3237 204.583 -57.2876 204.579ZM-89.2728 184.238L-89.2081 184.275C-88.8636 184.464 -88.5909 184.727 -88.3883 185.065C-88.3125 185.234 -88.2395 185.404 -88.1648 185.575C-88.0577 185.942 -88.0493 186.314 -88.1364 186.688L-88.346 187.233C-88.4813 187.501 -88.6692 187.716 -88.9147 187.878C-89.1225 188.073 -89.3668 188.206 -89.6467 188.277C-89.9234 188.369 -90.1994 188.388 -90.4779 188.334C-90.7474 188.33 -91.0011 188.264 -91.2394 188.133L-91.304 188.096C-91.6502 187.906 -91.9231 187.643 -92.1256 187.305C-92.2015 187.136 -92.2744 186.966 -92.3492 186.795C-92.4544 186.428 -92.4647 186.056 -92.3774 185.682C-92.3073 185.501 -92.2358 185.319 -92.1676 185.137C-92.0324 184.869 -91.8429 184.655 -91.5993 184.492C-91.3914 184.297 -91.1471 184.164 -90.8674 184.093C-90.5904 184.001 -90.3146 183.981 -90.0358 184.035C-89.7665 184.04 -89.5114 184.107 -89.2728 184.238ZM-0.629608 228.274L-0.179779 228.605C0.227226 228.966 0.413185 229.514 0.448799 230.042C0.467506 230.324 0.415565 230.59 0.293533 230.839C0.215309 231.109 0.0708618 231.346 -0.138229 231.547C-0.323792 231.753 -0.54673 231.901 -0.804726 231.989C-0.907883 232.046 -1.0166 232.09 -1.12914 232.119C-1.42046 232.29 -1.74133 232.331 -2.07223 232.371C-2.34222 232.389 -2.59674 232.339 -2.83624 232.222C-3.01234 232.179 -3.16794 232.093 -3.30118 231.967C-3.52663 231.829 -3.70574 231.642 -3.83566 231.404C-3.90423 231.248 -3.97196 231.091 -4.03904 230.936C-4.07652 230.758 -4.10493 230.581 -4.12455 230.402C-4.10723 230.226 -4.08936 230.052 -4.0712 229.879C-3.99467 229.48 -3.77641 229.209 -3.53094 228.903C-3.49036 228.85 -3.4469 228.806 -3.39593 228.762L-3.29691 228.676C-3.03587 228.453 -2.92651 228.389 -2.60307 228.247L-2.47815 228.19C-2.41579 228.162 -2.35308 228.135 -2.28773 228.116C-2.10229 228.059 -1.87754 228.05 -1.68652 228.017C-1.31081 228.009 -0.958595 228.096 -0.629608 228.274ZM-62.8684 192.593L-62.8071 192.628C-62.5395 192.777 -62.324 192.982 -62.165 193.245L-61.9903 193.647C-61.9077 193.936 -61.8997 194.224 -61.9669 194.518C-62.0232 194.661 -62.0778 194.804 -62.1316 194.946C-62.237 195.156 -62.385 195.325 -62.5784 195.453C-62.7391 195.606 -62.9303 195.708 -63.152 195.765C-63.3663 195.836 -63.5846 195.851 -63.8033 195.811C-64.0112 195.806 -64.2095 195.755 -64.3944 195.654L-64.4495 195.622C-64.72 195.474 -64.9343 195.267 -65.0934 195.004L-65.2692 194.604C-65.3518 194.315 -65.3587 194.025 -65.2916 193.731C-65.2351 193.589 -65.1815 193.447 -65.1269 193.303C-65.0214 193.093 -64.8732 192.924 -64.6811 192.798C-64.5183 192.646 -64.328 192.541 -64.1075 192.486C-63.892 192.414 -63.6739 192.398 -63.4562 192.441C-63.2478 192.444 -63.0535 192.495 -62.8684 192.593ZM-74.7572 185.276C-74.3682 185.484 -74.0353 185.809 -73.8415 186.207C-73.6538 186.594 -73.5498 186.957 -73.5937 187.394C-73.6059 187.513 -73.6171 187.629 -73.6346 187.745C-73.708 188.257 -73.9121 188.699 -74.3602 188.993C-74.7938 189.279 -75.3497 189.203 -75.8271 189.097C-76.2322 189.01 -76.6359 188.811 -76.9142 188.496C-77.0529 188.341 -77.1859 188.184 -77.2897 188.004C-77.4819 187.664 -77.5224 187.365 -77.5725 186.995C-77.5822 186.652 -77.5036 186.329 -77.339 186.029C-77.1733 185.727 -76.9439 185.489 -76.6487 185.311C-76.0712 184.965 -75.3483 184.956 -74.7572 185.276ZM-94.5883 174.864C-94.0991 175.132 -93.7935 175.594 -93.7081 176.137C-93.6226 176.688 -93.7776 177.23 -94.1724 177.638C-94.5897 178.069 -95.254 178.283 -95.8448 178.125C-96.2817 178.009 -96.5948 177.832 -96.9425 177.557C-97.2363 177.324 -97.3785 176.995 -97.5172 176.658C-97.6735 176.271 -97.5289 175.801 -97.2956 175.486C-97.0642 175.169 -96.7846 175.033 -96.4347 174.962L-96.4301 174.958L-96.5566 174.977C-96.5068 174.966 -96.4564 174.953 -96.4056 174.94C-96.3845 174.927 -96.3641 174.912 -96.3436 174.897C-96.0785 174.738 -95.7926 174.656 -95.4859 174.646C-95.166 174.639 -94.868 174.71 -94.5883 174.864ZM22.5188 231.793C22.8271 231.869 23.0975 232.017 23.3264 232.236C23.4994 232.392 23.6217 232.577 23.6941 232.792C23.7895 232.97 23.8428 233.161 23.8502 233.364L23.8509 233.433C23.8651 233.908 23.6727 234.338 23.3624 234.688C22.9782 235.121 22.2755 235.322 21.7186 235.168L21.7004 235.162L21.6813 235.157C21.4467 235.111 21.2395 235.009 21.0651 234.853C20.8681 234.733 20.7135 234.571 20.6024 234.365C20.4611 234.105 20.3773 233.822 20.3565 233.527C20.3407 233.291 20.3842 233.072 20.4857 232.864C20.5237 232.712 20.5969 232.579 20.7051 232.464C20.8254 232.267 20.9872 232.113 21.194 232L21.5987 231.824L21.634 231.817C21.9267 231.731 22.2218 231.724 22.5188 231.793ZM9.24817 211.758C11.6766 213.09 9.60558 216.857 7.18086 215.527C4.75262 214.195 6.82346 210.428 9.24817 211.758ZM-79.3997 162.517C-79.1124 162.6 -78.8629 162.751 -78.6528 162.97C-78.5346 163.119 -78.4183 163.267 -78.3009 163.413L-78.0767 163.927C-78.0379 164.028 -78.0393 164.114 -78.0204 164.238L-77.9969 164.392C-77.9649 164.62 -77.9807 164.656 -78.0372 165.072C-78.1292 165.451 -78.31 165.78 -78.58 166.062C-78.7101 166.198 -78.8571 166.312 -79.0167 166.405C-79.166 166.497 -79.3214 166.564 -79.4832 166.616L-79.5646 166.64C-79.8414 166.732 -80.1191 166.751 -80.3989 166.698C-80.5968 166.703 -80.7813 166.657 -80.9535 166.563C-81.2407 166.48 -81.4904 166.329 -81.7002 166.11C-81.8184 165.961 -81.9348 165.813 -82.0523 165.666L-82.2764 165.153L-82.3631 164.599L-82.3336 164.318L-82.3047 164.036L-82.0937 163.488C-81.9576 163.218 -81.7697 163.003 -81.5235 162.839C-81.3887 162.703 -81.2288 162.606 -81.0453 162.552C-80.8807 162.454 -80.7031 162.402 -80.5116 162.396C-80.3281 162.342 -80.1407 162.339 -79.9541 162.382C-79.7563 162.377 -79.5718 162.423 -79.3997 162.517ZM42.187 225.702C42.3931 225.806 42.5587 225.952 42.682 226.14C42.7319 226.194 42.7772 226.253 42.8181 226.314C42.9701 226.568 43.0504 226.844 43.0598 227.138C43.0738 227.368 43.0324 227.584 42.933 227.787C42.8753 227.988 42.7729 228.166 42.6262 228.318L42.5809 228.363C42.4599 228.487 42.3247 228.589 42.1752 228.668C42.1593 228.679 42.1421 228.688 42.1239 228.695C41.892 228.824 41.6388 228.895 41.3689 228.903C41.0718 228.909 40.7926 228.843 40.5284 228.7C40.0042 228.413 39.7077 227.881 39.6707 227.294C39.6653 227.212 39.6858 227.122 39.6927 227.044C39.701 226.971 39.7037 226.874 39.7207 226.794C39.7948 226.493 39.9392 226.229 40.1537 226.005C40.3058 225.837 40.4854 225.717 40.6953 225.646C40.8891 225.543 41.0981 225.491 41.3214 225.493C41.6036 225.485 41.8697 225.545 42.1195 225.667L42.187 225.702ZM-59.3328 167.622C-59.0379 167.693 -58.7798 167.827 -58.5576 168.026L-58.5028 168.078C-58.3256 168.237 -58.2003 168.427 -58.1238 168.647C-58.0162 168.851 -57.9611 169.071 -57.9626 169.306C-57.9549 169.627 -58.0288 169.928 -58.1815 170.211C-58.3378 170.492 -58.5525 170.716 -58.8265 170.882C-59.0946 171.041 -59.3834 171.124 -59.6947 171.134L-59.9523 171.12C-60.1816 171.134 -60.3947 171.092 -60.5962 170.993C-60.7469 170.957 -60.8786 170.884 -60.9887 170.778C-61.1223 170.705 -61.2282 170.603 -61.3062 170.474C-61.4129 170.37 -61.4859 170.247 -61.5277 170.104C-61.6319 169.912 -61.6826 169.706 -61.6807 169.483L-61.6366 169.046L-61.4729 168.625L-61.2068 168.262L-61.0194 168.115C-60.8001 167.89 -60.5406 167.734 -60.2396 167.646C-59.9393 167.559 -59.6364 167.552 -59.3328 167.622ZM34.2435 214.881C34.5605 214.944 34.8355 215.08 35.0715 215.287C35.2528 215.386 35.3978 215.526 35.5046 215.705C35.6506 215.847 35.7518 216.014 35.8088 216.209C35.9509 216.473 36.0196 216.756 36.0184 217.062L35.9566 217.657C35.9072 218.037 35.6095 218.474 35.3628 218.749C35.1595 218.975 34.9168 219.136 34.6353 219.232C34.464 219.333 34.2803 219.387 34.0813 219.393C33.8242 219.455 33.5655 219.458 33.3049 219.401L33.2338 219.384L33.2085 219.377C33.2036 219.377 33.2001 219.375 33.1964 219.373C33.1934 219.374 33.1895 219.372 33.1877 219.371C33.0869 219.344 32.989 219.307 32.8925 219.259C32.5913 219.171 32.3286 219.013 32.1051 218.78C31.9825 218.625 31.8589 218.468 31.7353 218.312C31.6551 218.133 31.5777 217.952 31.4988 217.772C31.4683 217.577 31.438 217.382 31.4065 217.189C31.3852 216.876 31.444 216.58 31.5803 216.305C31.6305 216.099 31.728 215.921 31.8751 215.768C31.9756 215.584 32.1144 215.441 32.2915 215.333C32.5113 215.126 32.7691 214.986 33.0679 214.911C33.2629 214.88 33.4562 214.849 33.6502 214.82C33.849 214.84 34.0476 214.86 34.2435 214.881ZM-80.2605 143.447C-79.9393 143.525 -79.6594 143.678 -79.4214 143.908L-79.1319 144.271C-79.0016 144.473 -78.9291 144.688 -78.9126 144.922C-78.8551 145.151 -78.8595 145.383 -78.9242 145.615C-78.9692 145.956 -79.2271 146.396 -79.4717 146.635C-79.7487 146.908 -80.0429 147.084 -80.4123 147.199C-81.0247 147.389 -81.6891 147.176 -82.1535 146.763C-82.2817 146.649 -82.3851 146.508 -82.4673 146.359C-82.7329 145.89 -82.7655 145.308 -82.5004 144.83C-82.472 144.778 -82.4398 144.728 -82.404 144.68C-82.3719 144.56 -82.3214 144.446 -82.2544 144.333L-81.9692 143.945L-81.9596 143.935C-81.7399 143.711 -81.4806 143.554 -81.1796 143.466C-80.9023 143.387 -80.622 143.373 -80.3402 143.427L-80.2697 143.442L-80.2605 143.447ZM82.3383 178.502C84.1086 174.074 84.6551 168.565 77.5155 167.819L76.9959 167.745C75.2618 167.501 73.1967 167.298 71.6339 168.074C70.5573 168.61 69.841 170.398 69.2039 171.363C67.0245 174.439 65.429 177.829 64.0298 181.315C60.335 189.258 54.3689 196.315 47.3414 201.522C47.7016 208.477 49.3393 215.679 54.0112 221.058C57.4987 215.287 61.835 210.123 66.2267 205.034L66.4129 204.81C68.3304 202.48 70.0398 199.948 72.9317 198.722C78.4702 196.856 82.0738 201.608 87.6795 196.805C87.3329 196.299 88.0531 195.615 88.5437 196.091C90.352 197.546 92.7152 194.009 91.8351 192.362C90.8844 190.706 93.2045 189.888 93.2328 188.394C93.1682 187.708 92.4456 187.29 92.4301 186.531C92.7146 183.927 97.86 184.981 93.9979 179.751C93.1455 178.794 91.8337 178.378 90.768 177.788C89.1163 177.073 87.2603 177.496 85.6323 177.056C84.9741 181.967 78.8862 183.704 77.0985 178.513C74.1542 179.283 69.6939 182.272 75.4754 182.909C78.6268 182.634 81.7046 181.733 84.9026 182.253L84.9688 182.266C86.1415 182.486 91.6509 182.757 90.4316 184.469C87.9395 185.148 85.2625 183.656 82.6751 183.898C79.3952 183.673 76.1138 185.688 73.0043 183.93C69.8768 187.92 76.3153 187.98 78.8312 187.787L79.4978 187.79C82.8853 187.811 86.2553 187.957 89.3122 189.611C90.1562 190.067 89.441 191.362 88.5977 190.914C84.6126 188.76 80.0182 189.471 75.6787 189.493C73.9471 191.873 78.3093 192.808 79.9385 193.21C81.5444 193.818 84.8238 193.518 85.6613 195.086C85.4521 196.678 83.2597 195.348 82.2595 195.317C84.8886 198.991 81.1685 198.355 81.6572 195.194L81.3244 195.136C78.4932 194.629 71.7894 193.104 74.7006 189.431C73.6133 189.339 72.4195 188.985 71.5706 188.24C67.2033 190.485 64.1147 186.995 71.038 187.63C70.0999 186.353 70.9204 183.859 72.5923 183.68C68.3398 180.998 74.1393 178.172 76.8044 177.632C76.7279 177.364 76.6586 177.095 76.6019 176.83C75.2773 176.755 74.0069 176.453 72.7676 175.913C71.582 175.395 72.3852 173.334 73.5865 173.788C74.8738 174.275 76.1491 174.56 77.5304 174.536C79.5027 174.722 78.4236 177.98 79.9619 178.96C80.7377 179.61 81.7453 179.169 82.3383 178.502ZM24.3488 196.374C24.7341 196.585 24.9881 196.934 25.1277 197.343C25.2671 197.753 25.177 198.202 24.9925 198.578C24.8922 198.779 24.7508 198.94 24.5684 199.062C24.4144 199.206 24.2329 199.304 24.0228 199.358C23.6223 199.473 23.1513 199.422 22.7866 199.222C22.4013 199.011 22.1471 198.662 22.0074 198.253C21.8693 197.841 21.958 197.394 22.1436 197.016C22.2429 196.817 22.3845 196.656 22.5667 196.534C22.7053 196.404 22.867 196.31 23.0504 196.255L23.1123 196.238C23.5141 196.121 23.9837 196.174 24.3488 196.374ZM40.8437 193.989L40.9048 194.024C41.2297 194.205 41.4872 194.452 41.6792 194.769C41.7496 194.931 41.821 195.09 41.8897 195.251C41.9897 195.6 41.9981 195.949 41.9157 196.302C41.828 196.668 41.6521 196.989 41.3904 197.26C41.26 197.427 41.0939 197.567 40.9021 197.662C40.5974 197.84 40.2694 197.937 39.9162 197.948C39.5517 197.958 39.2098 197.874 38.8884 197.7C38.5691 197.523 38.3143 197.279 38.1268 196.967C37.9464 196.663 37.8522 196.334 37.84 195.983C37.815 195.769 37.8441 195.554 37.9152 195.354C38.0028 194.987 38.1787 194.667 38.4405 194.396C38.6755 194.155 38.9501 193.982 39.2668 193.876L39.3407 193.853C39.6002 193.766 39.861 193.748 40.1248 193.798C40.3785 193.803 40.6182 193.866 40.8437 193.989ZM-48.3081 145.22C-48.1505 145.258 -48.0153 145.332 -47.8986 145.444C-47.6999 145.565 -47.5428 145.731 -47.4277 145.939C-47.3686 146.077 -47.3087 146.214 -47.2487 146.351L-47.2178 146.509C-47.1537 146.85 -47.1709 146.893 -47.2193 147.333C-47.2677 147.567 -47.3682 147.772 -47.5225 147.948C-47.5967 148.083 -47.701 148.19 -47.8319 148.27C-47.9389 148.378 -48.0628 148.454 -48.2081 148.495C-48.3369 148.571 -48.4754 148.614 -48.6253 148.618C-48.8417 148.671 -49.062 148.668 -49.2837 148.607L-49.7115 148.442C-49.7592 148.406 -49.8089 148.369 -49.8577 148.335C-49.9192 148.299 -49.976 148.259 -50.0292 148.215L-50.0822 148.169L-50.1289 148.124C-50.1898 148.063 -50.245 147.996 -50.2939 147.923C-50.4033 147.814 -50.4807 147.688 -50.5243 147.538C-50.6319 147.339 -50.6859 147.122 -50.6837 146.889L-50.6772 146.816C-50.6777 146.733 -50.6719 146.652 -50.6557 146.57C-50.6575 146.424 -50.6239 146.288 -50.5556 146.159C-50.4992 145.969 -50.4042 145.802 -50.2677 145.657L-50.2206 145.61L-49.892 145.349C-49.755 145.275 -49.6131 145.201 -49.4614 145.161C-49.3719 145.141 -49.1619 145.106 -49.0475 145.094L-48.9783 145.089C-48.7411 145.074 -48.5168 145.117 -48.3081 145.22ZM-69.1865 130.321C-68.3435 129.417 -66.7834 129.841 -66.4448 131.003C-66.1066 132.165 -67.194 133.362 -68.3905 133.053L-68.5273 133.016C-69.6837 132.717 -70.0956 131.298 -69.2813 130.424L-69.1865 130.321ZM62.6537 191.485C62.7033 191.377 62.8568 191.413 62.89 191.511C63.3437 192.801 63.3859 194.073 64.1292 195.288C64.8769 196.508 66.0268 197.073 66.9417 198.098C67.2518 198.447 66.971 198.963 66.5098 198.886C63.9493 198.458 61.5717 193.844 62.6537 191.485ZM-38.219 135.946C-37.9393 136.003 -37.6924 136.124 -37.4829 136.309C-37.3199 136.398 -37.1905 136.522 -37.0962 136.679C-36.966 136.807 -36.8769 136.957 -36.825 137.13C-36.7334 137.284 -36.6859 137.452 -36.6787 137.632C-36.6149 137.893 -36.6192 138.156 -36.6919 138.42L-36.8922 138.935L-37.2184 139.38C-37.3577 139.489 -37.4982 139.6 -37.6357 139.71L-37.9243 139.844C-38.1566 139.949 -38.1791 139.939 -38.6369 140.002C-38.9162 140.02 -39.1801 139.97 -39.4241 139.848C-39.608 139.805 -39.7673 139.717 -39.9039 139.585C-40.0651 139.496 -40.1948 139.372 -40.2907 139.214C-40.4194 139.087 -40.5099 138.937 -40.562 138.763C-40.6881 138.528 -40.7493 138.275 -40.7477 138.003C-40.7305 137.827 -40.7121 137.649 -40.6932 137.474L-40.495 136.958L-40.1667 136.514L-40.1551 136.501C-39.9052 136.248 -39.6098 136.07 -39.2704 135.969L-38.7584 135.888C-38.5681 135.875 -38.3963 135.909 -38.219 135.946ZM48.0533 183.732C48.6435 183.872 49.1255 184.33 49.2949 184.912C49.4648 185.495 49.3051 186.137 48.8827 186.574C48.4694 186.998 47.8449 187.183 47.2686 187.043C47.0963 187.001 46.9322 186.94 46.7825 186.849C46.5258 186.705 46.3209 186.508 46.1678 186.256L46.0019 185.873C45.932 185.666 45.9184 185.459 45.9583 185.249C45.9611 185.029 46.021 184.823 46.1371 184.629L46.1548 184.593C46.1876 184.519 46.2356 184.454 46.2955 184.398C46.3353 184.325 46.385 184.261 46.4411 184.202C46.8507 183.776 47.4799 183.596 48.0533 183.732ZM-59.8092 118.044C-59.6412 118.129 -59.5058 118.246 -59.4048 118.401C-59.2812 118.531 -59.1981 118.683 -59.1557 118.86C-59.0961 119.033 -59.0857 119.207 -59.1189 119.382C-59.1213 119.566 -59.1723 119.738 -59.2682 119.9C-59.3872 120.117 -59.5535 120.288 -59.7626 120.415C-59.8704 120.462 -59.978 120.509 -60.0847 120.554C-60.3152 120.623 -60.5471 120.628 -60.7823 120.574L-60.9232 120.55C-61.1319 120.517 -61.3044 120.427 -61.4728 120.304C-61.6492 120.173 -61.7969 120.025 -61.8873 119.821C-61.9906 119.648 -62.0448 119.462 -62.0503 119.261L-62.0201 118.964C-61.9977 118.871 -61.9399 118.744 -61.8986 118.655C-61.8914 118.642 -61.8854 118.631 -61.8801 118.617C-61.8404 118.545 -61.7218 118.381 -61.6637 118.319C-61.5394 118.189 -61.377 118.09 -61.2152 118.02C-61.0637 117.937 -60.8976 117.898 -60.7198 117.899L-60.7026 117.896L-60.6837 117.894C-60.6251 117.888 -60.5642 117.883 -60.5023 117.875C-60.2582 117.87 -60.0259 117.925 -59.8092 118.044ZM36.5659 169.192C36.8623 169.355 37.0966 169.582 37.2709 169.871C37.2781 169.879 37.2852 169.888 37.2905 169.896C37.456 170.175 37.5435 170.476 37.5541 170.8C37.563 171.135 37.4864 171.45 37.3258 171.743C37.1643 172.037 36.941 172.269 36.6536 172.442C36.3747 172.607 36.0737 172.695 35.7497 172.705C35.7393 172.707 35.7281 172.705 35.7169 172.704C35.38 172.712 35.0633 172.635 34.7659 172.474C34.4724 172.311 34.2371 172.085 34.0626 171.797C33.7232 171.23 33.7098 170.511 34.0268 169.933C34.3441 169.355 34.9571 168.98 35.6166 168.963C35.9537 168.955 36.2714 169.031 36.5659 169.192ZM-39.1835 124.858L-39.1325 124.884C-38.932 124.984 -38.7711 125.126 -38.6525 125.309C-38.5079 125.463 -38.4081 125.646 -38.3545 125.856L-38.2079 126.23L-38.1644 126.337C-38.1573 126.355 -38.1506 126.373 -38.1444 126.39C-38.0632 126.673 -38.057 126.956 -38.1228 127.243C-38.1789 127.398 -38.2377 127.549 -38.301 127.7C-38.4637 128.093 -38.8905 128.353 -39.2757 128.484C-39.4816 128.552 -39.6893 128.566 -39.8994 128.528C-40.1187 128.523 -40.3262 128.462 -40.5187 128.347C-40.9014 128.092 -41.236 127.797 -41.3542 127.327C-41.3674 127.272 -41.3775 127.215 -41.3894 127.158L-41.4745 126.765C-41.553 126.49 -41.5605 126.214 -41.4949 125.936C-41.4435 125.798 -41.3909 125.663 -41.3384 125.528C-41.1469 125.139 -40.7665 124.885 -40.3698 124.75C-40.0031 124.626 -39.5301 124.686 -39.1835 124.858ZM-46.3935 115.827C-44.4673 116.884 -46.1105 119.871 -48.033 118.817C-49.9578 117.761 -48.3146 114.774 -46.3935 115.827ZM52.7607 164.76L52.8209 164.794C53.1386 164.971 53.393 165.214 53.5807 165.527L53.7885 166C53.8853 166.343 53.8947 166.685 53.8154 167.032C53.7493 167.201 53.6834 167.37 53.6202 167.537C53.4953 167.787 53.3183 167.986 53.0914 168.137C52.9011 168.317 52.6743 168.441 52.4133 168.507C52.1578 168.591 51.9016 168.61 51.6427 168.56C51.3706 168.555 51.1143 168.482 50.8765 168.339C50.5574 168.162 50.3026 167.919 50.115 167.606C50.0456 167.447 49.9779 167.29 49.9073 167.133C49.8181 166.817 49.803 166.501 49.8652 166.182L49.8823 166.102L50.0767 165.594C50.2006 165.346 50.3773 165.146 50.6043 164.996C50.7958 164.814 51.0217 164.692 51.2824 164.626C51.5382 164.541 51.7961 164.524 52.0532 164.573C52.3025 164.578 52.5388 164.639 52.7607 164.76ZM47.1528 154.406C47.3282 154.495 47.4682 154.617 47.5757 154.778C47.7019 154.912 47.7875 155.072 47.8344 155.254C47.9688 155.577 47.9057 156.038 47.7359 156.348C47.5662 156.657 47.2106 156.959 46.8668 157.019C46.6269 157.087 46.3846 157.094 46.1409 157.037L45.7848 156.9C45.4543 156.738 45.219 156.39 45.1052 156.052C45.0822 155.984 45.0611 155.917 45.0373 155.851C44.9339 155.544 45.0006 155.207 45.1389 154.923C45.2135 154.774 45.3204 154.654 45.4571 154.563C45.573 154.453 45.7091 154.38 45.8667 154.339C45.9353 154.324 46.003 154.306 46.0728 154.288C46.4501 154.194 46.8065 154.238 47.1528 154.406ZM107.594 174.59C109.625 173.775 109.495 172.33 107.465 171.694C104.08 170.392 100.022 170.758 96.4633 170.664C92.5567 170.603 88.7114 170.211 84.7971 170.021C85.6425 171.502 85.9182 173.248 85.8753 175.044C87.9235 174.739 90.0596 175.227 91.9011 176.148C96.894 174.808 102.708 177.063 107.594 174.59ZM-38.9078 100.642C-38.5786 100.824 -38.312 101.072 -38.1072 101.386L-38.0643 101.454L-37.8366 101.979C-37.7415 102.262 -37.7221 102.548 -37.7757 102.834C-37.7815 103.135 -37.8651 103.419 -38.0228 103.685C-38.1619 103.96 -38.3557 104.182 -38.606 104.348C-38.8199 104.549 -39.0699 104.684 -39.3601 104.757C-39.5477 104.839 -39.7495 104.873 -39.9628 104.863C-40.156 104.841 -40.3479 104.822 -40.542 104.803C-40.7485 104.762 -40.9563 104.657 -41.1522 104.562C-41.4975 104.37 -41.7719 104.106 -41.9768 103.767L-42.201 103.254C-42.2925 102.977 -42.3132 102.698 -42.2599 102.416C-42.2547 102.146 -42.1873 101.89 -42.0555 101.65L-42.018 101.585C-42.01 101.57 -42.0008 101.553 -41.9896 101.538C-41.872 101.376 -41.7522 101.215 -41.633 101.054C-41.4314 100.832 -41.1917 100.671 -40.9139 100.578C-40.8206 100.513 -40.7217 100.474 -40.6131 100.456C-40.2346 100.345 -39.8543 100.337 -39.4688 100.425C-39.2826 100.499 -39.0951 100.57 -38.9078 100.642ZM49.7329 142.873L49.7888 142.905C50.0389 143.042 50.2359 143.232 50.3828 143.474C50.4374 143.598 50.4905 143.721 50.5435 143.844C50.6214 144.111 50.6281 144.38 50.5647 144.649L50.4138 145.043C50.3144 145.237 50.1789 145.392 50.0013 145.509C49.8525 145.649 49.6765 145.745 49.4722 145.797C49.274 145.864 49.0741 145.878 48.8713 145.839C48.6603 145.836 48.4612 145.778 48.2743 145.666C48.0261 145.53 47.8274 145.339 47.6816 145.095C47.6276 144.973 47.5728 144.849 47.5198 144.726C47.4503 144.483 47.4388 144.236 47.4861 143.99L47.5004 143.923L47.6519 143.528C47.7491 143.333 47.8846 143.179 48.0619 143.061C48.2119 142.92 48.3898 142.824 48.5911 142.773C48.7913 142.707 48.9914 142.694 49.1924 142.732C49.3835 142.735 49.564 142.782 49.7329 142.873ZM-24.2871 99.6634L-24.223 99.6998C-23.8554 99.9038 -23.5635 100.184 -23.3466 100.544C-23.2675 100.725 -23.1882 100.906 -23.1103 101.089C-22.9956 101.482 -22.9862 101.878 -23.0779 102.278L-23.3026 102.859C-23.446 103.146 -23.6486 103.375 -23.9095 103.548C-24.1302 103.757 -24.391 103.898 -24.6927 103.974C-24.9847 104.072 -25.2806 104.093 -25.5792 104.035C-25.8919 104.03 -26.1857 103.946 -26.4611 103.78C-26.8297 103.578 -27.1216 103.297 -27.3385 102.937C-27.4175 102.757 -27.4957 102.574 -27.5766 102.392C-27.6884 101.998 -27.6979 101.603 -27.607 101.204L-27.3815 100.621C-27.2391 100.336 -27.0356 100.105 -26.7746 99.9323C-26.5549 99.7251 -26.2931 99.5816 -25.9942 99.5072C-25.6992 99.4086 -25.4035 99.3874 -25.105 99.4451C-24.8162 99.4499 -24.5446 99.5234 -24.2871 99.6634ZM47.0959 132.188C47.289 132.236 47.4574 132.328 47.6014 132.465C47.8474 132.615 48.0411 132.82 48.1835 133.078L48.4042 133.585C48.4066 133.594 48.4092 133.603 48.4107 133.613C48.5143 133.973 48.5237 134.338 48.4388 134.704L48.2323 135.239C48.1003 135.501 47.9145 135.713 47.6758 135.871C47.4888 136.047 47.2719 136.17 47.0253 136.244L46.9315 136.27C46.6575 136.361 46.3834 136.382 46.1065 136.329C45.9106 136.335 45.7259 136.289 45.5555 136.196C45.2723 136.115 45.0246 135.965 44.8163 135.747C44.702 135.6 44.5844 135.453 44.4672 135.307L44.4342 135.253C44.0335 134.626 44.0395 133.776 44.3922 133.133C44.7449 132.489 45.4596 132.026 46.2037 132.026C46.2245 132.028 46.2443 132.027 46.2663 132.027C46.5611 132.008 46.8378 132.061 47.0959 132.188Z" fill="#1C1C1C"/>
<path fill-rule="evenodd" clip-rule="evenodd" d="M98.7777 33.7463C90.4684 25.406 54.7717 9.7046 53.584 9.8725C51.5772 10.2623 42.8787 10.2204 41.3803 10.4782C26.4614 15.3061 27.3076 35.0913 19.9977 46.7774C17.6944 51.0815 13.728 53.9893 10.6317 57.647C9.09444 59.6107 7.9483 61.8853 8.00996 64.4391C8.08783 68.9847 11.8768 71.9757 14.5059 75.2333C15.796 76.8873 16.8084 78.7845 17.636 80.7067C22.6485 94.6691 24.8328 103.546 40.1119 109.396C39.8122 110.115 40.0475 111.112 40.959 111.217C43.0938 111.463 45.2399 111.659 47.3696 111.951C47.2484 113.064 48.187 113.916 49.3584 113.516L49.3595 113.524C54.0677 112.668 58.1226 110.189 61.7842 107.163C64.0858 105.521 66.2455 103.675 68.2352 101.645C68.4602 101.416 68.5833 101.168 68.6289 100.921C77.6173 91.9076 84.9642 81.2417 90.2497 69.6637C91.3433 67.2767 92.1859 64.7124 93.5571 62.465C94.796 60.4347 96.7739 58.9561 98.522 57.3911C106.572 51.0775 105.262 40.681 98.7777 33.7463Z" fill="white"/>
<path fill-rule="evenodd" clip-rule="evenodd" d="M107.369 21.0379L107.519 21.0139C109.153 20.744 110.873 20.16 112.242 21.4836C113.365 22.5693 113.432 24.0284 112.99 25.5051C113.623 25.3049 114.253 25.0838 114.881 24.8428C116.59 24.1887 118.559 26.0934 118.014 27.8215C116.918 31.304 115.197 34.516 112.863 37.3264C112.509 37.7519 112.14 38.1663 111.755 38.565C112.924 38.0806 114.066 37.5328 115.167 36.9001C116.361 36.2124 117.499 37.5021 116.993 38.6585C116.862 38.9581 116.718 39.2553 116.563 39.5483C116.92 39.9468 116.975 40.5702 116.552 41.0659C114.218 43.7921 111.735 46.3812 109.116 48.8281C111.154 48.8561 113.195 49.3297 114.536 50.8342C116.665 53.2264 115.711 56.4589 113.831 58.6604C111.468 61.4281 107.989 62.9212 104.411 63.1885C103.84 63.4875 103.27 63.7922 102.71 64.1143C101.956 65.477 100.96 66.7028 99.766 67.6942C98.4233 68.8066 96.7566 69.4906 95.0218 69.754C94.0788 70.4545 92.5657 70.514 91.6706 69.7765L91.624 69.7369L91.6212 69.7377C91.3747 70.7934 91.088 71.8389 90.7706 72.8701C88.3106 80.8588 83.4642 87.9209 78.2018 94.3198L78.0337 94.5238C73.34 100.213 68.3241 106.019 62.353 110.417C56.9532 114.392 50.1852 116.781 43.5508 114.656C35.746 112.157 29.1285 105.705 25.0471 98.7583C23.5679 96.2403 27.4798 93.8879 28.9375 96.423C31.0426 100.08 33.7382 103.306 36.9805 106.005C40.0122 108.526 43.6847 110.832 47.6893 111.249C53.2668 111.831 58.5123 108.655 62.6191 105.209C65.041 103.174 67.2566 100.918 69.4265 98.623C72.218 95.6729 74.9606 92.6671 77.5152 89.5075C82.2783 83.6132 86.3849 77.0309 88.737 69.7902C89.4881 67.4806 90.0815 65.0677 90.4597 62.6429C90.4231 62.4372 90.4012 62.2179 90.3986 61.9898C90.3694 60.2286 90.678 58.414 90.9051 56.6511C90.8815 55.5124 90.7933 54.3817 90.6615 53.2512C90.1618 52.1129 89.7283 50.9513 89.3995 49.7628C92.3671 49.5454 95.2732 48.8296 97.9039 47.3302C98.3378 47.083 98.3878 46.6466 98.2263 46.2965C96.3542 47.0769 94.2719 47.4652 92.1887 47.6785C91.0505 47.9172 89.8897 48.0558 88.7204 48.1149C88.0282 47.8961 87.3504 47.6347 86.7002 47.3687C84.8484 46.6109 83.1367 45.5757 81.5299 44.3931C78.0552 41.8364 64.5955 28.7714 56.9805 26.8037C55.3942 26.3939 54.0526 27.283 52.672 28.0516C51.4729 28.7212 50.1963 29.1196 48.8391 29.2798L48.688 29.2966C46.0554 29.5714 39.9268 31.6472 36.2682 34.4934C31.5444 38.1679 21.628 51.5047 22.4805 52.1338C24.7097 53.7807 25.3482 55.7797 26.5638 58.2158C26.6447 58.3758 26.4366 58.5751 26.3035 58.4225C25.2648 57.2453 24.0159 56.2011 22.7821 55.2304C21.6668 54.3511 20.3942 53.6049 18.9678 53.3938C16.7788 53.0706 15.0551 54.1091 13.747 55.6286C13.2354 56.223 12.7872 56.8908 12.3987 57.5816L12.2871 57.7826C11.0864 59.974 10.1625 62.6269 10.8665 65.1154C11.1655 66.1737 11.8283 67.1399 12.7177 67.7941C13.6907 68.511 14.5992 68.3922 15.6995 68.675C16.9664 69.0011 17.4318 70.2085 16.8047 71.106C16.9271 71.4407 17.036 71.7825 17.1411 72.1269L17.1408 72.128L17.1419 72.1298C17.2535 72.2778 17.3455 72.4439 17.4144 72.6215C17.5261 72.9142 17.5954 73.2053 17.6213 73.4919C17.9008 73.7248 18.1053 74.0636 18.1769 74.5174C18.3256 75.4499 18.4314 76.3685 18.4968 77.2818C18.8223 78.5378 19.1431 79.7937 19.4456 81.0565C19.8107 82.5749 20.1386 84.1031 20.4756 85.6284L20.6451 86.3908C20.8284 87.212 21.0098 88.0323 21.1902 88.8544L21.2454 89.0971C21.4337 89.9118 21.5864 90.5207 21.2069 91.3368C20.9238 91.9408 20.0784 91.993 19.631 91.5741C18.942 90.9269 18.9152 90.0923 18.7773 89.2033L18.3603 86.6201C18.2612 85.9968 18.1574 85.3734 18.0554 84.751C17.5134 85.4975 16.3103 85.6789 15.5167 85.2894L15.3324 85.1975C13.481 84.2606 11.4121 82.7921 10.7315 80.7509C9.76456 81.0377 8.71891 81.1078 7.60233 80.881C5.06512 80.3669 3.50529 77.9565 3.62619 75.6581C1.52815 75.4547 -0.471176 74.5485 -2.01312 73.0062C-2.90163 72.115 -2.54373 70.594 -1.36277 70.1907L-1.31013 70.1737L-1.29633 70.1687C-1.33994 69.8871 -1.29073 69.5988 -1.15942 69.3273C-1.00007 68.9977 -0.580078 68.786 -0.464096 68.4603C-0.0218658 67.2182 -2.34614 67.0433 -3.07299 66.9662C-3.2118 66.9513 -3.33005 66.9156 -3.43089 66.8649C-4.49108 66.6298 -4.82622 64.8829 -3.80342 64.1538C-1.51533 62.5258 0.755981 60.8669 3.05501 59.2497C2.89252 59.2208 2.72837 59.1862 2.57014 59.1452C0.345192 58.5757 -1.49377 56.3184 0.246132 54.2138C0.65274 53.7185 1.36021 53.6147 1.95015 53.7165C3.10002 53.9133 3.69401 54.5525 4.60941 54.6496C5.6396 54.7615 6.86641 54.6027 7.93397 54.4048C9.07288 54.1954 10.1481 53.8475 11.179 53.3957C12.0428 52.3918 13.0552 51.5345 14.2343 50.9663C14.3055 50.9331 14.3768 50.8998 14.4489 50.8695C10.7318 47.5039 13.5995 43.6036 13.7583 38.8403L13.7684 38.4438C13.8552 35.247 14.2799 31.8219 16.4838 29.3362C16.8741 28.897 17.304 28.5085 17.7648 28.1779C17.3988 28.0325 17.0329 27.8825 16.6689 27.7334C15.8328 27.3906 15.5896 25.9362 16.3122 25.3611C16.6916 25.0606 17.0804 24.7821 17.478 24.5229C18.5775 23.8098 19.7504 23.2574 20.993 22.8591C19.6897 22.0984 18.3652 21.372 17.1408 20.5028C15.9836 19.6824 15.0561 18.2939 15.8757 16.8897C16.6592 15.552 18.4149 15.1772 19.8834 15.1204C21.7646 14.2698 23.8036 13.8237 25.8541 13.7858C25.5835 13.5471 25.299 13.3241 24.9984 13.1181L24.8468 13.0166C23.9945 12.4575 23.3284 11.774 22.7251 10.9585C22.1856 10.2288 22.7517 9.22307 23.5035 8.97255C25.9364 8.15867 27.9295 9.95137 29.1907 11.8742C29.153 11.6488 29.1004 11.4228 29.032 11.1966L28.989 11.0609C28.5613 9.76638 30.5912 9.17888 31.0175 10.469C31.1522 10.8767 31.246 11.291 31.3039 11.7072L31.3488 11.675C33.7824 9.96964 36.6142 8.80172 39.5266 8.21865L40.2087 8.08596C45.4498 7.05393 47.3394 6.23873 51.8763 9.30234C52.1489 8.32206 52.7048 7.35597 53.1913 6.57777L53.2572 6.47284C55.0972 3.55291 58.1934 0.548172 61.8827 0.80713C62.8398 0.876498 63.3926 1.92458 62.7081 2.68932C62.225 3.23187 61.7195 3.74047 61.1806 4.20902C62.1944 3.8852 63.23 3.63124 64.279 3.44967C68.5548 2.7094 73.649 2.84946 77.1934 5.6613C79.1398 7.20859 80.0856 9.48217 81.2662 11.5954C82.4521 13.721 84.1022 15.5011 86.0863 16.9051C88.8575 18.8686 92.0148 20.1544 95.2365 21.2175C97.727 21.4434 100.241 21.4866 102.752 21.4247C104.295 21.3868 105.842 21.2685 107.369 21.0379ZM18.8644 57.8351C19.5789 58.0173 20.28 58.4042 20.8215 58.9061C22.2187 60.2028 22.9825 62.3863 22.1389 64.1485C21.7577 64.9446 20.7298 65.3426 19.8986 65.1446C18.9559 64.9216 18.4715 64.1353 18.3453 63.232C18.2082 62.2649 18.488 61.4518 18.2015 60.4847L18.1341 60.2643C17.8804 59.4609 17.4353 58.358 16.6295 58.0701C16.5111 58.0269 16.5109 57.8339 16.6546 57.8356C17.4394 57.8369 18.0685 57.63 18.8644 57.8351ZM31.7014 54.3974C32.1154 54.3207 32.3429 54.8018 32.0243 55.0638L32.0006 55.0822C31.2693 55.6115 31.2071 56.6694 31.29 57.4935C31.3603 58.2045 30.4222 58.3288 30.0737 57.8484C29.0957 56.4948 30.1836 54.6738 31.7014 54.3974ZM48.323 35.559C48.3945 35.3716 48.6656 35.4263 48.6304 35.6312C48.0454 39.0394 46.9363 41.7336 45.1124 44.6768L44.9497 44.9375C43.1737 47.7619 40.9673 50.5721 37.8854 52.0014C37.1721 52.331 36.5137 51.5456 37.0311 50.923C39.1035 48.4318 41.5988 46.3558 43.5524 43.7561C45.5946 41.0386 47.1077 38.7324 48.323 35.559ZM33.387 40.9214C33.9512 40.2353 35.5594 40.0929 35.7322 41.188C35.789 41.559 35.3779 41.7506 35.0842 41.7149C34.8094 41.6799 34.6746 41.4468 34.4279 41.3694C34.2282 41.3071 34.0353 41.3472 33.8636 41.4526L33.8272 41.4762C33.4701 41.7142 33.147 41.214 33.387 40.9214ZM36.2493 34.5606C37.1005 34.0102 38.3464 34.0452 38.9108 34.9887C39.0965 35.3003 38.7319 35.7102 38.4066 35.5125L38.2135 35.3961C37.6324 35.0493 37.0328 34.736 36.3285 34.8379C36.1716 34.8603 36.1358 34.6357 36.2493 34.5606ZM49.4477 14.0188C47.6632 11.654 44.7796 11.3237 42.0223 11.7629C41.7942 11.7993 41.6371 11.9016 41.5401 12.038C43.1075 12.2432 44.6635 12.6675 46.1272 13.1162C47.3241 13.483 48.4914 13.9277 49.6102 14.4642C49.6093 14.3217 49.5623 14.1706 49.4477 14.0188Z" fill="#1C1C1C"/>
<path fill-rule="evenodd" clip-rule="evenodd" d="M47.6364 96.309C46.6699 95.1178 46.0238 93.6608 45.8055 92.1324C45.7295 91.6011 45.8743 91.1634 46.133 90.8323C46.4238 90.46 46.8688 90.2221 47.3349 90.1544C47.8024 90.0865 48.2835 90.1905 48.6491 90.4725C48.9668 90.7176 49.2083 91.0978 49.2656 91.6428L49.2795 91.7531C49.4039 92.6715 49.7391 93.5529 50.2665 94.2918C50.7749 95.004 51.4625 95.5834 52.312 95.9317C53.9297 96.5951 55.4317 96.3468 57.1616 95.8397C57.3774 95.7743 57.5957 95.7045 57.8161 95.6327C57.9775 95.5466 58.1467 95.5272 58.3069 95.5562C58.4847 95.5884 58.6532 95.6844 58.7791 95.8242C58.9005 95.959 58.9802 96.132 58.9977 96.3136C59.0144 96.4861 58.9777 96.668 58.864 96.8379C58.1257 97.9418 56.9518 98.6444 55.645 98.985C54.1936 99.3632 52.5835 99.2924 51.2699 98.8569C49.8228 98.3771 48.5779 97.4694 47.6364 96.309ZM61.9383 80.8773C62.8705 82.4951 63.914 85.6474 61.2527 86.9307C58.4616 87.8185 57.0807 84.288 56.3528 82.6346C55.5974 81.2483 53.2341 82.4519 53.8367 83.9174C59.2286 95.6239 69.6362 85.3888 63.1943 80.2653C62.485 79.701 61.7161 80.4132 61.9383 80.8773ZM49.9564 64.128C51.1636 62.2937 54.3242 63.4604 53.5733 65.5188C52.9005 67.3627 51.737 68.7573 50.131 69.8688C48.5966 70.9305 47.1316 69.239 47.7232 67.8303C48.5163 65.9421 49.2055 65.2691 49.9564 64.128ZM72.6624 75.4766C73.3624 75.1663 74.1504 75.1246 74.7421 75.717C76.5906 77.568 74.2268 80.3388 72.6189 81.4367C71.7455 82.0327 70.2726 81.4975 70.058 80.4332C69.7086 78.6979 70.5294 76.0652 72.4422 75.5938C72.5098 75.5523 72.5816 75.5123 72.6624 75.4766ZM57.086 57.1149L57.4671 57.2447C58.645 57.6487 60.0807 58.2035 60.3672 59.4861C60.5192 60.1663 60.1904 61.0953 59.407 61.2369C58.0288 61.4862 57.1379 60.6081 55.9584 60.0462C54.9863 59.5834 53.9949 59.2426 52.9447 59.0043C50.6407 58.4813 48.4477 58.6308 46.1206 58.8393C45.8152 58.8666 45.744 58.4561 45.9651 58.3057C48.0023 56.9202 50.7721 56.3835 53.2066 56.4655C54.5059 56.5092 55.8531 56.6933 57.086 57.1149ZM75.2681 65.9663L75.5043 66.1667C78.0687 68.3612 81.1684 71.6352 80.9789 75.2337C80.8105 75.6649 80.7079 75.7208 80.6321 75.7526L80.6069 75.7631C80.5435 75.7909 80.4775 75.8411 80.2731 75.8002C80.231 75.7621 80.1889 75.7231 80.1466 75.6831C79.6083 75.1734 79.2354 74.6735 78.883 74.1737L78.502 73.6299C78.0592 73.0005 77.605 72.3789 77.0733 71.8123C75.9384 70.6031 74.6909 69.5056 73.3402 68.544C73.0474 68.3357 72.804 68.0647 72.6656 67.7533C72.5342 67.4576 72.4924 67.1251 72.5873 66.7657C72.7099 66.3005 72.9092 66.0066 73.3313 65.7577C73.6485 65.5709 73.9901 65.5083 74.3219 65.5467C74.6602 65.5858 74.9895 65.7319 75.2681 65.9663Z" fill="#1C1C1C"/>
</g>
</g>
</g>
</g>
<defs>
<clipPath id="clip0_0_1">
<rect width="1454" height="3096" fill="white" transform="translate(0 -1005)"/>
</clipPath>
</defs>
</svg>
