<svg width="139" height="57" viewBox="0 0 139 57" fill="none" xmlns="http://www.w3.org/2000/svg">
<path d="M9 25H123C131.837 25 139 32.1634 139 41C139 49.8366 131.837 57 123 57H25C16.1634 57 9 49.8366 9 41V25Z" fill="#5557FF"/>
<path d="M25.0277 49.6549C22.8695 49.6549 21.0146 49.2097 19.4628 48.3192C17.92 47.4198 16.7295 46.1696 15.8912 44.5687C15.0618 42.9587 14.6471 41.0924 14.6471 38.9698C14.6471 36.8381 15.0618 34.9718 15.8912 33.3709C16.7295 31.7609 17.92 30.5107 19.4628 29.6203C21.0146 28.7209 22.8695 28.2712 25.0277 28.2712C27.1859 28.2712 29.0364 28.7209 30.5792 29.6203C32.1309 30.5107 33.3215 31.7609 34.1509 33.3709C34.9891 34.9718 35.4083 36.8381 35.4083 38.9698C35.4083 41.0924 34.9891 42.9587 34.1509 44.5687C33.3215 46.1696 32.1309 47.4198 30.5792 48.3192C29.0364 49.2097 27.1859 49.6549 25.0277 49.6549ZM25.0678 44.6766C25.8526 44.6766 26.517 44.4337 27.061 43.9481C27.605 43.4624 28.0197 42.7878 28.3051 41.9244C28.5994 41.0609 28.7465 40.0626 28.7465 38.9293C28.7465 37.778 28.5994 36.7707 28.3051 35.9072C28.0197 35.0438 27.605 34.3692 27.061 33.8835C26.517 33.3979 25.8526 33.155 25.0678 33.155C24.2563 33.155 23.5696 33.3979 23.0078 33.8835C22.4548 34.3692 22.0312 35.0438 21.7369 35.9072C21.4516 36.7707 21.3089 37.778 21.3089 38.9293C21.3089 40.0626 21.4516 41.0609 21.7369 41.9244C22.0312 42.7878 22.4548 43.4624 23.0078 43.9481C23.5696 44.4337 24.2563 44.6766 25.0678 44.6766Z" fill="white"/>
<path d="M45.3006 37.4452V49.2636H38.7592V28.541H44.9796V32.3455H45.207C45.6618 31.0774 46.4377 30.0835 47.5346 29.364C48.6315 28.6354 49.938 28.2712 51.4541 28.2712C52.8988 28.2712 54.1518 28.5994 55.213 29.256C56.2832 29.9036 57.1126 30.812 57.7012 31.9813C58.2987 33.1415 58.593 34.4996 58.584 36.0556V49.2636H52.0427V37.3508C52.0516 36.1996 51.7617 35.3001 51.1731 34.6525C50.5935 34.005 49.7864 33.6812 48.7519 33.6812C48.0652 33.6812 47.4588 33.8341 46.9326 34.1399C46.4154 34.4367 46.0141 34.8639 45.7287 35.4215C45.4522 35.9792 45.3095 36.6538 45.3006 37.4452Z" fill="white"/>
<path d="M72.2387 49.6549C70.0894 49.6549 68.2345 49.2276 66.6738 48.3732C65.1221 47.5098 63.9271 46.2821 63.0888 44.6901C62.2594 43.0891 61.8447 41.1868 61.8447 38.9833C61.8447 36.8426 62.2638 34.9718 63.1021 33.3709C63.9404 31.7609 65.1221 30.5107 66.6471 29.6203C68.172 28.7209 69.969 28.2712 72.038 28.2712C73.5006 28.2712 74.8382 28.5005 76.0511 28.9592C77.2639 29.4179 78.3118 30.097 79.1947 30.9964C80.0776 31.8958 80.7642 33.0066 81.2547 34.3288C81.7452 35.6419 81.9905 37.1484 81.9905 38.8483V40.4943H64.1322V36.6628H75.9039C75.895 35.9612 75.73 35.3361 75.409 34.7875C75.0879 34.2388 74.6465 33.8116 74.0847 33.5058C73.5318 33.191 72.8941 33.0336 72.1718 33.0336C71.4405 33.0336 70.785 33.2 70.2053 33.5328C69.6257 33.8566 69.1664 34.3018 68.8275 34.8684C68.4886 35.426 68.3103 36.0601 68.2924 36.7707V40.6697C68.2924 41.5151 68.4574 42.2571 68.7874 42.8957C69.1173 43.5253 69.5855 44.0155 70.192 44.3663C70.7984 44.7171 71.5208 44.8924 72.3591 44.8924C72.9387 44.8924 73.4649 44.8115 73.9375 44.6496C74.4102 44.4877 74.8159 44.2494 75.1548 43.9346C75.4937 43.6198 75.7478 43.233 75.9173 42.7743L81.9236 42.9497C81.6739 44.3078 81.1254 45.4906 80.2782 46.4979C79.4399 47.4963 78.3385 48.2743 76.9741 48.8319C75.6096 49.3806 74.0312 49.6549 72.2387 49.6549Z" fill="white"/>
<path d="M23.1408 5.41614V10.7145H9V5.41614H23.1408ZM11.9624 0H19.0985V20.914C19.0985 21.3555 19.1666 21.7136 19.3028 21.9884C19.4487 22.2533 19.6579 22.4446 19.9303 22.5624C20.2027 22.6703 20.5286 22.7243 20.908 22.7243C21.1804 22.7243 21.4674 22.6997 21.769 22.6507C22.0803 22.5918 22.3138 22.5427 22.4695 22.5035L23.5494 27.6989C23.2089 27.797 22.7273 27.9196 22.1046 28.0668C21.4917 28.214 20.7572 28.3072 19.9011 28.3465C18.2277 28.4249 16.7927 28.2287 15.5961 27.7577C14.4092 27.277 13.4996 26.5313 12.8672 25.5206C12.2445 24.51 11.943 23.2394 11.9624 21.7087V0Z" fill="white"/>
<path d="M37.0184 28.1044C34.6738 28.1044 32.6502 27.6383 30.9477 26.7062C29.2549 25.7642 27.9512 24.4249 27.0367 22.6882C26.1319 20.9417 25.6795 18.8665 25.6795 16.4626C25.6795 14.1274 26.1368 12.0865 27.0513 10.34C27.9658 8.58367 29.2549 7.21982 30.9185 6.24844C32.5821 5.26726 34.5424 4.77667 36.7995 4.77667C38.395 4.77667 39.8543 5.02687 41.1775 5.52727C42.5006 6.02768 43.6437 6.76847 44.6068 7.74966C45.57 8.73085 46.3191 9.94261 46.8542 11.385C47.3893 12.8175 47.6568 14.461 47.6568 16.3154V18.111H28.175V13.9311H41.0169C41.0072 13.1658 40.8272 12.4839 40.477 11.8854C40.1267 11.2868 39.6452 10.8208 39.0323 10.4872C38.4291 10.1438 37.7335 9.97204 36.9454 9.97204C36.1477 9.97204 35.4326 10.1536 34.8002 10.5166C34.1679 10.8698 33.6668 11.3555 33.2972 11.9737C32.9275 12.582 32.7329 13.2737 32.7134 14.0489V18.3023C32.7134 19.2246 32.8934 20.0341 33.2534 20.7307C33.6133 21.4176 34.1241 21.9523 34.7857 22.335C35.4472 22.7176 36.2352 22.909 37.1497 22.909C37.7821 22.909 38.3561 22.8207 38.8717 22.6441C39.3874 22.4674 39.83 22.2074 40.1997 21.864C40.5694 21.5206 40.8467 21.0987 41.0315 20.5983L47.5838 20.7896C47.3114 22.2712 46.7131 23.5615 45.7889 24.6604C44.8744 25.7495 43.6729 26.5982 42.1844 27.2066C40.6959 27.8051 38.9739 28.1044 37.0184 28.1044Z" fill="white"/>
<path d="M70.9455 12.9009L64.3931 13.0775C64.325 12.6066 64.1402 12.1896 63.8386 11.8265C63.537 11.4537 63.143 11.1642 62.6566 10.9582C62.1798 10.7423 61.6253 10.6344 60.9929 10.6344C60.166 10.6344 59.4607 10.8012 58.8769 11.1348C58.3029 11.4684 58.0208 11.9197 58.0305 12.4888C58.0208 12.9303 58.1959 13.313 58.5559 13.6368C58.9256 13.9606 59.5823 14.2206 60.526 14.4168L64.8455 15.241C67.0831 15.6728 68.7468 16.389 69.8364 17.3898C70.9357 18.3906 71.4903 19.7152 71.5 21.3636C71.4903 22.9139 71.033 24.263 70.1282 25.411C69.2332 26.559 68.0074 27.4519 66.4508 28.0897C64.8942 28.7176 63.1138 29.0316 61.1097 29.0316C57.9089 29.0316 55.3843 28.3693 53.5358 27.0447C51.6971 25.7103 50.6464 23.9245 50.3837 21.6874L57.4322 21.5108C57.5879 22.335 57.9916 22.963 58.6434 23.3947C59.2953 23.8264 60.1271 24.0423 61.1389 24.0423C62.0534 24.0423 62.7976 23.8706 63.3716 23.5272C63.9456 23.1837 64.2375 22.7275 64.2472 22.1584C64.2375 21.6482 64.0137 21.241 63.5759 20.9368C63.1381 20.6228 62.4522 20.3775 61.5183 20.2009L57.6073 19.4503C55.36 19.0382 53.6866 18.2778 52.5873 17.1691C51.4879 16.0505 50.9431 14.6278 50.9529 12.9009C50.9431 11.3899 51.342 10.0996 52.1495 9.03014C52.957 7.95083 54.105 7.12664 55.5935 6.55755C57.082 5.98846 58.838 5.70392 60.8616 5.70392C63.897 5.70392 66.2902 6.34659 68.0414 7.63195C69.7926 8.90749 70.7606 10.6638 70.9455 12.9009Z" fill="white"/>
<path d="M86.1462 6.69001V11.9884H72.0055V6.69001H86.1462ZM74.9678 1.27386H82.1039V22.1878C82.1039 22.6294 82.172 22.9875 82.3082 23.2622C82.4541 23.5272 82.6633 23.7185 82.9357 23.8362C83.2081 23.9442 83.534 23.9981 83.9134 23.9981C84.1858 23.9981 84.4728 23.9736 84.7744 23.9245C85.0857 23.8657 85.3192 23.8166 85.4749 23.7774L86.5548 28.9727C86.2143 29.0709 85.7327 29.1935 85.1101 29.3407C84.4971 29.4879 83.7626 29.5811 82.9065 29.6203C81.2331 29.6988 79.7982 29.5026 78.6015 29.0316C77.4146 28.5508 76.505 27.8051 75.8726 26.7945C75.25 25.7839 74.9484 24.5132 74.9678 22.9826V1.27386Z" fill="white"/>
<path d="M25.0277 49.6549C22.8695 49.6549 21.0146 49.2097 19.4628 48.3192C17.92 47.4198 16.7295 46.1696 15.8912 44.5687C15.0618 42.9587 14.6471 41.0924 14.6471 38.9698C14.6471 36.8381 15.0618 34.9718 15.8912 33.3709C16.7295 31.7609 17.92 30.5107 19.4628 29.6203C21.0146 28.7209 22.8695 28.2712 25.0277 28.2712C27.1859 28.2712 29.0364 28.7209 30.5792 29.6203C32.1309 30.5107 33.3215 31.7609 34.1509 33.3709C34.9891 34.9718 35.4083 36.8381 35.4083 38.9698C35.4083 41.0924 34.9891 42.9587 34.1509 44.5687C33.3215 46.1696 32.1309 47.4198 30.5792 48.3192C29.0364 49.2097 27.1859 49.6549 25.0277 49.6549ZM25.0678 44.6766C25.8526 44.6766 26.517 44.4337 27.061 43.9481C27.605 43.4624 28.0197 42.7878 28.3051 41.9244C28.5994 41.0609 28.7465 40.0626 28.7465 38.9293C28.7465 37.778 28.5994 36.7707 28.3051 35.9072C28.0197 35.0438 27.605 34.3692 27.061 33.8835C26.517 33.3979 25.8526 33.155 25.0678 33.155C24.2563 33.155 23.5696 33.3979 23.0078 33.8835C22.4548 34.3692 22.0312 35.0438 21.7369 35.9072C21.4516 36.7707 21.3089 37.778 21.3089 38.9293C21.3089 40.0626 21.4516 41.0609 21.7369 41.9244C22.0312 42.7878 22.4548 43.4624 23.0078 43.9481C23.5696 44.4337 24.2563 44.6766 25.0678 44.6766Z" fill="white"/>
<path d="M45.3006 37.4452V49.2636H38.7592V28.541H44.9796V32.3455H45.207C45.6618 31.0774 46.4377 30.0835 47.5346 29.364C48.6315 28.6354 49.938 28.2712 51.4541 28.2712C52.8988 28.2712 54.1518 28.5994 55.213 29.256C56.2832 29.9036 57.1126 30.812 57.7012 31.9813C58.2987 33.1415 58.593 34.4996 58.584 36.0556V49.2636H52.0427V37.3508C52.0516 36.1996 51.7617 35.3001 51.1731 34.6525C50.5935 34.005 49.7864 33.6812 48.7519 33.6812C48.0652 33.6812 47.4588 33.8341 46.9326 34.1399C46.4154 34.4367 46.0141 34.8639 45.7287 35.4215C45.4522 35.9792 45.3095 36.6538 45.3006 37.4452Z" fill="white"/>
<path d="M72.2387 49.6549C70.0894 49.6549 68.2345 49.2276 66.6738 48.3732C65.1221 47.5098 63.9271 46.2821 63.0888 44.6901C62.2594 43.0891 61.8447 41.1868 61.8447 38.9833C61.8447 36.8426 62.2638 34.9718 63.1021 33.3709C63.9404 31.7609 65.1221 30.5107 66.6471 29.6203C68.172 28.7209 69.969 28.2712 72.038 28.2712C73.5006 28.2712 74.8382 28.5005 76.0511 28.9592C77.2639 29.4179 78.3118 30.097 79.1947 30.9964C80.0776 31.8958 80.7642 33.0066 81.2547 34.3288C81.7452 35.6419 81.9905 37.1484 81.9905 38.8483V40.4943H64.1322V36.6628H75.9039C75.895 35.9612 75.73 35.3361 75.409 34.7875C75.0879 34.2388 74.6465 33.8116 74.0847 33.5058C73.5318 33.191 72.8941 33.0336 72.1718 33.0336C71.4405 33.0336 70.785 33.2 70.2053 33.5328C69.6257 33.8566 69.1664 34.3018 68.8275 34.8684C68.4886 35.426 68.3103 36.0601 68.2924 36.7707V40.6697C68.2924 41.5151 68.4574 42.2571 68.7874 42.8957C69.1173 43.5253 69.5855 44.0155 70.192 44.3663C70.7984 44.7171 71.5208 44.8924 72.3591 44.8924C72.9387 44.8924 73.4649 44.8115 73.9375 44.6496C74.4102 44.4877 74.8159 44.2494 75.1548 43.9346C75.4937 43.6198 75.7478 43.233 75.9173 42.7743L81.9236 42.9497C81.6739 44.3078 81.1254 45.4906 80.2782 46.4979C79.4399 47.4963 78.3385 48.2743 76.9741 48.8319C75.6096 49.3806 74.0312 49.6549 72.2387 49.6549Z" fill="white"/>
</svg>
