<svg width="128" height="58" viewBox="0 0 128 58" fill="none" xmlns="http://www.w3.org/2000/svg">
<rect y="26.0001" width="128" height="32" rx="7" fill="#5557FF"/>
<mask id="path-2-outside-1_2_1618" maskUnits="userSpaceOnUse" x="8" y="0.345215" width="80" height="52" fill="black">
<rect fill="white" x="8" y="0.345215" width="80" height="52"/>
<path d="M25.0277 51.0001C22.8695 51.0001 21.0146 50.5549 19.4628 49.6645C17.92 48.765 16.7295 47.5148 15.8912 45.9139C15.0618 44.3039 14.6471 42.4376 14.6471 40.315C14.6471 38.1834 15.0618 36.3171 15.8912 34.7161C16.7295 33.1061 17.92 31.8559 19.4628 30.9655C21.0146 30.0661 22.8695 29.6164 25.0277 29.6164C27.1859 29.6164 29.0364 30.0661 30.5792 30.9655C32.1309 31.8559 33.3215 33.1061 34.1509 34.7161C34.9891 36.3171 35.4083 38.1834 35.4083 40.315C35.4083 42.4376 34.9891 44.3039 34.1509 45.9139C33.3215 47.5148 32.1309 48.765 30.5792 49.6645C29.0364 50.5549 27.1859 51.0001 25.0277 51.0001ZM25.0678 46.0218C25.8526 46.0218 26.517 45.779 27.061 45.2933C27.605 44.8076 28.0197 44.133 28.3051 43.2696C28.5994 42.4061 28.7465 41.4078 28.7465 40.2745C28.7465 39.1232 28.5994 38.1159 28.3051 37.2524C28.0197 36.389 27.605 35.7144 27.061 35.2288C26.517 34.7431 25.8526 34.5002 25.0678 34.5002C24.2563 34.5002 23.5696 34.7431 23.0078 35.2288C22.4548 35.7144 22.0312 36.389 21.7369 37.2524C21.4516 38.1159 21.3089 39.1232 21.3089 40.2745C21.3089 41.4078 21.4516 42.4061 21.7369 43.2696C22.0312 44.133 22.4548 44.8076 23.0078 45.2933C23.5696 45.779 24.2563 46.0218 25.0678 46.0218Z"/>
<path d="M45.3006 38.7905V50.6088H38.7592V29.8862H44.9796V33.6908H45.207C45.6618 32.4226 46.4377 31.4287 47.5346 30.7092C48.6315 29.9806 49.938 29.6164 51.4541 29.6164C52.8988 29.6164 54.1518 29.9447 55.213 30.6012C56.2832 31.2488 57.1126 32.1572 57.7012 33.3265C58.2987 34.4867 58.593 35.8449 58.584 37.4009V50.6088H52.0427V38.696C52.0516 37.5448 51.7617 36.6453 51.1731 35.9978C50.5935 35.3502 49.7864 35.0264 48.7519 35.0264C48.0652 35.0264 47.4588 35.1793 46.9326 35.4851C46.4154 35.7819 46.0141 36.2091 45.7287 36.7668C45.4522 37.3244 45.3095 37.999 45.3006 38.7905Z"/>
<path d="M72.2387 51.0001C70.0894 51.0001 68.2345 50.5729 66.6738 49.7184C65.1221 48.855 63.9271 47.6273 63.0888 46.0353C62.2594 44.4343 61.8447 42.532 61.8447 40.3285C61.8447 38.1878 62.2638 36.3171 63.1021 34.7161C63.9404 33.1061 65.1221 31.8559 66.6471 30.9655C68.172 30.0661 69.969 29.6164 72.038 29.6164C73.5006 29.6164 74.8382 29.8457 76.0511 30.3044C77.2639 30.7631 78.3118 31.4422 79.1947 32.3416C80.0776 33.241 80.7642 34.3518 81.2547 35.674C81.7452 36.9871 81.9905 38.4937 81.9905 40.1936V41.8395H64.1322V38.008H75.9039C75.895 37.3064 75.73 36.6813 75.409 36.1327C75.0879 35.584 74.6465 35.1568 74.0847 34.851C73.5318 34.5362 72.8941 34.3788 72.1718 34.3788C71.4405 34.3788 70.785 34.5452 70.2053 34.878C69.6257 35.2018 69.1664 35.647 68.8275 36.2136C68.4886 36.7713 68.3103 37.4054 68.2924 38.1159V42.0149C68.2924 42.8603 68.4574 43.6024 68.7874 44.2409C69.1173 44.8705 69.5855 45.3607 70.192 45.7115C70.7984 46.0623 71.5208 46.2377 72.3591 46.2377C72.9387 46.2377 73.4649 46.1567 73.9375 45.9948C74.4102 45.8329 74.8159 45.5946 75.1548 45.2798C75.4937 44.965 75.7478 44.5782 75.9173 44.1195L81.9236 44.2949C81.6739 45.653 81.1254 46.8358 80.2782 47.8431C79.4399 48.8415 78.3385 49.6195 76.9741 50.1771C75.6096 50.7258 74.0312 51.0001 72.2387 51.0001Z"/>
<path d="M23.1408 6.76136V12.0598H9V6.76136H23.1408ZM11.9624 1.34521H19.0985V22.2592C19.0985 22.7007 19.1666 23.0589 19.3028 23.3336C19.4487 23.5985 19.6579 23.7898 19.9303 23.9076C20.2027 24.0155 20.5286 24.0695 20.908 24.0695C21.1804 24.0695 21.4674 24.0449 21.769 23.9959C22.0803 23.937 22.3138 23.888 22.4695 23.8487L23.5494 29.0441C23.2089 29.1422 22.7273 29.2649 22.1046 29.412C21.4917 29.5592 20.7572 29.6524 19.9011 29.6917C18.2277 29.7702 16.7927 29.5739 15.5961 29.103C14.4092 28.6222 13.4996 27.8765 12.8672 26.8659C12.2445 25.8552 11.943 24.5846 11.9624 23.0539V1.34521Z"/>
<path d="M37.0184 29.4496C34.6738 29.4496 32.6502 28.9835 30.9477 28.0514C29.2549 27.1094 27.9512 25.7701 27.0367 24.0334C26.1319 22.2869 25.6795 20.2117 25.6795 17.8078C25.6795 15.4726 26.1368 13.4317 27.0513 11.6852C27.9658 9.92888 29.2549 8.56503 30.9185 7.59366C32.5821 6.61247 34.5424 6.12188 36.7995 6.12188C38.395 6.12188 39.8543 6.37208 41.1775 6.87249C42.5006 7.37289 43.6437 8.11369 44.6068 9.09487C45.57 10.0761 46.3191 11.2878 46.8542 12.7302C47.3893 14.1627 47.6568 15.8062 47.6568 17.6606V19.4562H28.175V15.2763H41.0169C41.0072 14.511 40.8272 13.8291 40.477 13.2306C40.1267 12.632 39.6452 12.166 39.0323 11.8324C38.4291 11.489 37.7335 11.3173 36.9454 11.3173C36.1477 11.3173 35.4326 11.4988 34.8002 11.8618C34.1679 12.215 33.6668 12.7007 33.2972 13.3189C32.9275 13.9272 32.7329 14.6189 32.7134 15.3941V19.6475C32.7134 20.5698 32.8934 21.3793 33.2534 22.076C33.6133 22.7628 34.1241 23.2975 34.7857 23.6802C35.4472 24.0629 36.2352 24.2542 37.1497 24.2542C37.7821 24.2542 38.3561 24.1659 38.8717 23.9893C39.3874 23.8127 39.83 23.5526 40.1997 23.2092C40.5694 22.8658 40.8467 22.4439 41.0315 21.9435L47.5838 22.1348C47.3114 23.6164 46.7131 24.9067 45.7889 26.0056C44.8744 27.0947 43.6729 27.9435 42.1844 28.5518C40.6959 29.1503 38.9739 29.4496 37.0184 29.4496Z"/>
<path d="M70.9455 14.2461L64.3931 14.4227C64.325 13.9518 64.1402 13.5348 63.8386 13.1717C63.537 12.7989 63.143 12.5094 62.6566 12.3034C62.1798 12.0875 61.6253 11.9796 60.9929 11.9796C60.166 11.9796 59.4607 12.1464 58.8769 12.48C58.3029 12.8136 58.0208 13.2649 58.0305 13.834C58.0208 14.2756 58.1959 14.6582 58.5559 14.982C58.9256 15.3058 59.5823 15.5658 60.526 15.7621L64.8455 16.5863C67.0831 17.018 68.7468 17.7342 69.8364 18.7351C70.9357 19.7359 71.4903 21.0605 71.5 22.7089C71.4903 24.2591 71.033 25.6083 70.1282 26.7562C69.2332 27.9042 68.0074 28.7971 66.4508 29.4349C64.8942 30.0628 63.1138 30.3768 61.1097 30.3768C57.9089 30.3768 55.3843 29.7145 53.5358 28.3899C51.6971 27.0555 50.6464 25.2698 50.3837 23.0326L57.4322 22.856C57.5879 23.6802 57.9916 24.3082 58.6434 24.7399C59.2953 25.1716 60.1271 25.3875 61.1389 25.3875C62.0534 25.3875 62.7976 25.2158 63.3716 24.8724C63.9456 24.529 64.2375 24.0727 64.2472 23.5036C64.2375 22.9934 64.0137 22.5862 63.5759 22.282C63.1381 21.9681 62.4522 21.7228 61.5183 21.5462L57.6073 20.7955C55.36 20.3834 53.6866 19.623 52.5873 18.5143C51.4879 17.3957 50.9431 15.973 50.9529 14.2461C50.9431 12.7351 51.342 11.4448 52.1495 10.3753C52.957 9.29605 54.105 8.47185 55.5935 7.90276C57.082 7.33368 58.838 7.04913 60.8616 7.04913C63.897 7.04913 66.2902 7.69181 68.0414 8.97716C69.7926 10.2527 70.7606 12.009 70.9455 14.2461Z"/>
<path d="M86.1462 8.03522V13.3336H72.0055V8.03522H86.1462ZM74.9678 2.61908H82.1039V23.5331C82.1039 23.9746 82.172 24.3327 82.3082 24.6075C82.4541 24.8724 82.6633 25.0637 82.9357 25.1814C83.2081 25.2894 83.534 25.3433 83.9134 25.3433C84.1858 25.3433 84.4728 25.3188 84.7744 25.2697C85.0857 25.2109 85.3192 25.1618 85.4749 25.1226L86.5548 30.3179C86.2143 30.4161 85.7327 30.5387 85.1101 30.6859C84.4971 30.8331 83.7626 30.9263 82.9065 30.9655C81.2331 31.044 79.7982 30.8478 78.6015 30.3768C77.4146 29.896 76.505 29.1503 75.8726 28.1397C75.25 27.1291 74.9484 25.8585 74.9678 24.3278V2.61908Z"/>
</mask>
<path d="M25.0277 51.0001C22.8695 51.0001 21.0146 50.5549 19.4628 49.6645C17.92 48.765 16.7295 47.5148 15.8912 45.9139C15.0618 44.3039 14.6471 42.4376 14.6471 40.315C14.6471 38.1834 15.0618 36.3171 15.8912 34.7161C16.7295 33.1061 17.92 31.8559 19.4628 30.9655C21.0146 30.0661 22.8695 29.6164 25.0277 29.6164C27.1859 29.6164 29.0364 30.0661 30.5792 30.9655C32.1309 31.8559 33.3215 33.1061 34.1509 34.7161C34.9891 36.3171 35.4083 38.1834 35.4083 40.315C35.4083 42.4376 34.9891 44.3039 34.1509 45.9139C33.3215 47.5148 32.1309 48.765 30.5792 49.6645C29.0364 50.5549 27.1859 51.0001 25.0277 51.0001ZM25.0678 46.0218C25.8526 46.0218 26.517 45.779 27.061 45.2933C27.605 44.8076 28.0197 44.133 28.3051 43.2696C28.5994 42.4061 28.7465 41.4078 28.7465 40.2745C28.7465 39.1232 28.5994 38.1159 28.3051 37.2524C28.0197 36.389 27.605 35.7144 27.061 35.2288C26.517 34.7431 25.8526 34.5002 25.0678 34.5002C24.2563 34.5002 23.5696 34.7431 23.0078 35.2288C22.4548 35.7144 22.0312 36.389 21.7369 37.2524C21.4516 38.1159 21.3089 39.1232 21.3089 40.2745C21.3089 41.4078 21.4516 42.4061 21.7369 43.2696C22.0312 44.133 22.4548 44.8076 23.0078 45.2933C23.5696 45.779 24.2563 46.0218 25.0678 46.0218Z" fill="black"/>
<path d="M45.3006 38.7905V50.6088H38.7592V29.8862H44.9796V33.6908H45.207C45.6618 32.4226 46.4377 31.4287 47.5346 30.7092C48.6315 29.9806 49.938 29.6164 51.4541 29.6164C52.8988 29.6164 54.1518 29.9447 55.213 30.6012C56.2832 31.2488 57.1126 32.1572 57.7012 33.3265C58.2987 34.4867 58.593 35.8449 58.584 37.4009V50.6088H52.0427V38.696C52.0516 37.5448 51.7617 36.6453 51.1731 35.9978C50.5935 35.3502 49.7864 35.0264 48.7519 35.0264C48.0652 35.0264 47.4588 35.1793 46.9326 35.4851C46.4154 35.7819 46.0141 36.2091 45.7287 36.7668C45.4522 37.3244 45.3095 37.999 45.3006 38.7905Z" fill="black"/>
<path d="M72.2387 51.0001C70.0894 51.0001 68.2345 50.5729 66.6738 49.7184C65.1221 48.855 63.9271 47.6273 63.0888 46.0353C62.2594 44.4343 61.8447 42.532 61.8447 40.3285C61.8447 38.1878 62.2638 36.3171 63.1021 34.7161C63.9404 33.1061 65.1221 31.8559 66.6471 30.9655C68.172 30.0661 69.969 29.6164 72.038 29.6164C73.5006 29.6164 74.8382 29.8457 76.0511 30.3044C77.2639 30.7631 78.3118 31.4422 79.1947 32.3416C80.0776 33.241 80.7642 34.3518 81.2547 35.674C81.7452 36.9871 81.9905 38.4937 81.9905 40.1936V41.8395H64.1322V38.008H75.9039C75.895 37.3064 75.73 36.6813 75.409 36.1327C75.0879 35.584 74.6465 35.1568 74.0847 34.851C73.5318 34.5362 72.8941 34.3788 72.1718 34.3788C71.4405 34.3788 70.785 34.5452 70.2053 34.878C69.6257 35.2018 69.1664 35.647 68.8275 36.2136C68.4886 36.7713 68.3103 37.4054 68.2924 38.1159V42.0149C68.2924 42.8603 68.4574 43.6024 68.7874 44.2409C69.1173 44.8705 69.5855 45.3607 70.192 45.7115C70.7984 46.0623 71.5208 46.2377 72.3591 46.2377C72.9387 46.2377 73.4649 46.1567 73.9375 45.9948C74.4102 45.8329 74.8159 45.5946 75.1548 45.2798C75.4937 44.965 75.7478 44.5782 75.9173 44.1195L81.9236 44.2949C81.6739 45.653 81.1254 46.8358 80.2782 47.8431C79.4399 48.8415 78.3385 49.6195 76.9741 50.1771C75.6096 50.7258 74.0312 51.0001 72.2387 51.0001Z" fill="black"/>
<path d="M23.1408 6.76136V12.0598H9V6.76136H23.1408ZM11.9624 1.34521H19.0985V22.2592C19.0985 22.7007 19.1666 23.0589 19.3028 23.3336C19.4487 23.5985 19.6579 23.7898 19.9303 23.9076C20.2027 24.0155 20.5286 24.0695 20.908 24.0695C21.1804 24.0695 21.4674 24.0449 21.769 23.9959C22.0803 23.937 22.3138 23.888 22.4695 23.8487L23.5494 29.0441C23.2089 29.1422 22.7273 29.2649 22.1046 29.412C21.4917 29.5592 20.7572 29.6524 19.9011 29.6917C18.2277 29.7702 16.7927 29.5739 15.5961 29.103C14.4092 28.6222 13.4996 27.8765 12.8672 26.8659C12.2445 25.8552 11.943 24.5846 11.9624 23.0539V1.34521Z" fill="black"/>
<path d="M37.0184 29.4496C34.6738 29.4496 32.6502 28.9835 30.9477 28.0514C29.2549 27.1094 27.9512 25.7701 27.0367 24.0334C26.1319 22.2869 25.6795 20.2117 25.6795 17.8078C25.6795 15.4726 26.1368 13.4317 27.0513 11.6852C27.9658 9.92888 29.2549 8.56503 30.9185 7.59366C32.5821 6.61247 34.5424 6.12188 36.7995 6.12188C38.395 6.12188 39.8543 6.37208 41.1775 6.87249C42.5006 7.37289 43.6437 8.11369 44.6068 9.09487C45.57 10.0761 46.3191 11.2878 46.8542 12.7302C47.3893 14.1627 47.6568 15.8062 47.6568 17.6606V19.4562H28.175V15.2763H41.0169C41.0072 14.511 40.8272 13.8291 40.477 13.2306C40.1267 12.632 39.6452 12.166 39.0323 11.8324C38.4291 11.489 37.7335 11.3173 36.9454 11.3173C36.1477 11.3173 35.4326 11.4988 34.8002 11.8618C34.1679 12.215 33.6668 12.7007 33.2972 13.3189C32.9275 13.9272 32.7329 14.6189 32.7134 15.3941V19.6475C32.7134 20.5698 32.8934 21.3793 33.2534 22.076C33.6133 22.7628 34.1241 23.2975 34.7857 23.6802C35.4472 24.0629 36.2352 24.2542 37.1497 24.2542C37.7821 24.2542 38.3561 24.1659 38.8717 23.9893C39.3874 23.8127 39.83 23.5526 40.1997 23.2092C40.5694 22.8658 40.8467 22.4439 41.0315 21.9435L47.5838 22.1348C47.3114 23.6164 46.7131 24.9067 45.7889 26.0056C44.8744 27.0947 43.6729 27.9435 42.1844 28.5518C40.6959 29.1503 38.9739 29.4496 37.0184 29.4496Z" fill="black"/>
<path d="M70.9455 14.2461L64.3931 14.4227C64.325 13.9518 64.1402 13.5348 63.8386 13.1717C63.537 12.7989 63.143 12.5094 62.6566 12.3034C62.1798 12.0875 61.6253 11.9796 60.9929 11.9796C60.166 11.9796 59.4607 12.1464 58.8769 12.48C58.3029 12.8136 58.0208 13.2649 58.0305 13.834C58.0208 14.2756 58.1959 14.6582 58.5559 14.982C58.9256 15.3058 59.5823 15.5658 60.526 15.7621L64.8455 16.5863C67.0831 17.018 68.7468 17.7342 69.8364 18.7351C70.9357 19.7359 71.4903 21.0605 71.5 22.7089C71.4903 24.2591 71.033 25.6083 70.1282 26.7562C69.2332 27.9042 68.0074 28.7971 66.4508 29.4349C64.8942 30.0628 63.1138 30.3768 61.1097 30.3768C57.9089 30.3768 55.3843 29.7145 53.5358 28.3899C51.6971 27.0555 50.6464 25.2698 50.3837 23.0326L57.4322 22.856C57.5879 23.6802 57.9916 24.3082 58.6434 24.7399C59.2953 25.1716 60.1271 25.3875 61.1389 25.3875C62.0534 25.3875 62.7976 25.2158 63.3716 24.8724C63.9456 24.529 64.2375 24.0727 64.2472 23.5036C64.2375 22.9934 64.0137 22.5862 63.5759 22.282C63.1381 21.9681 62.4522 21.7228 61.5183 21.5462L57.6073 20.7955C55.36 20.3834 53.6866 19.623 52.5873 18.5143C51.4879 17.3957 50.9431 15.973 50.9529 14.2461C50.9431 12.7351 51.342 11.4448 52.1495 10.3753C52.957 9.29605 54.105 8.47185 55.5935 7.90276C57.082 7.33368 58.838 7.04913 60.8616 7.04913C63.897 7.04913 66.2902 7.69181 68.0414 8.97716C69.7926 10.2527 70.7606 12.009 70.9455 14.2461Z" fill="black"/>
<path d="M86.1462 8.03522V13.3336H72.0055V8.03522H86.1462ZM74.9678 2.61908H82.1039V23.5331C82.1039 23.9746 82.172 24.3327 82.3082 24.6075C82.4541 24.8724 82.6633 25.0637 82.9357 25.1814C83.2081 25.2894 83.534 25.3433 83.9134 25.3433C84.1858 25.3433 84.4728 25.3188 84.7744 25.2697C85.0857 25.2109 85.3192 25.1618 85.4749 25.1226L86.5548 30.3179C86.2143 30.4161 85.7327 30.5387 85.1101 30.6859C84.4971 30.8331 83.7626 30.9263 82.9065 30.9655C81.2331 31.044 79.7982 30.8478 78.6015 30.3768C77.4146 29.896 76.505 29.1503 75.8726 28.1397C75.25 27.1291 74.9484 25.8585 74.9678 24.3278V2.61908Z" fill="black"/>
<path d="M25.0277 51.0001C22.8695 51.0001 21.0146 50.5549 19.4628 49.6645C17.92 48.765 16.7295 47.5148 15.8912 45.9139C15.0618 44.3039 14.6471 42.4376 14.6471 40.315C14.6471 38.1834 15.0618 36.3171 15.8912 34.7161C16.7295 33.1061 17.92 31.8559 19.4628 30.9655C21.0146 30.0661 22.8695 29.6164 25.0277 29.6164C27.1859 29.6164 29.0364 30.0661 30.5792 30.9655C32.1309 31.8559 33.3215 33.1061 34.1509 34.7161C34.9891 36.3171 35.4083 38.1834 35.4083 40.315C35.4083 42.4376 34.9891 44.3039 34.1509 45.9139C33.3215 47.5148 32.1309 48.765 30.5792 49.6645C29.0364 50.5549 27.1859 51.0001 25.0277 51.0001ZM25.0678 46.0218C25.8526 46.0218 26.517 45.779 27.061 45.2933C27.605 44.8076 28.0197 44.133 28.3051 43.2696C28.5994 42.4061 28.7465 41.4078 28.7465 40.2745C28.7465 39.1232 28.5994 38.1159 28.3051 37.2524C28.0197 36.389 27.605 35.7144 27.061 35.2288C26.517 34.7431 25.8526 34.5002 25.0678 34.5002C24.2563 34.5002 23.5696 34.7431 23.0078 35.2288C22.4548 35.7144 22.0312 36.389 21.7369 37.2524C21.4516 38.1159 21.3089 39.1232 21.3089 40.2745C21.3089 41.4078 21.4516 42.4061 21.7369 43.2696C22.0312 44.133 22.4548 44.8076 23.0078 45.2933C23.5696 45.779 24.2563 46.0218 25.0678 46.0218Z" stroke="#5557FF" stroke-width="2" mask="url(#path-2-outside-1_2_1618)"/>
<path d="M45.3006 38.7905V50.6088H38.7592V29.8862H44.9796V33.6908H45.207C45.6618 32.4226 46.4377 31.4287 47.5346 30.7092C48.6315 29.9806 49.938 29.6164 51.4541 29.6164C52.8988 29.6164 54.1518 29.9447 55.213 30.6012C56.2832 31.2488 57.1126 32.1572 57.7012 33.3265C58.2987 34.4867 58.593 35.8449 58.584 37.4009V50.6088H52.0427V38.696C52.0516 37.5448 51.7617 36.6453 51.1731 35.9978C50.5935 35.3502 49.7864 35.0264 48.7519 35.0264C48.0652 35.0264 47.4588 35.1793 46.9326 35.4851C46.4154 35.7819 46.0141 36.2091 45.7287 36.7668C45.4522 37.3244 45.3095 37.999 45.3006 38.7905Z" stroke="#5557FF" stroke-width="2" mask="url(#path-2-outside-1_2_1618)"/>
<path d="M72.2387 51.0001C70.0894 51.0001 68.2345 50.5729 66.6738 49.7184C65.1221 48.855 63.9271 47.6273 63.0888 46.0353C62.2594 44.4343 61.8447 42.532 61.8447 40.3285C61.8447 38.1878 62.2638 36.3171 63.1021 34.7161C63.9404 33.1061 65.1221 31.8559 66.6471 30.9655C68.172 30.0661 69.969 29.6164 72.038 29.6164C73.5006 29.6164 74.8382 29.8457 76.0511 30.3044C77.2639 30.7631 78.3118 31.4422 79.1947 32.3416C80.0776 33.241 80.7642 34.3518 81.2547 35.674C81.7452 36.9871 81.9905 38.4937 81.9905 40.1936V41.8395H64.1322V38.008H75.9039C75.895 37.3064 75.73 36.6813 75.409 36.1327C75.0879 35.584 74.6465 35.1568 74.0847 34.851C73.5318 34.5362 72.8941 34.3788 72.1718 34.3788C71.4405 34.3788 70.785 34.5452 70.2053 34.878C69.6257 35.2018 69.1664 35.647 68.8275 36.2136C68.4886 36.7713 68.3103 37.4054 68.2924 38.1159V42.0149C68.2924 42.8603 68.4574 43.6024 68.7874 44.2409C69.1173 44.8705 69.5855 45.3607 70.192 45.7115C70.7984 46.0623 71.5208 46.2377 72.3591 46.2377C72.9387 46.2377 73.4649 46.1567 73.9375 45.9948C74.4102 45.8329 74.8159 45.5946 75.1548 45.2798C75.4937 44.965 75.7478 44.5782 75.9173 44.1195L81.9236 44.2949C81.6739 45.653 81.1254 46.8358 80.2782 47.8431C79.4399 48.8415 78.3385 49.6195 76.9741 50.1771C75.6096 50.7258 74.0312 51.0001 72.2387 51.0001Z" stroke="#5557FF" stroke-width="2" mask="url(#path-2-outside-1_2_1618)"/>
<path d="M23.1408 6.76136V12.0598H9V6.76136H23.1408ZM11.9624 1.34521H19.0985V22.2592C19.0985 22.7007 19.1666 23.0589 19.3028 23.3336C19.4487 23.5985 19.6579 23.7898 19.9303 23.9076C20.2027 24.0155 20.5286 24.0695 20.908 24.0695C21.1804 24.0695 21.4674 24.0449 21.769 23.9959C22.0803 23.937 22.3138 23.888 22.4695 23.8487L23.5494 29.0441C23.2089 29.1422 22.7273 29.2649 22.1046 29.412C21.4917 29.5592 20.7572 29.6524 19.9011 29.6917C18.2277 29.7702 16.7927 29.5739 15.5961 29.103C14.4092 28.6222 13.4996 27.8765 12.8672 26.8659C12.2445 25.8552 11.943 24.5846 11.9624 23.0539V1.34521Z" stroke="#5557FF" stroke-width="2" mask="url(#path-2-outside-1_2_1618)"/>
<path d="M37.0184 29.4496C34.6738 29.4496 32.6502 28.9835 30.9477 28.0514C29.2549 27.1094 27.9512 25.7701 27.0367 24.0334C26.1319 22.2869 25.6795 20.2117 25.6795 17.8078C25.6795 15.4726 26.1368 13.4317 27.0513 11.6852C27.9658 9.92888 29.2549 8.56503 30.9185 7.59366C32.5821 6.61247 34.5424 6.12188 36.7995 6.12188C38.395 6.12188 39.8543 6.37208 41.1775 6.87249C42.5006 7.37289 43.6437 8.11369 44.6068 9.09487C45.57 10.0761 46.3191 11.2878 46.8542 12.7302C47.3893 14.1627 47.6568 15.8062 47.6568 17.6606V19.4562H28.175V15.2763H41.0169C41.0072 14.511 40.8272 13.8291 40.477 13.2306C40.1267 12.632 39.6452 12.166 39.0323 11.8324C38.4291 11.489 37.7335 11.3173 36.9454 11.3173C36.1477 11.3173 35.4326 11.4988 34.8002 11.8618C34.1679 12.215 33.6668 12.7007 33.2972 13.3189C32.9275 13.9272 32.7329 14.6189 32.7134 15.3941V19.6475C32.7134 20.5698 32.8934 21.3793 33.2534 22.076C33.6133 22.7628 34.1241 23.2975 34.7857 23.6802C35.4472 24.0629 36.2352 24.2542 37.1497 24.2542C37.7821 24.2542 38.3561 24.1659 38.8717 23.9893C39.3874 23.8127 39.83 23.5526 40.1997 23.2092C40.5694 22.8658 40.8467 22.4439 41.0315 21.9435L47.5838 22.1348C47.3114 23.6164 46.7131 24.9067 45.7889 26.0056C44.8744 27.0947 43.6729 27.9435 42.1844 28.5518C40.6959 29.1503 38.9739 29.4496 37.0184 29.4496Z" stroke="#5557FF" stroke-width="2" mask="url(#path-2-outside-1_2_1618)"/>
<path d="M70.9455 14.2461L64.3931 14.4227C64.325 13.9518 64.1402 13.5348 63.8386 13.1717C63.537 12.7989 63.143 12.5094 62.6566 12.3034C62.1798 12.0875 61.6253 11.9796 60.9929 11.9796C60.166 11.9796 59.4607 12.1464 58.8769 12.48C58.3029 12.8136 58.0208 13.2649 58.0305 13.834C58.0208 14.2756 58.1959 14.6582 58.5559 14.982C58.9256 15.3058 59.5823 15.5658 60.526 15.7621L64.8455 16.5863C67.0831 17.018 68.7468 17.7342 69.8364 18.7351C70.9357 19.7359 71.4903 21.0605 71.5 22.7089C71.4903 24.2591 71.033 25.6083 70.1282 26.7562C69.2332 27.9042 68.0074 28.7971 66.4508 29.4349C64.8942 30.0628 63.1138 30.3768 61.1097 30.3768C57.9089 30.3768 55.3843 29.7145 53.5358 28.3899C51.6971 27.0555 50.6464 25.2698 50.3837 23.0326L57.4322 22.856C57.5879 23.6802 57.9916 24.3082 58.6434 24.7399C59.2953 25.1716 60.1271 25.3875 61.1389 25.3875C62.0534 25.3875 62.7976 25.2158 63.3716 24.8724C63.9456 24.529 64.2375 24.0727 64.2472 23.5036C64.2375 22.9934 64.0137 22.5862 63.5759 22.282C63.1381 21.9681 62.4522 21.7228 61.5183 21.5462L57.6073 20.7955C55.36 20.3834 53.6866 19.623 52.5873 18.5143C51.4879 17.3957 50.9431 15.973 50.9529 14.2461C50.9431 12.7351 51.342 11.4448 52.1495 10.3753C52.957 9.29605 54.105 8.47185 55.5935 7.90276C57.082 7.33368 58.838 7.04913 60.8616 7.04913C63.897 7.04913 66.2902 7.69181 68.0414 8.97716C69.7926 10.2527 70.7606 12.009 70.9455 14.2461Z" stroke="#5557FF" stroke-width="2" mask="url(#path-2-outside-1_2_1618)"/>
<path d="M86.1462 8.03522V13.3336H72.0055V8.03522H86.1462ZM74.9678 2.61908H82.1039V23.5331C82.1039 23.9746 82.172 24.3327 82.3082 24.6075C82.4541 24.8724 82.6633 25.0637 82.9357 25.1814C83.2081 25.2894 83.534 25.3433 83.9134 25.3433C84.1858 25.3433 84.4728 25.3188 84.7744 25.2697C85.0857 25.2109 85.3192 25.1618 85.4749 25.1226L86.5548 30.3179C86.2143 30.4161 85.7327 30.5387 85.1101 30.6859C84.4971 30.8331 83.7626 30.9263 82.9065 30.9655C81.2331 31.044 79.7982 30.8478 78.6015 30.3768C77.4146 29.896 76.505 29.1503 75.8726 28.1397C75.25 27.1291 74.9484 25.8585 74.9678 24.3278V2.61908Z" stroke="#5557FF" stroke-width="2" mask="url(#path-2-outside-1_2_1618)"/>
</svg>
