<svg width="145" height="225" viewBox="0 0 145 225" fill="none" xmlns="http://www.w3.org/2000/svg">
<mask id="mask0_518_383" style="mask-type:alpha" maskUnits="userSpaceOnUse" x="0" y="0" width="145" height="225">
<rect width="144.991" height="224.607" fill="#D9D9D9"/>
</mask>
<g mask="url(#mask0_518_383)">
<path fill-rule="evenodd" clip-rule="evenodd" d="M78.0487 143.101C78.28 145.507 77.8071 147.804 76.6805 149.747L76.314 150.379L77.0116 150.622C78.2813 151.065 79.6932 151.28 81.3281 151.28C83.0107 151.28 84.7604 151.046 86.1663 150.859L87.0664 150.739L86.6243 149.959C86.2687 149.333 86.2029 148.573 86.1331 147.77C86.1143 147.554 86.095 147.33 86.0696 147.109C84.7375 135.238 83.0536 123.212 81.4251 111.581C80.9965 108.521 80.5534 105.356 80.1235 102.243L78.8905 102.291C78.5588 108.053 78.2368 113.912 77.9256 119.579C77.7887 122.07 77.6517 124.562 77.5137 127.054C77.0216 133.353 77.1916 138.453 78.0487 143.101M78.5519 214.289C76.7411 214.289 74.9267 214.101 73.1594 213.73C67.629 212.573 62.6047 209.842 58.3294 207.374C58.1111 207.25 57.8896 207.127 57.6623 207C55.9885 206.066 53.9055 204.905 52.6001 203.488C51.168 201.933 50.9216 200.384 51.8246 198.612L51.9674 198.332L51.8182 198.055C50.8831 196.32 50.9527 194.173 51.9872 192.835L52.8566 191.71L51.4271 191.861C49.9858 192.014 48.5331 192.22 47.1281 192.42C45.5693 192.642 43.9572 192.871 42.3696 193.025L41.9283 193.067L41.8269 193.491C41.7704 193.727 41.7007 193.87 41.2109 193.87C40.7862 193.87 40.2154 193.746 39.6114 193.615C38.8617 193.452 38.0119 193.268 37.1924 193.268C36.832 193.268 36.5078 193.302 36.2012 193.373L36.0228 193.414L35.8958 193.543C35.8146 193.626 35.6764 193.678 35.5352 193.678C35.4283 193.678 35.3293 193.648 35.2631 193.596L35.0628 193.44L34.8088 193.468C30.3828 193.952 26.5663 194.803 23.1417 196.067L23.1262 196.073L23.0519 196.105C21.8136 196.638 20.5333 197.189 19.3673 197.189C18.5149 197.189 17.8227 196.9 17.1888 196.279L17.0097 196.104L16.757 196.101C14.1931 196.078 13.0216 193.097 12.8596 191.099L12.8393 190.848L12.6438 190.684C8.17556 186.946 5.53771 181.811 4.57923 174.987C3.70628 168.772 4.37654 162.218 5.14732 156.627C6.9303 142.138 8.78993 129.149 13.5171 116.83L13.7379 116.254L13.1494 116.043C11.1077 115.312 9.54738 114.439 8.37908 113.376L8.29819 113.302L8.19633 113.26C6.52192 112.574 5.70187 110.042 5.4904 109.283L5.47346 109.222L5.44391 109.165C5.10227 108.512 5.02345 107.603 5.22779 106.672L5.24969 106.571L5.23699 106.469C5.12665 105.585 5.49288 104.66 5.88059 103.681C6.05776 103.234 6.24082 102.772 6.37461 102.312C6.83453 100.996 7.29394 99.6571 7.73837 98.362C8.73549 95.4564 9.76639 92.4519 10.8647 89.5292L11.0149 89.1295L10.684 88.854C10.1191 88.3836 10.3077 87.8299 11.1223 86.5059C11.3148 86.1932 11.4968 85.8973 11.6352 85.6057C12.6794 83.8069 13.7984 82.0802 14.9618 80.4729L14.9858 80.4399L15.0049 80.4042C20.9749 69.2879 31.5647 63.166 44.8232 63.166L45.0935 63.1665L45.2429 63.0769C47.7278 61.5871 49.5017 59.0309 50.6659 55.2622L50.7031 55.142L50.6887 55.0172C50.6488 54.6699 50.6051 54.2145 50.6201 53.7726C50.658 52.6534 51.098 51.6548 51.8271 51.0325C53.2105 49.852 55.3107 49.7532 57.3432 49.7532L57.6351 49.7537C60.2338 49.7611 62.0684 50.2109 63.4089 51.1695C64.9664 52.2833 65.8272 54.0812 66.0405 56.6658C66.1042 57.4393 66.1021 58.2405 66.1001 59.0153L66.0996 59.2316L66.1257 59.3174C66.3125 59.9317 66.5313 60.522 66.7759 61.072L67.0276 61.6378L67.5999 61.3827C67.9701 61.2178 68.4393 61.1329 69.0347 61.1234C69.2064 61.1194 69.3739 61.1176 69.5428 61.1176C70.9254 61.1176 72.4043 61.2434 73.8347 61.3651C74.9124 61.4568 76.0269 61.5517 77.1056 61.5938L77.1204 61.5944C77.1204 61.5944 77.2694 61.5935 77.3362 61.5935C79.958 61.5935 81.8587 62.0046 83.3175 62.8873C84.8883 63.8376 86.0177 65.3628 86.8718 67.6872C91.4526 81.0108 93.3359 95.3621 94.9971 108.023C95.9394 114.645 96.226 121.433 96.5031 127.997C96.7958 134.926 97.0983 142.09 98.1695 149.094L98.2541 149.647L98.8229 149.611C101.326 149.45 104.031 149.103 106.895 148.735C111.246 148.177 115.746 147.6 120.096 147.6C126.177 147.6 130.788 148.794 134.19 151.247C136.562 153.476 137.789 156.492 137.739 159.974C137.667 164.893 135.058 170.332 131.09 173.83L131.075 173.843C126.06 178.567 116.905 182.664 103.865 186.021C91.8743 189.107 79.4713 190.785 73.145 191.51L71.5793 191.689L72.8502 192.605C73.3646 192.976 73.8339 193.303 74.285 193.604L74.576 193.797L74.8948 193.652C75.804 193.236 76.3813 193.149 76.7058 193.149C76.9937 193.149 77.3411 193.211 77.3602 193.508C77.3727 193.703 77.2338 193.992 76.9407 194.028L75.3845 194.222L76.6552 195.125C77.504 195.729 78.7703 196.456 80.2368 197.299C85.0343 200.054 92.2844 204.219 91.0375 207.877L90.9556 208.117L91.0715 208.343C91.4066 208.998 91.4352 209.606 91.1587 210.202C90.5668 211.478 88.715 212.447 87.1423 212.841L87.1154 212.848L87.089 212.857C84.3526 213.807 81.4803 214.289 78.5519 214.289" fill="white"/>
<path fill-rule="evenodd" clip-rule="evenodd" d="M73.2876 190.794C73.4766 190.602 73.5562 190.35 73.3795 190.055C72.6966 189.185 71.2802 189.78 70.3991 189.981C70.0663 189.705 69.7359 189.428 69.4177 189.136C69.5282 188.452 68.7038 187.997 68.365 187.47C68.0323 187.081 67.7193 186.64 67.3204 186.314C66.3484 185.558 65.0013 186.07 63.8732 186.035C63.0043 184.933 62.1097 183.866 61.2832 182.728C62.2357 181.132 62.3029 179.262 61.9868 177.484C76.5975 171.956 89.2444 161.491 105.046 159.073C105.59 158.982 105.894 158.324 105.759 157.841C104.657 155.218 88.8166 161.985 86.4488 163.211C79.4653 166.545 72.9238 170.7 66.1366 174.367C64.7213 175.117 63.1645 175.52 61.6169 175.909C59.2388 168.128 55.2159 160.994 52.1312 153.492C52.3316 153.146 52.5021 152.782 52.6468 152.409C52.5445 156.535 56.5693 156.477 57.1251 152.563C56.8958 154.604 58.4433 158.973 60.6768 156.106C61.2006 155.386 61.3866 154.464 61.4753 153.533C61.5901 154.176 61.7202 154.817 61.8649 155.455C62.4381 156.719 64.0033 155.182 64.3669 154.522C64.5767 154.485 64.773 154.389 64.9166 154.273C68.866 154.82 73.5178 154.788 76.4157 151.68C81.3311 153.56 86.7712 151.875 91.7424 151.125C101.858 149.965 112.014 148.198 122.221 148.333C126.778 148.596 132.154 149.33 135.036 153.207C138.734 158.795 136.644 166.342 132.565 171.179C122.754 183.564 89.077 188.949 73.2876 190.794M73.5634 195.255C73.742 195.207 73.9219 195.163 74.1006 195.122C76.9643 197.499 90.451 203.671 89.4252 207.358C89.0626 207.817 88.1948 207.921 87.6461 208.069C86.6906 208.327 85.7257 208.55 84.7516 208.727C81.6027 209.298 78.3414 209.397 75.1966 208.746C74.0396 208.571 72.9952 208.079 71.9415 207.603C68.5365 206.109 64.7864 204.46 61.3978 202.978C57.093 201.277 49.5423 197.924 52.6478 192.266C55.59 195.565 59.3245 195.277 61.2058 191.176C61.8545 189.931 62.4207 188.253 63.9444 187.75C64.7482 187.208 65.7761 187.096 66.4476 187.699C66.4961 187.624 66.5395 187.519 66.5632 187.425C67.3204 188.5 67.9734 189.631 68.8607 190.613C68.5561 190.629 65.3845 192.97 66.3205 192.971C67.4466 192.393 68.5654 191.911 69.7813 191.599C70.6625 192.483 71.6315 193.305 72.6357 194.064C71.6605 194.707 70.7844 195.493 70.0799 196.346C70.0189 196.421 70.0933 196.519 70.1842 196.478C71.2782 195.992 72.4033 195.565 73.5634 195.255M88.0801 211.197C77.1264 216.103 65.5301 210.64 56.1891 204.817C54.0331 203.617 51.1974 201.915 51.6333 199.09C53.2211 201.406 55.8389 202.725 58.3514 203.868C62.5725 205.77 66.8214 207.612 71.053 209.491C71.4527 210.813 73.3639 210.863 74.519 211.157C79.6606 212.151 85.1875 211.657 90.0264 209.674C89.7464 210.501 88.8301 210.881 88.0801 211.197M44.3769 192.096C44.1063 192.131 43.8356 192.162 43.565 192.193C43.5929 191.836 43.377 191.478 43.0299 191.368C43.1859 190.611 43.2437 189.829 43.16 189.061C43.6125 190.227 45.0733 189.872 46.001 189.537C47.3264 189.177 48.6436 188.791 49.9535 188.379C50.4701 189.336 51.0176 190.278 51.6901 191.145C49.2416 191.362 46.8161 191.793 44.3769 192.096M43.2995 188.43C43.2344 188.567 43.1414 188.712 43.1394 188.876C43.0733 188.309 42.9441 187.749 42.7478 187.212C42.9316 187.618 43.1156 188.024 43.2995 188.43M41.754 185.389C40.5495 183.824 38.3232 182.544 36.2653 182.98C36.1331 183.009 36.1299 183.221 36.2653 183.247C39.0298 183.622 41.4575 185.808 41.5535 188.635C41.7716 189.914 40.879 191.17 41.1796 192.398C41.1197 192.402 41.0598 192.405 41.0009 192.409C40.9792 192.491 40.9595 192.564 40.9337 192.628C41.2323 192.678 41.3201 193.157 40.9678 193.242C40.7592 193.292 40.5412 193.319 40.3191 193.33C39.192 193.027 38.0029 192.957 36.9254 192.508C35.8593 192.039 36.1258 190.719 35.7498 189.804C35.474 188.75 35.1567 187.7 34.757 186.689C34.7281 186.608 34.6176 186.626 34.6083 186.708C34.3262 188.726 34.3355 190.778 34.4037 192.813C34.0339 192.85 33.6661 192.892 33.2972 192.937C33.321 192.369 31.6113 185.447 30.7105 187.223C31.164 189.176 31.2187 191.217 31.2673 193.226C28.5927 193.666 25.9573 194.32 23.3932 195.211C21.5864 195.757 19.4375 197.372 17.6834 195.912C16.3249 194.792 15.8673 192.838 15.9954 191.175C17.7619 181.337 31.7146 180.188 39.9513 180.915C40.7292 182.705 41.5216 184.488 42.3243 186.268C42.158 185.961 41.9679 185.667 41.754 185.389M13.6617 190.983C13.5108 188.749 13.8879 185.968 15.5481 184.303C19.3477 181.101 24.668 180.093 29.416 178.934C31.6277 178.498 33.8696 178.209 36.1207 178.065C36.9192 178.002 37.9337 178.183 38.4977 177.531C38.7881 178.217 39.0824 178.902 39.3769 179.587C29.9243 178.352 10.2029 182.642 15.7257 195.552C14.5562 194.289 13.7814 192.751 13.6617 190.983M60.6241 183.598C61.0591 184.682 61.5911 185.714 62.2864 186.657C61.4961 187.173 60.8514 187.935 60.3969 188.753C57.4836 196.352 54.3679 192.282 50.4969 188.204C53.7728 186.972 58.1117 186.048 60.6241 183.598M12.1327 189.437C4.55718 181.976 3.08712 169.547 5.88572 159.777C6.13469 156.154 7.40537 152.701 8.54382 149.271C12.1689 138.866 16.9365 128.855 22.6546 119.404C29.7487 121.347 36.8304 123.341 43.941 125.22C44.9203 125.432 45.9007 125.851 46.906 125.912C47.2655 126.14 47.626 126.392 48 126.613C47.4556 129.272 47.9576 131.987 48.0847 134.663C48.2003 136.769 47.9721 138.831 47.692 140.915C47.3791 143.947 46.0908 153.807 48.6725 155.612C49.5475 156.033 50.3296 154.786 50.7066 155.129C51.0465 154.893 51.3637 154.585 51.6219 154.246C52.6189 157.461 54.248 160.442 55.2542 163.659C56.593 168.387 60.9899 176.04 60.0136 180.55C59.2584 183.335 55.9547 183.935 53.5703 184.845C50.8151 185.801 48.0289 186.679 45.1973 187.391C43.815 184.466 42.4937 181.513 41.1972 178.55C35.2715 164.877 30.0235 150.919 25.3333 136.794C25.2455 136.481 24.167 133.084 23.9697 134.031C23.9531 133.934 23.8302 133.682 23.7837 133.898C24.5792 137.214 25.3859 140.53 26.259 143.828C24.1143 143.529 21.8085 143.412 19.8456 144.46C19.7444 144.514 19.8188 144.647 19.9189 144.63C22.2433 144.229 24.4852 144.988 26.7176 145.532C29.853 156.173 33.8985 166.544 38.1806 176.785C36.8562 176.364 35.319 176.829 33.9368 176.863C29.5834 177.311 25.2796 178.261 21.1669 179.738C15.9974 181.409 12.3424 183.588 12.1327 189.437M7.96209 111.788C6.68945 110.422 5.68933 108.677 5.88262 106.825C6.64709 105.809 6.9002 104.483 7.34545 103.308C9.08618 98.3911 10.7019 93.4371 12.5966 88.5734C16.6266 89.8091 20.5914 91.2914 24.3312 93.2382C25.0193 93.5883 25.7001 93.9516 26.3726 94.328C27.0772 94.7216 27.8458 95.4054 28.6908 95.2096C27.7672 96.5133 25.8654 97.8698 25.5441 99.3763C25.4749 99.8532 25.8137 100.296 26.3344 100.189C34.4843 105.961 42.9007 111.611 50.6044 118.04C56.373 122.593 60.8018 126.286 62.7802 133.674C64.1139 138.46 64.1179 143.462 63.9217 148.382C63.8835 149.339 63.8825 150.318 63.805 151.281C63.9207 152.001 63.7006 153.467 62.8886 153.494C62.9072 153.668 62.9651 153.829 63.057 153.971C63.0312 154.006 63.0043 154.038 62.9765 154.072C62.9362 153.875 62.8969 153.679 62.8597 153.482C62.2275 150.69 62.1428 147.451 62.2481 144.478C62.2925 143.626 60.9816 143.646 60.9082 144.478C60.7109 146.726 60.5136 148.973 60.3163 151.219C60.0796 152.675 60.4527 154.579 59.2853 155.686C58.0983 154.592 58.4908 152.435 58.5487 151.024C58.6416 148.722 58.7419 146.421 58.8276 144.119C58.8545 143.39 57.6427 143.202 57.5052 143.944C57.1158 146.058 56.6943 148.166 56.2407 150.268C55.967 151.081 55.779 154.727 54.4112 154.094C53.5961 153.539 54.184 150.286 54.0765 149.208C54.1271 147.076 54.157 144.946 54.3141 142.818C54.3782 141.96 52.9763 141.778 52.7841 142.616C52.4722 143.972 52.1736 145.329 51.9029 146.694C51.3089 148.996 51.5248 152.117 49.3802 153.647C48.5403 147.667 49.7489 141.729 49.9184 135.77C49.8172 133.84 49.4845 131.928 49.1911 130.021C48.8667 127.912 48.6777 125.616 49.437 123.582C49.2293 122.67 48.4132 125.135 48.3368 125.34C47.7221 124.132 46.2252 124.039 45.0413 123.663C42.41 122.814 39.7147 122.173 37.0525 121.419C29.9924 119.463 22.9241 117.539 15.8538 115.618C13.0294 114.839 10.0562 113.917 7.96209 111.788M78.6606 143.596C77.6864 138.331 77.7132 132.997 78.1296 127.674C78.5872 119.42 79.0314 111.163 79.5067 102.91C81.5697 117.848 83.7691 132.769 85.4509 147.755C85.5707 148.798 85.5522 149.902 86.0801 150.832C83.1627 151.222 80.0531 151.615 77.2163 150.625C78.4612 148.48 78.9002 146.037 78.6606 143.596M93.4015 106.515C95.6071 120.673 94.3488 135.079 96.4883 149.221C93.5203 149.553 90.575 150.044 87.6379 150.584C87.9593 148.837 87.3498 147.033 87.2444 145.274C85.6492 132.726 83.8879 120.186 81.5542 107.747C80.9818 104.771 80.4034 101.806 79.7401 98.8458C79.8404 97.053 79.9282 95.2603 79.986 93.4665C83.2247 91.4365 86.8766 90.1225 90.6535 89.4601C91.6741 95.1294 92.6938 100.795 93.4015 106.515M67.8691 62.0246C67.74 61.8044 67.617 61.5792 67.4993 61.3509C67.898 61.3661 68.2865 61.3804 68.679 61.4453C68.6615 62.0753 68.6966 62.7104 68.7038 63.3455C68.5074 62.8809 68.1232 62.4568 67.8691 62.0246M134.484 150.748C125.063 143.918 109.59 148.27 98.6764 148.972C96.5958 135.37 97.4449 121.545 95.5058 107.921C93.7197 94.3097 91.8364 80.5087 87.3508 67.4677C85.4995 62.4252 82.297 60.9279 77.0242 60.9684C74.3485 60.8639 71.5189 60.4368 68.9187 60.4976C68.3484 60.5068 67.7524 60.5819 67.2379 60.8112C66.5147 59.1859 66.1222 57.4408 65.9238 55.6826C65.9114 55.571 65.7689 55.5507 65.7265 55.6573C65.1149 57.1882 65.0498 58.8592 65.3824 60.4622C65.6232 61.6107 67.0561 66.1305 68.7203 64.3621C68.8525 68.0703 68.0353 72.4988 64.3918 74.4234C58.0249 77.1911 49.2241 74.671 45.5361 68.7967C44.8233 67.6229 44.2086 66.3739 43.4193 65.2468C48.9184 63.6945 52.0051 57.1253 50.7097 52.1226C49.9091 56.0134 48.4493 60.3607 44.814 62.54C31.5761 62.5106 20.5698 68.5218 14.3507 80.0998C13.1338 81.781 12.0087 83.5279 10.9777 85.3055C10.4229 86.4946 8.79795 88.1483 10.1771 89.2968C8.58411 93.5356 7.17086 97.8331 5.67704 102.106C5.2668 103.529 4.32877 105.022 4.51586 106.519C4.31338 107.441 4.32268 108.532 4.78653 109.418C5.22662 110.999 6.21413 113.126 7.85166 113.796C9.24114 115.061 10.9984 115.933 12.8311 116.589C7.9435 129.324 6.08303 143.058 4.42702 156.513C2.80396 168.284 1.96624 182.602 12.1358 191.109C12.3331 193.543 13.7814 196.645 16.6452 196.671C18.6286 198.613 21.0461 197.547 23.2537 196.598C26.98 195.222 30.8882 194.459 34.7715 194.034C35.1878 194.359 35.8655 194.305 36.2364 193.927C38.5887 193.386 41.8491 195.575 42.3243 193.592C45.3574 193.298 48.3574 192.749 51.3874 192.428C50.1105 194.08 50.2025 196.516 51.1643 198.3C48.7149 203.104 54.4205 205.886 57.9092 207.857C62.6189 210.576 67.5375 213.156 72.9238 214.283C77.6594 215.277 82.6203 214.976 87.1895 213.389C89.5905 212.787 92.9439 210.812 91.5191 208.029C93.3251 202.733 80.643 197.245 76.9126 194.593C78.4374 194.403 78.4932 191.248 74.5272 193.061C74.0479 192.741 73.5768 192.412 73.1109 192.076C89.1524 190.238 119.788 185.18 131.398 174.247C137.776 168.626 141.456 157.255 134.484 150.748" fill="#1C1C1C"/>
<path fill-rule="evenodd" clip-rule="evenodd" d="M55.8759 19.9827C71.1849 19.232 78.0932 29.9803 78.5401 34.7811C78.8502 38.1136 76.8757 41.9546 76.8757 44.9325C76.8757 46.4525 78.7421 49.7158 77.8732 51.9312C75.9393 56.8622 71.8447 62.3347 66.6268 62.3347C61.409 62.3347 54.6183 63.7736 48.8528 55.5418C48.3119 54.7694 41.4696 50.3796 40.8048 46.2083C39.149 35.8178 44.9523 20.5184 55.8759 19.9827Z" fill="white"/>
<path fill-rule="evenodd" clip-rule="evenodd" d="M55.1542 13.2936C55.7017 12.6692 56.6259 12.4194 57.447 12.4678C58.6399 12.5383 59.6773 13.2725 60.864 13.3269C62.1083 13.3843 63.3092 12.9542 64.5566 13.1536C65.3212 13.2765 66.0787 13.63 66.5686 14.2263C68.2654 13.7418 70.1077 14.3834 71.1884 15.7844C72.5217 15.5779 73.9721 16.4583 74.3801 17.7393C76.074 17.7937 77.6728 19.1503 77.8617 20.8504C78.5385 21.0287 79.1263 21.4941 79.4868 22.1094C79.906 22.8225 79.9757 23.6403 79.8999 24.444C80.6969 24.8499 81.1019 25.7221 81.2079 26.6447C81.9362 27.1866 82.2523 28.1605 82.1038 29.0801C82.6614 29.3933 82.9493 30.1225 82.9462 30.7731C82.9432 31.3804 82.7817 31.9184 83.0089 32.5044C83.2114 33.0264 83.284 33.4615 83.1727 34.0083L83.1613 34.0615C83.1416 34.1507 83.1251 34.2362 83.1102 34.3205C83.261 34.4524 83.3886 34.6178 83.4843 34.8102C83.8336 35.5132 83.7816 36.315 83.5152 37.0279C83.6319 37.482 83.617 37.9616 83.4446 38.398C83.7675 38.8618 83.9373 39.4307 83.8874 40.0209C83.8315 40.6817 83.5289 41.2734 83.07 41.7109C83.1922 42.6135 82.8242 43.5888 82.1587 44.2243C82.2531 44.7646 82.1716 45.331 81.8752 45.8432C81.6639 46.2083 81.3794 46.4803 81.0513 46.6698C81.0621 46.9713 81.0212 47.2795 80.9206 47.5884C80.7809 48.0171 80.5443 48.412 80.233 48.7301C80.4188 49.9143 79.7077 51.2284 78.4562 51.5606C78.3511 51.5885 78.2508 51.6013 78.1547 51.6033C78.0304 52.7424 77.7589 53.8655 77.3385 54.9322C76.2699 57.6485 74.3266 60.0234 71.7924 61.5049C70.539 62.2372 69.131 62.7387 67.6938 62.9482C66.6595 63.0993 65.6646 63.062 64.6264 62.9593C63.3234 62.8294 62.0144 62.635 60.7478 62.3006L60.5441 62.2466C60.019 62.1063 59.4654 61.9445 59.0105 61.6621C58.5015 61.3458 58.237 60.8583 58.1198 60.2843C58.0544 59.9647 58.2574 59.6211 58.6082 59.6144L58.6308 59.6145C58.7075 59.6161 58.7836 59.6132 58.8607 59.6084L58.9187 59.6044H58.9217C58.9257 59.6034 58.9278 59.6034 58.9318 59.6034C58.9661 59.5984 58.9994 59.5883 59.0328 59.5833C59.4187 59.5185 59.7562 59.5827 60.1186 59.7029L60.164 59.7182C60.774 59.9277 61.3791 60.1221 62.0093 60.2661C62.6608 60.4142 63.3203 60.532 63.9819 60.6247L64.0475 60.6327L64.0677 60.6358L64.0778 60.6368V60.6368C64.0799 60.6368 64.0819 60.6368 64.0839 60.6378L64.2788 60.6619V60.6619C64.4325 60.6801 64.5859 60.6962 64.7394 60.7123C65.0222 60.7405 65.305 60.7627 65.5878 60.7788C70.4693 61.0527 74.569 57.2204 75.8063 52.6257C76.2547 50.9629 76.284 49.3041 76.1517 47.6442C76.1093 47.5234 76.0841 47.3894 76.0851 47.2424C76.0851 47.1658 76.0892 47.0903 76.0942 47.0138C75.9296 45.4083 75.6438 43.8019 75.4649 42.1904C75.2559 40.308 75.1397 38.4146 75.1821 36.52C75.2033 35.5844 75.3033 34.6578 75.4346 33.7313L75.4821 33.3984V33.3984C74.8887 33.2829 74.337 33.0023 73.8977 32.5961C72.9445 33.145 71.7107 33.1936 70.7698 32.614C69.7153 33.2734 68.2421 33.3332 67.1803 32.6885C66.5385 33.1454 65.7299 33.3425 64.9361 33.1691C64.579 33.0911 64.224 32.9224 63.92 32.6888C63.7029 32.727 63.483 32.7418 63.2644 32.7304L63.2192 32.7556V32.7556C62.7152 33.0205 62.1569 33.1949 61.5823 33.1754C61.1568 33.1611 60.7186 33.0774 60.3129 32.9191C59.8795 33.1799 59.4052 33.358 58.8977 33.4219C58.1567 33.515 57.3569 33.3516 56.7406 32.9324C55.6143 33.5721 54.229 33.6706 53.0133 33.2408C52.7643 33.6613 52.4198 34.0239 52.0164 34.3033C52.0886 34.5614 52.1116 34.8365 52.0868 35.1011C52.046 35.5366 51.9365 35.9271 51.7574 36.2778C51.9462 36.6694 52.003 37.1502 51.8973 37.6329C51.7467 38.3212 51.3451 38.9199 50.8252 39.3862C50.7793 40.4847 50.1752 41.5146 49.1921 42.0868C49.1423 42.1157 49.0928 42.1392 49.0434 42.1605C48.9999 42.2197 48.948 42.2718 48.8887 42.3157C48.2635 42.8917 47.2741 42.8459 46.4904 42.5205C46.4753 42.5212 46.4602 42.5225 46.4449 42.5228C46.165 42.5298 45.9742 42.4211 45.861 42.2609C45.7469 42.2671 45.6337 42.279 45.5197 42.3002C45.1035 42.3777 44.6469 42.5268 44.2702 42.7203C43.2925 43.2218 42.84 44.1081 42.7046 45.1737C42.5573 46.3359 42.8925 47.5204 43.7946 48.307C44.2328 48.6897 44.7934 48.9294 45.363 49.0301C45.9923 49.1419 46.665 48.867 47.1296 49.4058C47.2225 49.5126 47.2861 49.6616 47.2356 49.8056C47.0781 50.2548 46.8185 50.4271 46.4125 50.4895C46.9993 51.1835 47.6013 51.8542 48.2679 52.4777C48.989 53.1535 49.7344 53.8081 50.385 54.5534C51.0727 55.3421 51.6939 56.178 52.1252 57.1348C52.3716 57.6847 52.5696 58.2518 52.7828 58.8148L52.8209 58.9129C53.0586 59.5111 53.3748 60.0877 53.0089 60.7123C52.8635 60.9581 52.5342 61.1957 52.2312 61.1565C51.3779 61.0477 51.092 60.4726 50.8293 59.7233C50.6313 59.1572 50.4798 58.5751 50.2668 58.0141C50.2269 57.9103 50.1835 57.8074 50.1379 57.7052C49.6459 57.842 49.1048 57.7334 48.6656 57.4536C48.1964 57.661 47.6765 57.7644 47.1744 57.7556C46.5021 57.7439 45.8879 57.5576 45.3599 57.2217C45.3179 57.2107 45.2757 57.2 45.2337 57.188C44.4305 57.4948 43.4897 57.44 42.7624 56.9428C42.2914 56.6208 41.9694 56.191 41.7864 55.7125C41.1779 55.7009 40.5759 55.4858 40.1399 55.0553C39.7395 54.6601 39.5055 54.1502 39.436 53.6203C38.9122 53.5169 38.4211 53.2644 38.036 52.839C37.7144 52.4838 37.519 52.0314 37.4529 51.5616C36.815 51.3801 36.2396 50.9648 35.9254 50.3857C35.633 49.8465 35.5908 49.2617 35.7338 48.7297L35.6968 48.6765V48.6765C35.0396 48.3336 34.5382 47.7722 34.4866 46.9702C34.4721 46.7419 34.4967 46.5135 34.5589 46.2974C34.5364 46.0557 34.5508 45.8142 34.6143 45.5805C33.7305 44.7234 33.4104 43.3466 33.8901 42.2085C33.0265 41.2819 32.7983 39.8165 33.4316 38.7168C32.9973 38.1929 32.774 37.5252 32.8114 36.8121C32.8579 35.9219 33.2669 35.1442 33.7568 34.4241C33.3932 34.0233 33.1993 33.4643 33.2135 32.9244C33.2336 32.1419 33.6507 31.4681 34.173 30.9101C33.7174 29.5323 34.2265 28.0376 35.3446 27.1654C35.1183 26.7938 35.0345 26.3335 35.1083 25.8672C35.2375 25.0524 35.8506 24.4974 36.5122 24.0583C36.3738 23.6092 36.4101 23.1246 36.6303 22.6603C36.9242 22.0409 37.4788 21.6481 38.0575 21.3158C38.207 19.942 39.7463 18.7686 41.0371 19.4777C40.7169 18.4554 41.6392 17.3515 42.6997 17.2347C43.2187 15.6655 45.0095 14.6765 46.6195 15.0663C47.4427 13.9443 48.9749 13.5123 50.2758 13.9936C51.7061 12.9008 53.4806 12.7387 55.1542 13.2936ZM44.9661 44.1041C45.9711 44.0497 46.7246 44.8675 47.2539 45.6159C47.7507 46.3179 46.4761 47.0591 46.1044 46.2856C45.9711 46.0097 45.8196 45.7176 45.6166 45.4759C45.5825 45.5234 45.5524 45.5727 45.5224 45.6233L45.4923 45.6743C45.4701 45.7115 45.4469 45.7498 45.4277 45.7891C45.4297 45.7961 45.3994 45.8888 45.3984 45.8928C45.3156 46.1436 45.1348 46.3048 44.8884 46.3914C44.5702 46.5022 44.2692 46.2635 44.1672 45.9835C44.0046 45.5363 44.3823 45.1465 44.7752 44.9692C44.3894 44.9068 44.0096 45.0377 43.7308 45.3338C43.6925 45.3751 43.6278 45.3419 43.6259 45.2905C43.5935 44.5885 44.3298 44.1383 44.9661 44.1041Z" fill="#1C1C1C"/>
<path fill-rule="evenodd" clip-rule="evenodd" d="M69.4754 54.5778C68.7313 54.7927 67.9327 54.8119 67.1742 54.59C66.4863 54.3886 65.78 53.9456 65.2737 53.3594C64.8239 52.8387 64.5327 52.2058 64.5441 51.5303C64.5454 51.4531 64.5731 51.3887 64.6156 51.3387C64.6614 51.2849 64.7254 51.248 64.794 51.2319C64.8645 51.2155 64.939 51.2213 65.0024 51.25C65.0599 51.2761 65.1091 51.3203 65.1399 51.3849C65.2177 51.4868 65.2952 51.5872 65.373 51.6848C65.9986 52.4551 66.6045 53.0308 67.5452 53.2373C68.0556 53.3493 68.5654 53.2997 69.0331 53.1287C69.5338 52.9457 69.9864 52.6239 70.3411 52.2122C70.5014 52.0261 70.6906 51.9502 70.8756 51.9489C71.0853 51.9474 71.2926 52.0446 71.4487 52.1999C71.6022 52.3525 71.705 52.56 71.7143 52.7769C71.7224 52.9674 71.6601 53.1663 71.4944 53.3438C70.9485 53.9284 70.2409 54.3567 69.4754 54.5778ZM69.4524 44.9299C70.2151 45.3922 71.3772 46.4702 70.5567 47.6163C69.5909 48.6268 68.2004 47.4682 67.5151 46.9441C66.8798 46.538 66.1659 47.5825 66.7554 48.0567C71.7069 51.7123 73.7163 45.0508 69.8381 44.3864C69.4111 44.3131 69.2526 44.7869 69.4524 44.9299ZM62.3176 42.8957C62.0725 42.7394 61.7841 42.6857 61.4645 42.8307C61.2148 42.944 60.7767 43.3215 60.4719 43.8178C60.2633 44.1573 60.1155 44.5557 60.1462 44.9706C60.1534 45.0669 60.1177 45.138 60.0614 45.1905C60.0169 45.232 59.9526 45.2625 59.8772 45.272C59.8131 45.2801 59.7414 45.2728 59.6831 45.2547C59.5722 45.2201 59.5135 45.1484 59.4913 45.0898C59.2779 44.5246 59.3699 43.8938 59.6091 43.3248C59.9319 42.5568 60.5182 41.9135 60.9023 41.7061C61.5596 41.3511 62.335 41.3347 62.9932 41.6964C63.5535 42.0042 63.9039 42.5012 64.2523 43.0078C64.3264 43.1155 64.3999 43.2224 64.4759 43.3275C64.6282 43.5379 64.6433 43.7466 64.5844 43.9256C64.519 44.1239 64.3525 44.2912 64.1442 44.3788C63.9516 44.4597 63.7282 44.4711 63.5305 44.3879C63.3634 44.3177 63.2101 44.1807 63.1131 43.9484C62.9498 43.557 62.6776 43.1253 62.3176 42.8957V42.8957ZM74.7678 43.7663C74.5999 43.8536 74.4686 43.8799 74.2823 43.8242C74.1793 43.7934 74.0776 43.7343 73.9979 43.6548C73.9189 43.576 73.8619 43.4781 73.8398 43.3695C73.7853 43.1013 73.6381 42.8503 73.4285 42.6867C73.2493 42.5468 73.0231 42.4727 72.7722 42.5145C72.5015 42.5596 72.2435 42.7327 72.0659 42.9369C72.0065 43.0052 71.96 43.0827 71.9132 43.1598C71.8256 43.3039 71.7406 43.4378 71.6199 43.5437C71.5741 43.5839 71.5051 43.6118 71.4384 43.6118C71.4112 43.6118 71.3837 43.6074 71.3574 43.5992C71.088 43.3296 71.0361 43.125 71.0448 42.922C71.0539 42.7092 71.1381 42.4938 71.274 42.2928C71.593 41.8212 72.1985 41.4346 72.6071 41.347C73.1667 41.2271 73.7225 41.371 74.168 41.6827C74.6265 42.0034 74.9662 42.5013 75.0722 43.0624C75.0976 43.1975 75.0868 43.3434 75.0352 43.4699C74.9848 43.5935 74.8969 43.6993 74.7678 43.7663ZM63.5518 37.8682C63.216 38.1944 62.8185 38.245 62.4164 38.2899C62.1929 38.3151 62.0146 38.3355 61.8391 38.375C61.3566 38.4835 60.8798 38.6471 60.4447 38.8826C59.9899 39.1289 59.4943 39.4258 59.1378 39.8062C59.053 39.8968 58.9731 39.9918 58.893 40.0869C58.82 40.1738 58.7497 40.2573 58.6756 40.3379C58.5906 40.4305 58.5098 40.5275 58.4294 40.6242C58.3797 40.7058 58.3699 40.7259 58.3599 40.7468C58.3448 40.7782 58.3273 40.8134 58.3073 40.8511C58.2799 40.9027 58.2478 40.9593 58.2142 41.0105C58.1582 41.1042 58.1282 41.13 58.1023 41.1416C58.0593 41.1607 58.0184 41.1701 57.9789 41.165C57.9417 41.1602 57.9068 41.1424 57.8722 41.1133C57.6998 40.9681 57.649 40.7297 57.6542 40.4766C57.6621 40.0926 57.8041 39.6674 57.9351 39.4061C58.2395 38.7988 58.6618 38.1674 59.1695 37.7142C59.7488 37.1968 60.3827 36.8051 61.1107 36.5352C61.5631 36.3674 62.087 36.2134 62.5799 36.2329C62.9346 36.2469 63.2733 36.3521 63.553 36.6147C63.7248 36.7759 63.8073 37.0052 63.8073 37.2344C63.8073 37.4681 63.7216 37.7032 63.5518 37.8682ZM75.4508 40.8559C75.4294 40.8908 75.3999 40.9149 75.367 40.9293C75.3325 40.9445 75.294 40.9488 75.2571 40.9426C75.2203 40.9365 75.1854 40.9198 75.1576 40.8944C75.131 40.8701 75.1108 40.8378 75.1018 40.7982C74.8788 39.8217 74.4458 39.0952 73.5218 38.6267C73.0672 38.3962 72.5445 38.2498 72.0497 38.133C71.9059 38.0991 71.754 38.0771 71.601 38.0548C71.1214 37.985 70.6384 37.905 70.3258 37.5185C70.1374 37.2857 70.0584 36.9879 70.1031 36.7156C70.1451 36.4592 70.2954 36.2241 70.5685 36.0832C71.2485 35.7326 72.0936 36.0766 72.7803 36.3697C72.8312 36.3914 72.8812 36.4127 72.9301 36.4333C73.6017 36.716 74.2141 37.0891 74.7176 37.6227C75.1171 38.046 75.4872 38.6717 75.6362 39.3155C75.7603 39.8511 75.7311 40.3978 75.4508 40.8559Z" fill="#1C1C1C"/>
</g>
</svg>
