<svg width="173" height="253" viewBox="0 0 173 253" fill="none" xmlns="http://www.w3.org/2000/svg">
<path fill-rule="evenodd" clip-rule="evenodd" d="M84.6691 147.914C84.8971 150.294 84.4308 152.566 83.3202 154.487L82.9588 155.112L83.6466 155.352C84.8983 155.79 86.2903 156.003 87.9021 156.003C89.5609 156.003 91.2858 155.772 92.6719 155.586L93.5593 155.467L93.1234 154.697C92.7728 154.077 92.7079 153.326 92.6392 152.531C92.6207 152.318 92.6016 152.097 92.5766 151.879C91.2632 140.139 89.6031 128.246 87.9977 116.745C87.5752 113.718 87.1383 110.589 86.7146 107.51L85.4989 107.557C85.1719 113.255 84.8545 119.05 84.5477 124.653C84.4127 127.117 84.2777 129.582 84.1416 132.045C83.6565 138.274 83.824 143.318 84.6691 147.914M85.1652 218.313C83.3799 218.313 81.5911 218.127 79.8489 217.761C74.3967 216.616 69.4434 213.916 65.2285 211.474C65.0133 211.352 64.795 211.23 64.5708 211.105C62.9207 210.182 60.8671 209.033 59.5802 207.631C58.1684 206.094 57.9254 204.562 58.8156 202.81L58.9565 202.533L58.8093 202.259C57.8875 200.543 57.956 198.42 58.9759 197.097L59.8331 195.985L58.4238 196.134C57.0029 196.285 55.5707 196.489 54.1856 196.687C52.6488 196.906 51.0595 197.133 49.4943 197.284L49.0593 197.327L48.9593 197.746C48.9036 197.979 48.8348 198.121 48.352 198.121C47.9333 198.121 47.3706 197.998 46.7751 197.868C46.036 197.708 45.1982 197.525 44.3903 197.525C44.035 197.525 43.7154 197.559 43.4131 197.629L43.2372 197.669L43.1121 197.797C43.032 197.879 42.8957 197.93 42.7565 197.93C42.6512 197.93 42.5535 197.901 42.4883 197.85L42.2909 197.695L42.0404 197.723C37.677 198.202 33.9145 199.043 30.5383 200.293L30.523 200.299L30.4497 200.331C29.2289 200.858 27.9667 201.402 26.8172 201.402C25.9768 201.402 25.2945 201.117 24.6695 200.503L24.4929 200.329L24.2438 200.327C21.7162 200.304 20.5612 197.356 20.4015 195.381L20.3815 195.132L20.1888 194.97C15.7837 191.273 13.1831 186.196 12.2382 179.447C11.3776 173.301 12.0384 166.82 12.7983 161.291C14.556 146.962 16.3894 134.118 21.0497 121.935L21.2674 121.366L20.6872 121.157C18.6744 120.434 17.1361 119.571 15.9843 118.519L15.9046 118.446L15.8042 118.405C14.1534 117.726 13.345 115.223 13.1365 114.472L13.1198 114.411L13.0907 114.355C12.7538 113.709 12.6761 112.81 12.8776 111.889L12.8992 111.79L12.8867 111.689C12.7779 110.815 13.1389 109.9 13.5212 108.932C13.6958 108.49 13.8763 108.033 14.0082 107.578C14.4616 106.277 14.9145 104.953 15.3527 103.672C16.3357 100.799 17.352 97.8274 18.4348 94.9372L18.5829 94.5419L18.2566 94.2694C17.6997 93.8042 17.8857 93.2567 18.6888 91.9473C18.8785 91.6381 19.058 91.3455 19.1944 91.0572C20.2238 89.2783 21.327 87.5707 22.474 85.9812L22.4976 85.9486L22.5165 85.9133C28.4021 74.9204 38.8421 68.8664 51.9133 68.8664L52.1797 68.8669L52.327 68.7783C54.7768 67.305 56.5256 64.7771 57.6733 61.0502L57.71 60.9314L57.6958 60.808C57.6565 60.4645 57.6134 60.0141 57.6282 59.5771C57.6656 58.4704 58.0993 57.4828 58.8182 56.8675C60.182 55.7 62.2525 55.6023 64.2563 55.6023L64.544 55.6028C67.106 55.6101 68.9147 56.055 70.2362 57.0029C71.7717 58.1043 72.6203 59.8823 72.8306 62.4383C72.8934 63.2031 72.8913 63.9955 72.8893 64.7617L72.8888 64.9755L72.9146 65.0604C73.0987 65.6679 73.3145 66.2516 73.5556 66.7955L73.8037 67.3551L74.368 67.1028C74.7329 66.9397 75.1955 66.8558 75.7825 66.8464C75.9518 66.8425 76.1169 66.8407 76.2834 66.8407C77.6464 66.8407 79.1045 66.9651 80.5146 67.0854C81.5771 67.1761 82.6758 67.27 83.7393 67.3116L83.7539 67.3122C83.7539 67.3122 83.9007 67.3113 83.9666 67.3113C86.5514 67.3113 88.4252 67.7178 89.8634 68.5907C91.4119 69.5305 92.5254 71.0388 93.3674 73.3374C97.8835 86.5132 99.7402 100.705 101.378 113.226C102.307 119.774 102.589 126.487 102.863 132.978C103.151 139.83 103.449 146.915 104.505 153.841L104.589 154.388L105.15 154.352C107.617 154.193 110.284 153.85 113.108 153.487C117.397 152.935 121.833 152.364 126.121 152.364C132.117 152.364 136.663 153.544 140.017 155.971C142.355 158.174 143.565 161.157 143.515 164.601C143.445 169.465 140.872 174.844 136.96 178.303L136.946 178.316C132.001 182.987 122.976 187.039 110.121 190.358C98.2992 193.411 86.0715 195.07 79.8347 195.787L78.2911 195.964L79.544 196.87C80.0511 197.237 80.5138 197.56 80.9586 197.857L81.2455 198.049L81.5598 197.905C82.456 197.494 83.0252 197.407 83.3452 197.407C83.629 197.407 83.9714 197.469 83.9902 197.763C84.0026 197.955 83.8657 198.241 83.5767 198.277L82.0425 198.468L83.2952 199.362C84.132 199.959 85.3805 200.678 86.8262 201.511C91.5558 204.236 98.7035 208.355 97.4742 211.972L97.3935 212.209L97.5078 212.433C97.8381 213.081 97.8663 213.682 97.5937 214.271C97.0101 215.533 95.1845 216.491 93.6341 216.881L93.6075 216.888L93.5816 216.897C90.8839 217.837 88.0521 218.313 85.1652 218.313" fill="white"/>
<path fill-rule="evenodd" clip-rule="evenodd" d="M79.975 195.078C80.1614 194.888 80.2398 194.64 80.0656 194.348C79.3924 193.488 77.996 194.076 77.1274 194.274C76.7993 194.002 76.4735 193.728 76.1598 193.439C76.2688 192.763 75.456 192.313 75.122 191.791C74.794 191.407 74.4854 190.971 74.0922 190.649C73.1339 189.901 71.8059 190.407 70.6937 190.373C69.8372 189.283 68.9552 188.228 68.1404 187.102C69.0794 185.524 69.1456 183.675 68.834 181.916C83.2382 176.45 95.7063 166.101 111.285 163.709C111.82 163.62 112.121 162.969 111.987 162.491C110.901 159.898 95.2845 166.59 92.9502 167.801C86.0654 171.098 79.6164 175.208 72.9252 178.834C71.5299 179.575 69.995 179.974 68.4694 180.359C66.1248 172.663 62.1588 165.609 59.1178 158.19C59.3152 157.848 59.4834 157.489 59.626 157.119C59.5252 161.2 63.4931 161.143 64.041 157.272C63.8149 159.29 65.3406 163.611 67.5425 160.775C68.0589 160.063 68.2422 159.151 68.3297 158.231C68.4429 158.867 68.5712 159.5 68.7138 160.131C69.2789 161.381 70.822 159.861 71.1804 159.209C71.3873 159.172 71.5808 159.078 71.7223 158.962C75.6159 159.503 80.202 159.472 83.0589 156.398C87.9048 158.257 93.2681 156.592 98.1689 155.849C108.142 154.702 118.154 152.955 128.217 153.088C132.709 153.349 138.009 154.074 140.851 157.908C144.496 163.434 142.436 170.898 138.415 175.681C128.742 187.929 95.5413 193.254 79.975 195.078M80.2469 199.49C80.423 199.443 80.6003 199.399 80.7765 199.358C83.5997 201.709 96.8958 207.813 95.8845 211.459C95.527 211.913 94.6715 212.016 94.1306 212.162C93.1885 212.417 92.2373 212.638 91.2769 212.812C88.1726 213.377 84.9573 213.476 81.857 212.831C80.7164 212.658 79.6868 212.171 78.6479 211.701C75.2911 210.224 71.594 208.593 68.2533 207.128C64.0094 205.445 56.5654 202.129 59.627 196.534C62.5276 199.797 66.2094 199.512 68.064 195.456C68.7036 194.225 69.2617 192.566 70.764 192.068C71.5563 191.533 72.5697 191.421 73.2317 192.018C73.2796 191.944 73.3224 191.84 73.3457 191.747C74.0922 192.81 74.736 193.928 75.6108 194.9C75.3104 194.916 72.1837 197.23 73.1064 197.231C74.2166 196.659 75.3196 196.183 76.5183 195.875C77.3871 196.749 78.3424 197.561 79.3323 198.313C78.3709 198.948 77.5072 199.725 76.8126 200.569C76.7526 200.643 76.8259 200.74 76.9155 200.7C77.9941 200.219 79.1032 199.797 80.2469 199.49M94.5585 215.255C83.7595 220.106 72.3272 214.705 63.1182 208.946C60.9928 207.759 58.1971 206.076 58.6269 203.282C60.1923 205.573 62.7731 206.877 65.25 208.008C69.4114 209.889 73.6003 211.71 77.772 213.568C78.1661 214.875 80.0503 214.925 81.189 215.215C86.2579 216.199 91.7067 215.71 96.4772 213.75C96.2011 214.567 95.2979 214.942 94.5585 215.255M51.473 196.366C51.2063 196.401 50.9394 196.432 50.6726 196.462C50.7001 196.109 50.4873 195.755 50.1451 195.646C50.2988 194.897 50.3559 194.124 50.2734 193.365C50.7195 194.517 52.1596 194.167 53.0742 193.835C54.3809 193.48 55.6794 193.098 56.9708 192.69C57.4801 193.636 58.0199 194.569 58.6829 195.425C56.269 195.64 53.8777 196.066 51.473 196.366M50.4109 192.74C50.3467 192.876 50.2551 193.019 50.253 193.182C50.1878 192.621 50.0605 192.067 49.867 191.536C50.0482 191.938 50.2296 192.339 50.4109 192.74M48.8872 189.734C47.6997 188.186 45.5049 186.92 43.4761 187.352C43.3458 187.38 43.3426 187.589 43.4761 187.616C46.2015 187.986 48.5949 190.148 48.6896 192.943C48.9046 194.208 48.0246 195.45 48.321 196.664C48.2619 196.668 48.2028 196.671 48.1448 196.675C48.1234 196.757 48.1039 196.829 48.0785 196.892C48.3729 196.941 48.4595 197.415 48.1121 197.499C47.9065 197.549 47.6916 197.575 47.4726 197.586C46.3614 197.286 45.1892 197.217 44.1269 196.774C43.0759 196.309 43.3386 195.004 42.9679 194.1C42.696 193.057 42.3832 192.019 41.9892 191.019C41.9606 190.938 41.8517 190.957 41.8425 191.038C41.5645 193.033 41.5736 195.063 41.6408 197.075C41.2762 197.112 40.9137 197.153 40.55 197.198C40.5735 196.636 38.8879 189.791 37.9998 191.548C38.4469 193.479 38.5009 195.497 38.5488 197.484C35.912 197.919 33.3138 198.566 30.786 199.447C29.0047 199.986 26.8862 201.584 25.1569 200.14C23.8176 199.032 23.3665 197.1 23.4927 195.455C25.2343 185.726 38.9898 184.59 47.11 185.309C47.8769 187.079 48.6581 188.843 49.4494 190.602C49.2855 190.299 49.0981 190.009 48.8872 189.734M21.192 195.266C21.0433 193.057 21.4151 190.306 23.0517 188.66C26.7977 185.493 32.0428 184.496 36.7237 183.35C38.9041 182.919 41.1143 182.633 43.3335 182.491C44.1208 182.429 45.121 182.607 45.6769 181.963C45.9632 182.641 46.2534 183.319 46.5438 183.996C37.2248 182.775 17.7822 187.017 23.2269 199.784C22.0739 198.534 21.3101 197.014 21.192 195.266M67.4906 187.963C67.9194 189.034 68.4439 190.055 69.1293 190.988C68.3502 191.497 67.7147 192.251 67.2665 193.061C64.3945 200.575 61.3228 196.55 57.5065 192.518C60.7361 191.299 65.0137 190.386 67.4906 187.963M19.6847 193.737C12.2163 186.359 10.767 174.067 13.526 164.405C13.7715 160.823 15.0242 157.408 16.1465 154.016C19.7203 143.726 24.4206 133.827 30.0578 124.48C37.0516 126.401 44.0332 128.374 51.0433 130.232C52.0088 130.442 52.9753 130.856 53.9664 130.916C54.3208 131.142 54.6762 131.391 55.0449 131.609C54.5082 134.239 55.0032 136.924 55.1284 139.57C55.2424 141.653 55.0174 143.692 54.7413 145.753C54.4328 148.751 53.1627 158.502 55.7079 160.287C56.5706 160.703 57.3416 159.47 57.7133 159.809C58.0484 159.575 58.361 159.271 58.6157 158.936C59.5985 162.115 61.2046 165.063 62.1966 168.245C63.5164 172.92 67.8511 180.488 66.8887 184.948C66.1442 187.702 62.8871 188.296 60.5365 189.196C57.8202 190.141 55.0734 191.009 52.2818 191.713C50.9191 188.821 49.6165 185.901 48.3383 182.97C42.4964 169.449 37.3225 155.646 32.6987 141.678C32.6121 141.368 31.5488 138.009 31.3543 138.946C31.338 138.849 31.2168 138.6 31.171 138.813C31.9552 142.093 32.7505 145.372 33.6112 148.633C31.4969 148.338 29.2237 148.222 27.2886 149.259C27.1888 149.312 27.2621 149.443 27.3608 149.427C29.6523 149.03 31.8625 149.78 34.0634 150.319C37.1545 160.842 41.1428 171.097 45.3644 181.225C44.0587 180.808 42.5432 181.269 41.1805 181.302C36.8887 181.745 32.6457 182.684 28.5912 184.145C23.4948 185.798 19.8914 187.953 19.6847 193.737M15.573 116.949C14.3184 115.598 13.3324 113.872 13.5229 112.041C14.2766 111.036 14.5261 109.725 14.9651 108.563C16.6812 103.701 18.2741 98.8015 20.142 93.9918C24.115 95.2138 28.0238 96.6797 31.7108 98.6049C32.3891 98.9511 33.0602 99.3103 33.7233 99.6825C34.4179 100.072 35.1756 100.748 36.0087 100.554C35.0982 101.844 33.2232 103.185 32.9065 104.675C32.8382 105.147 33.1723 105.584 33.6856 105.479C41.7203 111.186 50.0177 116.774 57.6125 123.132C63.2996 127.634 67.6658 131.286 69.6162 138.592C70.931 143.325 70.935 148.271 70.7416 153.137C70.7039 154.083 70.7029 155.052 70.6265 156.004C70.7405 156.716 70.5236 158.166 69.7231 158.192C69.7414 158.364 69.7985 158.524 69.8891 158.664C69.8636 158.698 69.8372 158.731 69.8097 158.764C69.7699 158.569 69.7312 158.376 69.6946 158.181C69.0713 155.42 68.9878 152.216 69.0916 149.277C69.1353 148.434 67.843 148.454 67.7707 149.277C67.5762 151.499 67.3816 153.721 67.1871 155.943C66.9538 157.382 67.3215 159.265 66.1707 160.36C65.0004 159.278 65.3875 157.145 65.4445 155.75C65.5361 153.473 65.635 151.198 65.7195 148.921C65.746 148.2 64.5513 148.014 64.4157 148.748C64.0319 150.839 63.6164 152.924 63.1691 155.002C62.8993 155.806 62.714 159.412 61.3655 158.786C60.562 158.237 61.1415 155.019 61.0355 153.954C61.0855 151.845 61.1149 149.739 61.2698 147.635C61.3329 146.786 59.9509 146.606 59.7614 147.435C59.4539 148.776 59.1595 150.117 58.8927 151.468C58.3071 153.744 58.5199 156.83 56.4056 158.343C55.5776 152.43 56.7691 146.558 56.9362 140.665C56.8364 138.756 56.5085 136.866 56.2192 134.98C55.8994 132.894 55.713 130.623 56.4616 128.612C56.2569 127.711 55.4523 130.148 55.3769 130.35C54.7709 129.156 53.2952 129.064 52.128 128.692C49.534 127.852 46.8768 127.219 44.2522 126.473C37.2919 124.539 30.3235 122.636 23.3532 120.737C20.5687 119.966 17.6376 119.054 15.573 116.949M85.272 148.404C84.3116 143.198 84.3381 137.922 84.7486 132.659C85.1997 124.496 85.6377 116.331 86.1062 108.169C88.1401 122.942 90.3084 137.698 91.9663 152.517C92.0845 153.549 92.0663 154.64 92.5867 155.56C89.7105 155.946 86.6448 156.334 83.8482 155.356C85.0755 153.234 85.5083 150.818 85.272 148.404M99.8046 111.734C101.979 125.735 100.739 139.982 102.848 153.967C99.9217 154.295 97.0181 154.781 94.1224 155.314C94.4393 153.587 93.8384 151.803 93.7345 150.063C92.1619 137.654 90.4255 125.254 88.1248 112.953C87.5604 110.009 86.9902 107.078 86.3363 104.15C86.4351 102.377 86.5217 100.605 86.5787 98.8306C89.7716 96.8231 93.3719 95.5238 97.0955 94.8687C98.1016 100.475 99.1069 106.078 99.8046 111.734M74.6331 67.7375C74.5058 67.5198 74.3846 67.2971 74.2685 67.0713C74.6616 67.0864 75.0446 67.1004 75.4316 67.1646C75.4143 67.7877 75.4489 68.4157 75.456 69.0438C75.2624 68.5843 74.8837 68.1649 74.6331 67.7375M140.306 155.477C131.019 148.723 115.764 153.026 105.005 153.72C102.954 140.269 103.791 126.598 101.879 113.125C100.118 99.6645 98.2616 86.0166 93.8394 73.1202C92.0143 68.1337 88.8571 66.6529 83.6588 66.6931C81.021 66.5897 78.2314 66.1673 75.6679 66.2274C75.1057 66.2366 74.518 66.3108 74.0108 66.5376C73.2979 64.9303 72.9109 63.2046 72.7153 61.4659C72.7031 61.3555 72.5626 61.3355 72.5208 61.4408C71.9179 62.9548 71.8537 64.6072 72.1816 66.1924C72.419 67.3282 73.8316 71.7979 75.4723 70.0491C75.6026 73.7162 74.797 78.0956 71.205 79.9988C64.9281 82.7358 56.2517 80.2436 52.6159 74.4345C51.9131 73.2737 51.3071 72.0385 50.529 70.924C55.9503 69.3889 58.9934 62.8926 57.7164 57.9453C56.927 61.793 55.4878 66.0921 51.904 68.2472C38.8532 68.2181 28.0025 74.1626 21.8713 85.6122C20.6716 87.2747 19.5625 89.0023 18.546 90.7602C17.999 91.9361 16.3971 93.5714 17.7567 94.7072C16.1862 98.899 14.793 103.149 13.3203 107.374C12.9158 108.781 11.9911 110.258 12.1755 111.738C11.9759 112.65 11.9851 113.729 12.4424 114.606C12.8762 116.169 13.8498 118.272 15.4642 118.935C16.834 120.186 18.5664 121.048 20.3732 121.697C15.5547 134.29 13.7205 147.872 12.0879 161.178C10.4878 172.818 9.66193 186.978 19.6877 195.39C19.8823 197.797 21.3101 200.864 24.1334 200.89C26.0887 202.81 28.472 201.757 30.6485 200.818C34.3221 199.457 38.175 198.703 42.0034 198.283C42.4139 198.604 43.082 198.55 43.4476 198.176C45.7667 197.642 48.9809 199.807 49.4494 197.845C52.4397 197.555 55.3973 197.012 58.3845 196.694C57.1255 198.328 57.2163 200.737 58.1645 202.501C55.7497 207.252 61.3747 210.003 64.8141 211.953C69.4572 214.641 74.3062 217.193 79.6164 218.307C84.285 219.29 89.1758 218.992 93.6804 217.423C96.0474 216.828 99.3534 214.874 97.9488 212.122C99.7292 206.885 87.2265 201.458 83.5488 198.835C85.0521 198.648 85.1071 195.528 81.1972 197.321C80.7246 197.004 80.2602 196.678 79.8008 196.346C95.6155 194.528 125.818 189.527 137.264 178.715C143.552 173.156 147.18 161.911 140.306 155.477" fill="#1C1C1C"/>
<path fill-rule="evenodd" clip-rule="evenodd" d="M62.8098 26.1622C77.9024 25.4198 84.713 36.0489 85.1535 40.7965C85.4593 44.092 83.5127 47.8904 83.5127 50.8353C83.5127 52.3384 85.3527 55.5655 84.4961 57.7563C82.5896 62.6326 78.5528 68.0444 73.4087 68.0444C68.2647 68.0444 61.57 69.4674 55.886 61.3269C55.3527 60.5631 48.6071 56.2219 47.9518 52.0969C46.3194 41.8217 52.0406 26.6919 62.8098 26.1622Z" fill="white"/>
<path fill-rule="evenodd" clip-rule="evenodd" d="M62.0983 19.5471C62.638 18.9296 63.5492 18.6826 64.3587 18.7304C65.5347 18.8001 66.5574 19.5262 67.7274 19.58C68.9541 19.6367 70.138 19.2115 71.3678 19.4087C72.1216 19.5302 72.8684 19.8798 73.3513 20.4694C75.0242 19.9903 76.8404 20.6248 77.9059 22.0102C79.2203 21.806 80.6502 22.6766 81.0524 23.9434C82.7223 23.9972 84.2986 25.3388 84.4848 27.0201C85.152 27.1964 85.7315 27.6566 86.087 28.2651C86.5002 28.9703 86.5689 29.779 86.4942 30.5738C87.2799 30.9752 87.6792 31.8377 87.7837 32.7501C88.5017 33.2859 88.8133 34.2491 88.6669 35.1584C89.2166 35.4682 89.5005 36.1893 89.4974 36.8327C89.4944 37.4333 89.3352 37.9652 89.5592 38.5448C89.7588 39.061 89.8305 39.4912 89.7207 40.0319L89.7095 40.0846C89.6901 40.1728 89.6737 40.2573 89.6591 40.3407C89.8078 40.4712 89.9335 40.6347 90.0279 40.8249C90.3723 41.5202 90.321 42.3131 90.0584 43.0181C90.1734 43.4671 90.1588 43.9414 89.9888 44.373C90.3071 44.8317 90.4745 45.3942 90.4253 45.9779C90.3702 46.6313 90.0719 47.2165 89.6195 47.6491C89.74 48.5418 89.3771 49.5062 88.721 50.1347C88.8141 50.669 88.7338 51.2291 88.4415 51.7356C88.2332 52.0967 87.9528 52.3656 87.6293 52.553C87.6399 52.8512 87.5996 53.156 87.5004 53.4615C87.3627 53.8854 87.1295 54.2759 86.8226 54.5905C87.0057 55.7616 86.3047 57.061 85.0709 57.3896C84.9672 57.4172 84.8684 57.4299 84.7737 57.4319C84.6511 58.5582 84.3834 59.669 83.969 60.7238C82.9155 63.4099 80.9997 65.7585 78.5013 67.2236C77.2656 67.9477 75.8775 68.4437 74.4606 68.6509C73.4409 68.8003 72.4601 68.7634 71.4366 68.6619C70.152 68.5334 68.8615 68.3411 67.6128 68.0105L67.412 67.9571C66.8943 67.8184 66.3486 67.6583 65.9001 67.379C65.3983 67.0663 65.1375 66.5842 65.022 66.0165C64.9575 65.7005 65.1576 65.3606 65.5034 65.3541L65.5257 65.3541C65.6014 65.3557 65.6764 65.3529 65.7524 65.3481L65.8096 65.3442H65.8125C65.8165 65.3432 65.8186 65.3432 65.8225 65.3432C65.8563 65.3382 65.8892 65.3282 65.922 65.3233C66.3025 65.2592 66.6352 65.3227 66.9925 65.4416L67.0373 65.4567C67.6387 65.6639 68.2352 65.8561 68.8565 65.9985C69.4988 66.145 70.149 66.2615 70.8012 66.3531L70.8659 66.3611L70.8858 66.3641L70.8958 66.3651V66.3651C70.8978 66.3651 70.8998 66.3651 70.9018 66.3661L71.094 66.39V66.39C71.2454 66.4079 71.3967 66.4238 71.548 66.4398C71.8268 66.4677 72.1056 66.4896 72.3844 66.5055C77.1969 66.7764 81.2387 62.9866 82.4584 58.4429C82.9006 56.7985 82.9294 55.1581 82.799 53.5167C82.7572 53.3972 82.7323 53.2647 82.7333 53.1193C82.7333 53.0436 82.7374 52.9689 82.7422 52.8932C82.58 51.3056 82.2982 49.7169 82.1219 48.1233C81.9159 46.2618 81.8013 44.3894 81.8431 42.5159C81.864 41.5906 81.9626 40.6743 82.092 39.758L82.1388 39.4289V39.4289C81.5538 39.3146 81.0099 39.0371 80.5769 38.6354C79.6371 39.1783 78.4208 39.2264 77.4931 38.6532C76.4536 39.3053 75.0012 39.3644 73.9543 38.7269C73.3216 39.1787 72.5244 39.3736 71.7419 39.2021C71.3899 39.125 71.0399 38.9581 70.7402 38.7272C70.5262 38.7649 70.3094 38.7796 70.0938 38.7683L70.0493 38.7932V38.7932C69.5524 39.0552 69.002 39.2276 68.4355 39.2083C68.0161 39.1942 67.584 39.1114 67.184 38.9549C66.7568 39.2128 66.2892 39.3889 65.7889 39.4521C65.0583 39.5442 64.2699 39.3825 63.6623 38.968C62.5519 39.6007 61.1861 39.6981 59.9877 39.273C59.7422 39.6888 59.4026 40.0474 59.0049 40.3238C59.076 40.5789 59.0987 40.851 59.0743 41.1127C59.034 41.5434 58.9261 41.9295 58.7495 42.2763C58.9356 42.6636 58.9916 43.1391 58.8875 43.6163C58.739 44.297 58.3431 44.8891 57.8305 45.3503C57.7853 46.4365 57.1897 47.455 56.2204 48.0208C56.1713 48.0494 56.1226 48.0727 56.0739 48.0938C56.031 48.1523 55.9799 48.2038 55.9214 48.2472C55.305 48.8169 54.3296 48.7715 53.557 48.4497C53.5421 48.4504 53.5272 48.4517 53.5121 48.452C53.2362 48.459 53.0481 48.3514 52.9365 48.1931C52.824 48.1991 52.7124 48.211 52.6 48.2319C52.1896 48.3086 51.7396 48.456 51.3681 48.6473C50.4043 49.1432 49.9582 50.0197 49.8247 51.0735C49.6795 52.2229 50.0099 53.3942 50.8992 54.172C51.3313 54.5505 51.8839 54.7876 52.4455 54.8872C53.0659 54.9977 53.7291 54.7258 54.1871 55.2587C54.2787 55.3643 54.3415 55.5117 54.2917 55.6541C54.1363 56.0983 53.8804 56.2686 53.4801 56.3304C54.0587 57.0166 54.6521 57.68 55.3093 58.2965C56.0203 58.9648 56.7552 59.6122 57.3965 60.3492C58.0745 61.1291 58.6869 61.9558 59.1121 62.902C59.3551 63.4458 59.5502 64.0065 59.7604 64.5633L59.798 64.6603C60.0323 65.2519 60.3441 65.8221 59.9834 66.4398C59.84 66.6828 59.5154 66.9179 59.2166 66.879C58.3753 66.7714 58.0935 66.2027 57.8345 65.4617C57.6394 64.902 57.49 64.3263 57.28 63.7715C57.2407 63.6688 57.1979 63.5671 57.153 63.466C56.6678 63.6013 56.1344 63.4939 55.7015 63.2172C55.2388 63.4223 54.7263 63.5246 54.2313 63.5159C53.5686 63.5043 52.963 63.3201 52.4425 62.9879C52.401 62.977 52.3594 62.9664 52.3181 62.9546C51.5262 63.258 50.5987 63.2038 49.8817 62.712C49.4174 62.3936 49.0999 61.9686 48.9195 61.4954C48.3196 61.484 47.7261 61.2712 47.2962 60.8455C46.9015 60.4547 46.6708 59.9504 46.6023 59.4264C46.0859 59.3242 45.6018 59.0745 45.2221 58.6538C44.905 58.3026 44.7124 57.8552 44.6472 57.3906C44.0183 57.2111 43.4511 56.8004 43.1414 56.2277C42.8531 55.6945 42.8115 55.1162 42.9525 54.5901L42.9159 54.5375V54.5375C42.2681 54.1983 41.7737 53.6432 41.7229 52.8502C41.7086 52.6244 41.7329 52.3985 41.7941 52.1847C41.772 51.9458 41.7861 51.7069 41.8488 51.4759C40.9775 50.6283 40.6618 49.2667 41.1348 48.1413C40.2835 47.2249 40.0584 45.7758 40.6828 44.6882C40.2546 44.1702 40.0345 43.5099 40.0714 42.8047C40.1172 41.9243 40.5204 41.1553 41.0034 40.4432C40.6449 40.0468 40.4537 39.494 40.4678 38.9601C40.4876 38.1862 40.8988 37.5199 41.4137 36.9681C40.9646 35.6056 41.4664 34.1275 42.5687 33.265C42.3457 32.8975 42.263 32.4423 42.3358 31.9812C42.4632 31.1754 43.0676 30.6266 43.7198 30.1924C43.5834 29.7482 43.6192 29.2691 43.8363 28.8099C44.1261 28.1974 44.6727 27.8089 45.2433 27.4802C45.3907 26.1217 46.9082 24.9614 48.1808 25.6625C47.8651 24.6516 48.7743 23.56 49.8199 23.4445C50.3316 21.8927 52.097 20.9146 53.6843 21.3001C54.4958 20.1905 56.0063 19.7633 57.2889 20.2393C58.699 19.1587 60.4484 18.9983 62.0983 19.5471ZM52.0542 50.0158C53.045 49.962 53.7878 50.7708 54.3097 51.5108C54.7995 52.205 53.5429 52.9381 53.1764 52.1731C53.045 51.9002 52.8956 51.6114 52.6955 51.3723C52.6619 51.4194 52.6322 51.4681 52.6026 51.5181L52.573 51.5686C52.5511 51.6054 52.5282 51.6433 52.5093 51.6821C52.5113 51.6891 52.4814 51.7807 52.4804 51.7847C52.3987 52.0327 52.2205 52.1921 51.9776 52.2777C51.6639 52.3873 51.3672 52.1512 51.2666 51.8743C51.1064 51.4321 51.4787 51.0466 51.866 50.8714C51.4856 50.8096 51.1112 50.9391 50.8364 51.2319C50.7987 51.2727 50.7348 51.2399 50.733 51.1891C50.701 50.4949 51.4269 50.0497 52.0542 50.0158Z" fill="#1C1C1C"/>
<path fill-rule="evenodd" clip-rule="evenodd" d="M76.2172 60.3734C75.4836 60.5859 74.6963 60.6049 73.9486 60.3855C73.2704 60.1864 72.574 59.7483 72.0749 59.1686C71.6315 58.6536 71.3443 58.0278 71.3556 57.3597C71.3569 57.2834 71.3842 57.2198 71.4261 57.1703C71.4713 57.1171 71.5344 57.0806 71.602 57.0647C71.6715 57.0484 71.7449 57.0542 71.8075 57.0826C71.8641 57.1083 71.9127 57.152 71.943 57.2159C72.0197 57.3167 72.0961 57.416 72.1728 57.5126C72.7896 58.2743 73.3869 58.8436 74.3143 59.0478C74.8175 59.1586 75.3201 59.1095 75.7812 58.9404C76.2748 58.7594 76.721 58.4413 77.0707 58.0341C77.2287 57.8501 77.4152 57.7749 77.5977 57.7737C77.8044 57.7723 78.0087 57.8683 78.1626 58.0219C78.3139 58.1729 78.4153 58.378 78.4244 58.5926C78.4325 58.7809 78.3711 58.9776 78.2077 59.1531C77.6694 59.7312 76.9719 60.1548 76.2172 60.3734ZM76.1945 50.8326C76.9465 51.2897 78.0922 52.3558 77.2833 53.4891C76.3311 54.4885 74.9602 53.3427 74.2847 52.8245C73.6583 52.4229 72.9545 53.4558 73.5356 53.9247C78.4172 57.5397 80.3982 50.9521 76.5748 50.295C76.1539 50.2226 75.9975 50.6911 76.1945 50.8326ZM69.1606 48.8209C68.9189 48.6663 68.6346 48.6133 68.3196 48.7567C68.0734 48.8687 67.6415 49.242 67.341 49.7328C67.1354 50.0686 66.9896 50.4625 67.0199 50.8728C67.027 50.9681 66.9918 51.0383 66.9363 51.0903C66.8924 51.1313 66.8291 51.1615 66.7547 51.1709C66.6915 51.1789 66.6208 51.1717 66.5633 51.1537C66.454 51.1196 66.3961 51.0486 66.3743 50.9907C66.1639 50.4317 66.2545 49.808 66.4904 49.2452C66.8086 48.4858 67.3866 47.8496 67.7653 47.6445C68.4133 47.2934 69.1777 47.2773 69.8267 47.6349C70.3791 47.9394 70.7245 48.4308 71.068 48.9318C71.141 49.0383 71.2135 49.144 71.2884 49.2479C71.4385 49.456 71.4535 49.6624 71.3953 49.8394C71.3309 50.0355 71.1667 50.2009 70.9613 50.2875C70.7715 50.3676 70.5513 50.3788 70.3563 50.2966C70.1917 50.2271 70.0405 50.0917 69.9449 49.8619C69.7839 49.4749 69.5155 49.048 69.1606 48.8209V48.8209ZM81.4348 49.6819C81.2693 49.7682 81.1398 49.7942 80.9562 49.7392C80.8547 49.7087 80.7543 49.6502 80.6757 49.5716C80.5979 49.4937 80.5417 49.3969 80.5199 49.2894C80.4662 49.0243 80.3211 48.776 80.1144 48.6142C79.9378 48.4759 79.7148 48.4026 79.4674 48.444C79.2005 48.4886 78.9462 48.6598 78.7711 48.8616C78.7125 48.9292 78.6667 49.0059 78.6205 49.0821C78.5342 49.2246 78.4504 49.357 78.3314 49.4617C78.2862 49.5015 78.2183 49.5291 78.1524 49.5291C78.1257 49.5291 78.0985 49.5247 78.0726 49.5167C77.807 49.25 77.7559 49.0476 77.7645 48.847C77.7734 48.6365 77.8564 48.4235 77.9904 48.2247C78.3048 47.7584 78.9018 47.376 79.3047 47.2894C79.8563 47.1708 80.4042 47.3132 80.8435 47.6214C81.2955 47.9385 81.6304 48.4309 81.7349 48.9858C81.76 49.1194 81.7493 49.2637 81.6984 49.3887C81.6487 49.511 81.5621 49.6156 81.4348 49.6819ZM70.3773 43.8492C70.0463 44.1718 69.6544 44.2218 69.258 44.2662C69.0377 44.2912 68.8619 44.3113 68.6888 44.3503C68.2132 44.4577 67.7431 44.6194 67.3142 44.8524C66.8658 45.0959 66.3772 45.3895 66.0257 45.7657C65.9421 45.8553 65.8633 45.9492 65.7844 46.0433C65.7125 46.1292 65.6432 46.2118 65.5701 46.2915C65.4863 46.383 65.4066 46.479 65.3274 46.5746C65.2784 46.6554 65.2687 46.6752 65.2588 46.6959C65.244 46.727 65.2267 46.7617 65.207 46.799C65.18 46.8501 65.1483 46.906 65.1152 46.9567C65.06 47.0493 65.0304 47.0748 65.0049 47.0862C64.9625 47.1051 64.9222 47.1144 64.8832 47.1094C64.8466 47.1047 64.8121 47.0871 64.7781 47.0583C64.6081 46.9147 64.558 46.6789 64.5631 46.4287C64.5709 46.0489 64.7109 45.6285 64.84 45.37C65.1402 44.7694 65.5564 44.1451 66.057 43.6969C66.6282 43.1853 67.253 42.7979 67.9708 42.531C68.4168 42.3651 68.9332 42.2128 69.4191 42.232C69.7689 42.2459 70.1028 42.3499 70.3786 42.6096C70.5479 42.769 70.6292 42.9958 70.6292 43.2224C70.6292 43.4535 70.5448 43.686 70.3773 43.8492ZM82.1081 46.8038C82.0871 46.8383 82.058 46.8621 82.0255 46.8764C81.9915 46.8914 81.9536 46.8957 81.9172 46.8895C81.8809 46.8834 81.8464 46.867 81.8191 46.8419C81.7929 46.8178 81.773 46.7858 81.764 46.7467C81.5442 45.781 81.1174 45.0626 80.2064 44.5993C79.7583 44.3713 79.243 44.2265 78.7551 44.1111C78.6134 44.0775 78.4636 44.0558 78.3127 44.0337C77.84 43.9647 77.3638 43.8856 77.0556 43.5034C76.8699 43.2731 76.7919 42.9787 76.836 42.7094C76.8775 42.4558 77.0256 42.2233 77.2949 42.084C77.9653 41.7373 78.7984 42.0775 79.4754 42.3673C79.5256 42.3888 79.5749 42.4099 79.6231 42.4303C80.2851 42.7098 80.889 43.0787 81.3853 43.6064C81.7791 44.025 82.144 44.6438 82.291 45.2804C82.4132 45.8101 82.3845 46.3508 82.1081 46.8038Z" fill="#1C1C1C"/>
</svg>
