<svg width="112" height="104" viewBox="0 0 112 104" fill="none" xmlns="http://www.w3.org/2000/svg">
<mask id="mask0_454_472" style="mask-type:alpha" maskUnits="userSpaceOnUse" x="0" y="0" width="112" height="104">
<rect width="112" height="104" fill="#D9D9D9"/>
</mask>
<g mask="url(#mask0_454_472)">
<circle cx="56.4205" cy="55.2281" r="43.9332" fill="#E0E0E0"/>
<path d="M4.00015 52.4686C4.13248 40.9526 8.33512 30.0236 15.9258 21.4559C23.5164 12.8882 34.0494 7.18489 45.8147 5.27184L57.4505 55.7344L4.00015 52.4686Z" fill="#8D8EFF"/>
<path d="M94.4347 77.2506C88.8766 86.8444 79.8967 93.9818 69.2961 97.2313C58.6954 100.481 47.2582 99.6019 37.2785 94.7711L56.4203 55.2272L94.4347 77.2506Z" fill="#B3B3FF"/>
<path d="M36.5882 97.7361C27.4904 93.4266 20.0263 86.2959 15.306 77.4043C10.5858 68.5127 8.86134 58.335 10.3892 48.3847L56.6034 55.4809L36.5882 97.7361Z" fill="#D9D9FF"/>
<path d="M107.994 55.2271C107.994 67.3614 103.716 79.1071 95.911 88.3985L56.4204 55.2271H107.994Z" fill="#5557FF"/>
<mask id="path-7-inside-1_454_472" fill="white">
<path d="M47.4605 9.876C57.3285 7.88498 67.5756 9.13207 76.6781 13.4318C85.7805 17.7316 93.2521 24.8543 97.9819 33.741L56.7078 55.7083L47.4605 9.876Z"/>
</mask>
<path d="M47.4605 9.876C57.3285 7.88498 67.5756 9.13207 76.6781 13.4318C85.7805 17.7316 93.2521 24.8543 97.9819 33.741L56.7078 55.7083L47.4605 9.876Z" stroke="black" mask="url(#path-7-inside-1_454_472)"/>
</g>
</svg>
