<svg width="156" height="115" viewBox="0 0 156 115" fill="none" xmlns="http://www.w3.org/2000/svg">
<g id="Group 51">
<g id="Clock" opacity="0.32">
<path id="Vector" d="M97.6423 42.2261C108.128 43.062 114.079 51.5413 113.437 59.0781C112.795 66.615 105.49 74.0375 95.0045 73.2017C84.5188 72.3658 78.5677 63.8865 79.2095 56.3497C79.8513 48.8129 87.1566 41.3903 97.6423 42.2261Z" fill="#5557FF" stroke="#5557FF" stroke-width="67"/>
<path id="Vector_2" d="M112.561 17.1273C135.505 25.5419 146.998 50.3275 138.333 72.4424C129.669 94.5574 104.082 105.744 81.1385 97.3298C58.195 88.9152 46.7024 64.1295 55.3669 42.0146C64.0314 19.8996 89.6179 8.71279 112.561 17.1273Z" fill="white" stroke="#5557FF" stroke-width="3"/>
<path id="Vector_3" d="M97.3495 18.8496C97.6605 20.0725 97.7648 21.336 97.6582 22.5911C97.7642 23.8514 97.66 25.12 97.3495 26.3483C97.0593 25.117 96.9607 23.8506 97.0571 22.5911C96.9606 21.3368 97.0592 20.0756 97.3495 18.8496Z" fill="black"/>
<path id="Vector_4" d="M118.376 24.8711C117.701 25.9264 116.862 26.8754 115.89 27.6851C115.053 28.6258 114.072 29.437 112.982 30.0903C113.657 29.035 114.495 28.086 115.468 27.2763C116.305 26.3356 117.285 25.5244 118.376 24.8711Z" fill="black"/>
<path id="Vector_5" d="M130.627 37.8555C129.63 38.6618 128.539 39.3529 127.377 39.9149C126.374 40.6349 125.282 41.2317 124.127 41.6913C125.964 39.951 128.187 38.6391 130.627 37.8555Z" fill="black"/>
<path id="Vector_6" d="M137.874 57.1454C134.364 57.5227 130.822 57.5227 127.312 57.1454C130.821 56.7471 134.365 56.7471 137.874 57.1454Z" fill="black"/>
<path id="Vector_7" d="M64.5932 56.4538C61.2749 56.8517 57.9186 56.8517 54.6003 56.4538C57.9199 56.0766 61.2736 56.0766 64.5932 56.4538Z" fill="black"/>
<path id="Vector_8" d="M69.7767 70.8066C68.6525 72.0454 67.388 73.1581 66.007 74.1237C64.7371 75.2269 63.3416 76.1868 61.8474 76.9848C62.9706 75.7394 64.2413 74.6261 65.6333 73.6678C66.8979 72.5652 68.2879 71.6053 69.7767 70.8066Z" fill="black"/>
<path id="Vector_9" d="M82.5644 81.9055C81.8202 83.4009 80.962 84.8407 79.9971 86.213C79.1975 87.6815 78.285 89.0898 77.2673 90.4261C77.7611 88.8364 78.5066 87.3303 79.4771 85.9614C80.2872 84.4655 81.3282 83.0979 82.5644 81.9055Z" fill="black"/>
<path id="Vector_10" d="M97.3505 96.2264C97.0594 94.5389 96.9613 92.8255 97.058 91.1173C96.9604 89.409 97.0585 87.6955 97.3505 86.0081C97.6629 87.6932 97.7666 89.4084 97.6592 91.1173C97.7655 92.8261 97.6619 94.5412 97.3505 96.2264Z" fill="black"/>
<path id="Vector_11" d="M120.131 89.42C118.52 88.7016 117.048 87.7234 115.776 86.5274C114.378 85.5033 113.179 84.2471 112.234 82.8174C113.603 83.8685 114.915 84.9861 116.166 86.1659C117.55 87.1771 118.874 88.2635 120.131 89.42Z" fill="black"/>
<path id="Vector_12" d="M130.822 78.274C129.554 77.4211 128.398 76.4235 127.377 75.3028C126.202 74.3078 125.169 73.1659 124.306 71.9071C125.593 72.7598 126.767 73.763 127.8 74.894C128.959 75.8845 129.976 77.0214 130.822 78.274Z" fill="black"/>
<path id="Vector_13" d="M69.2893 42.7139C68.1425 41.9961 67.1036 41.1285 66.2021 40.1357C65.1581 39.2747 64.2591 38.2617 63.5374 37.1331C64.6869 37.8535 65.7261 38.7267 66.6246 39.727C67.6647 40.5856 68.5633 41.5929 69.2893 42.7139Z" fill="black"/>
<path id="Vector_14" d="M82.4828 29.2567C81.3463 28.5692 80.3222 27.7214 79.4444 26.7414C78.4278 25.8972 77.5462 24.9118 76.8284 23.8174C77.9649 24.5049 78.989 25.3526 79.8668 26.3327C80.8793 27.1809 81.7604 28.1656 82.4828 29.2567Z" fill="black"/>
<path id="Vector_15" d="M114.792 57.9461C115.376 58.0032 115.96 57.9067 116.528 57.6595C115.953 57.4756 115.369 57.4093 114.788 57.4616C113.665 57.3494 112.039 57.1504 110.04 57.1665C106.025 56.9868 100.498 56.7284 94.3729 56.7777L93.6005 56.784L93.6135 58.2984L93.6143 58.3856L94.3859 58.2922L110.049 58.1661C112.047 58.1197 113.671 57.9551 114.792 57.9461Z" fill="black"/>
</g>
<g id="Clock_2">
<path id="Vector_16" d="M59.9421 42.2261C70.4278 43.062 76.3788 51.5413 75.737 59.0781C75.0952 66.615 67.79 74.0375 57.3043 73.2017C46.8186 72.3658 40.8675 63.8865 41.5093 56.3497C42.1511 48.8129 49.4564 41.3903 59.9421 42.2261Z" fill="#5557FF" stroke="#5557FF" stroke-width="67"/>
<path id="Vector_17" d="M74.8614 17.1273C97.805 25.5419 109.298 50.3275 100.633 72.4424C91.9686 94.5574 66.382 105.744 43.4385 97.3298C20.495 88.9152 9.00241 64.1295 17.6669 42.0146C26.3314 19.8996 51.9179 8.71279 74.8614 17.1273Z" fill="white" stroke="#5557FF" stroke-width="3"/>
<path id="Vector_18" d="M59.6496 18.8496C59.9605 20.0725 60.0648 21.336 59.9583 22.5911C60.0643 23.8514 59.96 25.12 59.6496 26.3483C59.3593 25.117 59.2608 23.8506 59.3571 22.5911C59.2607 21.3368 59.3592 20.0756 59.6496 18.8496Z" fill="black"/>
<path id="Vector_19" d="M80.6764 24.871C80.0012 25.9263 79.1628 26.8753 78.1904 27.685C77.3536 28.6257 76.3727 29.4369 75.282 30.0902C75.9573 29.0349 76.7957 28.0859 77.768 27.2762C78.6048 26.3355 79.5857 25.5243 80.6764 24.871Z" fill="black"/>
<path id="Vector_20" d="M92.9262 37.8555C91.9293 38.6618 90.8387 39.3529 89.6765 39.9149C88.6734 40.6349 87.5819 41.2317 86.4268 41.6913C88.2635 39.951 90.4863 38.6391 92.9262 37.8555Z" fill="black"/>
<path id="Vector_21" d="M100.174 57.1454C96.6641 57.5227 93.122 57.5227 89.6123 57.1454C93.1208 56.7471 96.6654 56.7471 100.174 57.1454Z" fill="black"/>
<path id="Vector_22" d="M26.8932 56.4538C23.575 56.8517 20.2186 56.8517 16.9004 56.4538C20.2199 56.0766 23.5737 56.0766 26.8932 56.4538Z" fill="black"/>
<path id="Vector_23" d="M32.0772 70.8066C30.953 72.0454 29.6885 73.1581 28.3076 74.1237C27.0376 75.2269 25.6421 76.1868 24.1479 76.9848C25.2711 75.7394 26.5418 74.6261 27.9339 73.6678C29.1984 72.5652 30.5885 71.6053 32.0772 70.8066Z" fill="black"/>
<path id="Vector_24" d="M44.8644 81.9055C44.1202 83.4009 43.2621 84.8407 42.2971 86.213C41.4975 87.6815 40.5851 89.0898 39.5674 90.4261C40.0612 88.8364 40.8066 87.3303 41.7772 85.9614C42.5872 84.4655 43.6283 83.0979 44.8644 81.9055Z" fill="black"/>
<path id="Vector_25" d="M59.6503 96.2264C59.3592 94.5389 59.2611 92.8255 59.3578 91.1173C59.2602 89.409 59.3583 87.6955 59.6503 86.0081C59.9627 87.6932 60.0664 89.4084 59.959 91.1173C60.0653 92.8261 59.9617 94.5412 59.6503 96.2264Z" fill="black"/>
<path id="Vector_26" d="M82.431 89.42C80.8205 88.7016 79.348 87.7234 78.0763 86.5274C76.678 85.5033 75.4787 84.2471 74.5342 82.8174C75.9026 83.8685 77.215 84.9861 78.4663 86.1659C79.8505 87.1771 81.1742 88.2635 82.431 89.42Z" fill="black"/>
<path id="Vector_27" d="M93.1219 78.274C91.8544 77.4211 90.6978 76.4235 89.6772 75.3028C88.5022 74.3078 87.4695 73.1659 86.6062 71.9071C87.8933 72.7598 89.0667 73.763 90.0997 74.894C91.2591 75.8845 92.2756 77.0214 93.1219 78.274Z" fill="black"/>
<path id="Vector_28" d="M31.5894 42.7139C30.4425 41.9961 29.4036 41.1285 28.5022 40.1357C27.4582 39.2747 26.5591 38.2617 25.8374 37.1331C26.9869 37.8535 28.0262 38.7267 28.9246 39.727C29.9648 40.5856 30.8633 41.5929 31.5894 42.7139Z" fill="black"/>
<path id="Vector_29" d="M44.7824 29.2567C43.6459 28.5692 42.6218 27.7214 41.7439 26.7414C40.7273 25.8972 39.8457 24.9118 39.1279 23.8174C40.2645 24.5049 41.2886 25.3526 42.1664 26.3327C43.1789 27.1809 44.0599 28.1656 44.7824 29.2567Z" fill="black"/>
<path id="Vector_30" d="M60.1724 35.6255C60.2055 35.0609 60.1563 34.4946 60.0262 33.9434C59.925 34.4984 59.8869 35.0624 59.9125 35.6255C59.8475 36.7102 59.7337 38.2822 59.7337 40.2159C59.62 44.0989 59.4575 49.4439 59.4575 55.3705V56.1178H60.2699H60.3167L60.2699 55.3705V40.2159C60.2537 38.2822 60.1724 36.7102 60.1724 35.6255Z" fill="black"/>
</g>
</g>
</svg>
