<svg width="122" height="305" viewBox="0 0 122 305" fill="none" xmlns="http://www.w3.org/2000/svg">
<mask id="mask0_421_398" style="mask-type:alpha" maskUnits="userSpaceOnUse" x="0" y="0" width="122" height="305">
<rect width="122" height="305" fill="#D9D9D9"/>
</mask>
<g mask="url(#mask0_421_398)">
<path fill-rule="evenodd" clip-rule="evenodd" d="M34.6829 133.557C39.933 136.783 47.0659 143.705 46.6747 145.415C46.0638 148.084 39.905 155.97 39.7045 161.927C39.619 164.467 43.533 166.382 44.6565 167.84C48.4158 172.72 60.809 184.863 60.9912 191.693C61.0642 194.429 54.3932 224.226 51.1474 239.514C50.7815 241.237 50.5342 242.881 50.3861 244.448L51.1271 243.574C57.0876 236.527 60.5262 232.168 61.4429 230.497C62.8752 227.885 66.8362 215.725 70.4554 214.065C74.0384 212.422 80.2506 212.879 82.5105 214.06L82.5778 214.096C84.0454 214.9 85.5706 215.14 87.1533 214.814L89.1724 214.886C99.4389 215.26 105.358 215.623 106.929 215.975C109.437 216.536 112.389 219.89 109.449 220.882C107.489 221.543 103.109 222.212 96.308 222.888L93.6316 223.348L93.7923 223.589C95.5052 226.178 96.3359 228.023 96.2843 229.122C96.2311 230.256 95.4417 231.198 93.9161 231.948L93.9765 232.146C94.4762 233.803 94.6265 234.813 94.4274 235.176L93.4546 236.95C93.6662 239.119 93.2136 240.582 92.0969 241.341C90.9802 242.1 89.6253 242.545 88.0321 242.676C85.9269 244.471 84.0157 245.522 82.2985 245.829C80.5813 246.136 78.0853 245.807 74.8105 244.841L68.6918 249.72L61.6693 257.437L55.1456 266.769L55.3348 267.168C56.2078 269.025 56.7085 270.322 56.2633 271.133C55.5698 272.398 33.3915 298.917 23.5324 295.241C21.4002 294.446 11.9354 287.418 10.0741 282.838L9.96163 283.161C8.13116 288.375 6.60242 290.765 5.37546 290.332C-9.70371 285.013 -49.3796 264.163 -113.652 227.783C-95.1816 193.194 -80.8819 171.254 -70.7533 161.963C-44.8487 138.202 -28.4708 134.217 -24.1857 135.456C-20.4321 136.542 -6.30662 138.285 -2.39377 138.837C0.1604 139.198 1.92879 137.049 4.33954 138.371L4.53387 138.479C6.85245 139.781 8.69113 141.332 10.5106 140.77C15.2854 139.294 16.8231 134.469 20.376 130.991C22.3336 129.074 28.2402 129.598 34.6829 133.557Z" fill="white"/>
<path fill-rule="evenodd" clip-rule="evenodd" d="M15.3366 133.668C15.9977 133.213 16.7939 133.756 17.1924 134.345C18.1889 136.475 15.1542 137.878 13.8793 139.111C11.1155 141.342 7.51501 143.029 3.93771 142.818C2.60246 145.811 1.30196 148.814 -0.175064 151.74C0.984306 158.235 6.20228 163.235 10.9413 167.479C18.1787 174.519 30.4605 174.964 37.9676 168.107C35.712 164.446 37.3267 158.987 40.171 156.12C40.3871 155.928 40.8155 156.026 40.8009 156.365C40.6855 158.703 39.3302 160.891 39.3499 163.275C48.6285 169.584 59.2396 180.212 61.3098 191.654C61.9789 197.177 60.2776 202.95 59.1584 208.312C56.9517 219.421 54.0328 230.389 51.7632 241.477L53.0926 239.872C56.7495 235.45 60.3566 230.914 62.4735 225.538L62.5939 225.291C64.5782 221.178 67.4027 213.061 71.9832 212.062C75.9627 211.457 80.9692 211.962 83.9458 214.88C91.7362 215.527 99.7151 213.797 107.386 215.627C109.671 216.33 112.349 218.45 110.336 220.969C106.32 225.103 99.6523 223.906 94.4256 224.307C96.526 226.329 97.8874 230.98 94.5243 232.54C94.4822 232.577 94.4481 232.604 94.418 232.624C95.6011 234.174 94.8647 236.036 93.6618 237.319C93.4065 237.693 93.4887 237.297 93.5243 237.782C94.3754 240.413 91.0515 244.624 88.3085 243.324C87.2769 245.617 84.6947 246.978 82.2496 247.196C79.6145 247.431 76.7983 245.959 74.2336 246.852C66.8656 251.403 61.2964 258.493 56.7391 265.834C58.7008 268.112 59.3995 272.091 55.8705 273.206C55.8233 273.187 55.7762 273.168 55.7294 273.147C52.5254 275.905 49.994 279.33 47.3182 282.578C42.8678 288.183 36.996 292.35 30.6495 295.572C22.8375 300.159 12.4833 293.074 9.38264 285.647C8.77127 286.814 0.35218 299.087 -0.629608 300C-1.83585 300.905 -2.60307 297 5 287.5C1.185 287.541 4.08526 281.627 6.85513 284.263C8.75249 280.212 10.7577 276.214 12.7908 272.229C8.47011 271.404 11.6519 265.228 14.7371 268.504L15.656 266.818C22.7087 253.894 29.9558 241.019 38.6832 229.146C39.3661 228.275 40.141 227.494 40.819 226.627C40.8897 226.538 41.0281 226.65 40.9769 226.745C31.406 244.82 20.3791 262.146 11.7634 280.753C12.6107 281.621 12.3758 283.012 12.7559 284.105C13.5811 286.567 15.4462 288.569 17.5298 290.052C23.2868 294.348 27.0247 293.92 32.7766 290.02C31.0646 290.17 30.183 287.763 31.6735 286.856L31.7194 286.829C33.2827 285.86 35.0603 287.93 33.9141 289.347C39.1601 286.405 43.3883 282.162 47.2747 277.636L47.7561 277.105C49.4726 275.22 51.5191 273.104 53.8574 271.829C47.248 265.655 43.0054 255.564 46.2947 246.715C40.9807 251.777 35.0503 256.321 29.2604 260.903C27.3451 262.55 25.7983 264.601 23.6281 265.913C23.1248 266.215 22.5303 265.74 22.6408 265.19C24.0982 260.155 29.4773 257.555 33.2698 254.383C35.8099 252.807 45.2241 244.415 47.531 245.647C51.151 232.936 53.8646 219.838 56.7112 206.886C61.8094 190.085 56.9535 183.642 45.8926 171.405C41.4663 185.32 46.0475 203.652 32.8332 213.545L32.5001 213.807C31.0909 214.924 29.7793 216.109 29.3322 217.938C28.8984 219.713 29.1062 221.575 29.0989 223.381C29.0121 233.559 21.0686 241.144 14.945 248.435C7.61595 256.903 0.30703 265.394 -7.08346 273.81C-8.55274 275.491 -9.90572 277.312 -11.5573 278.817C-12.4096 279.593 -13.9954 278.605 -13.2778 277.548C-11.8889 275.494 -10.1237 273.716 -8.51299 271.835C1.69052 259.531 12.7429 247.903 22.6086 235.335C29.6901 225.91 24.7658 221.164 28.6076 214.672C31.2485 211.723 34.9852 209.847 36.8419 206.179C43.3537 195.404 40.3139 181.901 45.2057 170.631L43.7978 169.046C43.0948 168.253 42.3941 167.457 41.7003 166.656C28.6898 201.253 9.31696 233.271 -10.6582 264.254C-11.9424 265.484 -17.1967 276.121 -18.6541 274.121C-19.0718 274.648 -19.6933 275.05 -20.3623 274.679C-26.4815 271.395 -32.6249 268.151 -38.7534 264.884C-41.534 263.008 -46.173 261.918 -47.7369 258.862C-50.1627 256.463 -46.2195 248.49 -45.4651 245.29L-44.657 243.106C-31.4416 207.421 -17.3391 171.336 4.45574 139.931C-0.53492 137.438 -4.43803 142.162 -6.90789 145.805C-12.4655 153.788 -21.9481 158.087 -26.9153 166.521C-28.0789 168.589 -28.7919 170.821 -29.0084 173.188C-29.3698 179.079 -28.5227 186.583 -34.242 190.248C-39.8469 192.468 -40.1426 193.699 -41.6638 199.408C-47.3021 217.946 -50.2875 237.103 -53.5803 256.152C-58.1932 261.727 -52.6937 234.652 -52.4133 232.536C-56.4734 232.392 -55.2981 226.126 -51.4407 227.75C-49.4794 218.614 -47.2991 209.522 -44.7097 200.541L-44.6337 200.289C-43.4009 196.16 -42.5889 190.978 -38.156 189.147C-27.5899 185.999 -34.6603 172.125 -28.6689 164.578C-30.3982 164.815 -31.7328 162.836 -30.8649 161.32C-29.975 159.565 -27.1755 159.951 -26.783 161.878C-21.9316 155.749 -14.7114 152.036 -9.81039 145.961L-9.58237 145.674C-7.86781 143.517 -6.37845 141.075 -4.01916 139.546C-6.17764 139.707 -8.33074 139.613 -10.4783 139.395C-8.79005 143.708 -16.1288 142.775 -13.423 139.026C-33.2273 134.598 -40.8739 139.378 -55.8381 151.778C-54.0411 151.282 -52.8418 153.857 -54.3404 154.925C-55.7397 156.149 -57.9362 154.362 -57.0404 152.731L-57.7006 153.257C-66.4982 160.272 -75.0752 167.695 -82.1585 176.482C-78.4797 177.872 -82.343 182.854 -84.5923 179.618C-90.5853 187.6 -95.4238 196.375 -100.062 205.192C-96.3536 205.26 -99.0824 210.441 -101.218 207.366C-105.036 214.581 -108.804 221.824 -112.611 229.046C-113.422 230.582 -115.767 229.287 -114.972 227.75C-109.215 216.604 -103.673 205.313 -97.4024 194.444C-87.1546 175.23 -71.5757 159.838 -54.0212 147.219C-35.9878 131.495 -24.7687 134.735 -3.24714 139.092C-0.168427 137.503 4.76368 137.108 6.85354 140.312C9.97385 138.548 12.5506 135.843 15.3366 133.668ZM-53.7987 185.024C-53.597 184.819 -53.2841 185.07 -53.4042 185.315C-54.9447 188.489 -56.7872 191.523 -58.6999 194.509C-59.8666 196.333 -61.0615 198.138 -62.2266 199.946C-65.3022 204.715 -68.3124 209.526 -71.2561 214.379C-71.1628 214.389 -71.0697 214.404 -70.9761 214.427C-70.5459 214.53 -70.1716 214.735 -69.8536 215.042C-69.571 215.319 -69.3687 215.642 -69.2465 216.015L-69.2215 216.095C-69.1205 216.399 -69.0982 216.705 -69.1563 217.013C-69.1624 217.312 -69.2373 217.595 -69.3832 217.86L-69.4212 217.926C-69.6321 218.307 -69.9207 218.609 -70.2944 218.833C-70.6553 219.048 -71.0454 219.162 -71.4657 219.177C-71.9002 219.187 -72.3061 219.087 -72.6884 218.88C-72.7313 218.861 -72.7742 218.843 -72.8158 218.822C-73.1055 218.678 -73.3377 218.473 -73.5122 218.211L-73.543 218.18C-75.0189 220.651 -76.4792 223.133 -77.919 225.627C-79.1755 227.799 -80.4486 229.962 -81.6994 232.137L-82.3236 233.226L-83.6976 235.635C-84.2593 236.628 -84.7781 237.589 -85.6352 238.346L-85.7356 238.433C-86.3255 238.928 -86.997 239.7 -87.8433 239.692C-88.5189 239.685 -89.166 239.195 -89.1671 238.486C-89.1691 237.892 -88.5908 237.356 -88.0496 237.252C-88.0459 237.228 -88.0469 237.203 -88.045 237.178C-88.0108 236.979 -88.0118 236.774 -87.971 236.577C-87.8414 235.954 -87.4848 235.41 -87.1826 234.854C-86.6461 233.876 -86.0763 232.916 -85.5144 231.954C-84.3166 229.906 -83.1107 227.865 -81.89 225.833C-77.7926 219.015 -73.4521 212.331 -69.047 205.708L-67.5591 203.473C-65.58 200.501 -63.5896 197.531 -61.4945 194.644C-61.3949 194.506 -61.2948 194.368 -61.1931 194.231C-61.3464 194.01 -61.4624 193.756 -61.5288 193.507C-61.7932 192.509 -61.6343 191.322 -61.5261 190.283L-61.5023 190.046C-61.3936 188.934 -61.2492 187.827 -60.902 186.759L-60.8707 186.66C-60.7285 186.203 -60.4931 185.382 -59.947 185.422C-59.6622 185.443 -59.5586 185.596 -59.6093 185.865C-59.6161 185.9 -59.6422 185.929 -59.6729 185.946C-59.6446 186.32 -59.5044 186.733 -59.4668 187.086L-59.3357 188.29L-59.2748 188.893C-59.2012 189.664 -59.0885 190.425 -58.9587 191.185C-57.3507 189.04 -55.6734 186.944 -53.7987 185.024ZM-57.2876 250.579C-56.1989 250.4 -55.1375 251.404 -55.7413 252.505C-56.348 253.611 -57.764 253.249 -58.1961 252.236L-58.2186 252.187L-58.2387 252.137C-58.475 251.587 -58.0273 250.738 -57.4387 250.605L-57.3932 250.596C-57.358 250.588 -57.3237 250.583 -57.2876 250.579ZM-89.2728 230.238L-89.2081 230.275C-88.8636 230.464 -88.5909 230.727 -88.3883 231.065C-88.3125 231.234 -88.2395 231.404 -88.1648 231.575C-88.0577 231.942 -88.0493 232.314 -88.1364 232.688L-88.346 233.233C-88.4813 233.501 -88.6692 233.716 -88.9147 233.878C-89.1225 234.073 -89.3668 234.206 -89.6467 234.277C-89.9234 234.369 -90.1994 234.388 -90.4779 234.334C-90.7474 234.33 -91.0011 234.264 -91.2394 234.133L-91.304 234.096C-91.6502 233.906 -91.9231 233.643 -92.1256 233.305C-92.2015 233.136 -92.2744 232.966 -92.3492 232.795C-92.4544 232.428 -92.4647 232.056 -92.3774 231.682C-92.3073 231.501 -92.2358 231.319 -92.1676 231.137C-92.0324 230.869 -91.8429 230.655 -91.5993 230.492C-91.3914 230.297 -91.1471 230.164 -90.8674 230.093C-90.5904 230.001 -90.3146 229.981 -90.0358 230.035C-89.7665 230.04 -89.5114 230.107 -89.2728 230.238ZM-0.629608 274.274L-0.179779 274.605C0.227226 274.966 0.413185 275.514 0.448799 276.042C0.467506 276.324 0.415565 276.59 0.293533 276.839C0.215309 277.109 0.0708618 277.346 -0.138229 277.547C-0.323792 277.753 -0.54673 277.901 -0.804726 277.989C-0.907883 278.046 -1.0166 278.09 -1.12914 278.119C-1.42046 278.29 -1.74133 278.331 -2.07223 278.371C-2.34222 278.389 -2.59674 278.339 -2.83624 278.222C-3.01234 278.179 -3.16794 278.093 -3.30118 277.967C-3.52663 277.829 -3.70574 277.642 -3.83566 277.404C-3.90423 277.248 -3.97196 277.091 -4.03904 276.936C-4.07652 276.758 -4.10493 276.581 -4.12455 276.402C-4.10723 276.226 -4.08936 276.052 -4.0712 275.879C-3.99467 275.48 -3.77641 275.209 -3.53094 274.903C-3.49036 274.85 -3.4469 274.806 -3.39593 274.762L-3.29691 274.676C-3.03587 274.453 -2.92651 274.389 -2.60307 274.247L-2.47815 274.19C-2.41579 274.162 -2.35308 274.135 -2.28773 274.116C-2.10229 274.059 -1.87754 274.05 -1.68652 274.017C-1.31081 274.009 -0.958595 274.096 -0.629608 274.274ZM-62.8684 238.593L-62.8071 238.628C-62.5395 238.777 -62.324 238.982 -62.165 239.245L-61.9903 239.647C-61.9077 239.936 -61.8997 240.224 -61.9669 240.518C-62.0232 240.661 -62.0778 240.804 -62.1316 240.946C-62.237 241.156 -62.385 241.325 -62.5784 241.453C-62.7391 241.606 -62.9303 241.708 -63.152 241.765C-63.3663 241.836 -63.5846 241.851 -63.8033 241.811C-64.0112 241.806 -64.2095 241.755 -64.3944 241.654L-64.4495 241.622C-64.72 241.474 -64.9343 241.267 -65.0934 241.004L-65.2692 240.604C-65.3518 240.315 -65.3587 240.025 -65.2916 239.731C-65.2351 239.589 -65.1815 239.447 -65.1269 239.303C-65.0214 239.093 -64.8732 238.924 -64.6811 238.798C-64.5183 238.646 -64.328 238.541 -64.1075 238.486C-63.892 238.414 -63.6739 238.398 -63.4562 238.441C-63.2478 238.444 -63.0535 238.495 -62.8684 238.593ZM-74.7572 231.276C-74.3682 231.484 -74.0353 231.809 -73.8415 232.207C-73.6538 232.594 -73.5498 232.957 -73.5937 233.394C-73.6059 233.513 -73.6171 233.629 -73.6346 233.745C-73.708 234.257 -73.9121 234.699 -74.3602 234.993C-74.7938 235.279 -75.3497 235.203 -75.8271 235.097C-76.2322 235.01 -76.6359 234.811 -76.9142 234.496C-77.0529 234.341 -77.1859 234.184 -77.2897 234.004C-77.4819 233.664 -77.5224 233.365 -77.5725 232.995C-77.5822 232.652 -77.5036 232.329 -77.339 232.029C-77.1733 231.727 -76.9439 231.489 -76.6487 231.311C-76.0712 230.965 -75.3483 230.956 -74.7572 231.276ZM-94.5883 220.864C-94.0991 221.132 -93.7935 221.594 -93.7081 222.137C-93.6226 222.688 -93.7776 223.23 -94.1724 223.638C-94.5897 224.069 -95.254 224.283 -95.8448 224.125C-96.2817 224.009 -96.5948 223.832 -96.9425 223.557C-97.2363 223.324 -97.3785 222.995 -97.5172 222.658C-97.6735 222.271 -97.5289 221.801 -97.2956 221.486C-97.0642 221.169 -96.7846 221.033 -96.4347 220.962L-96.4301 220.958L-96.5566 220.977C-96.5068 220.966 -96.4564 220.953 -96.4056 220.94C-96.3845 220.927 -96.3641 220.912 -96.3436 220.897C-96.0785 220.738 -95.7926 220.656 -95.4859 220.646C-95.166 220.639 -94.868 220.71 -94.5883 220.864ZM22.5188 277.793C22.8271 277.869 23.0975 278.017 23.3264 278.236C23.4994 278.392 23.6217 278.577 23.6941 278.792C23.7895 278.97 23.8428 279.161 23.8502 279.364L23.8509 279.433C23.8651 279.908 23.6727 280.338 23.3624 280.688C22.9782 281.121 22.2755 281.322 21.7186 281.168L21.7004 281.162L21.6813 281.157C21.4467 281.111 21.2395 281.009 21.0651 280.853C20.8681 280.733 20.7135 280.571 20.6024 280.365C20.4611 280.105 20.3773 279.822 20.3565 279.527C20.3407 279.291 20.3842 279.072 20.4857 278.864C20.5237 278.712 20.5969 278.579 20.7051 278.464C20.8254 278.267 20.9872 278.113 21.194 278L21.5987 277.824L21.634 277.817C21.9267 277.731 22.2218 277.724 22.5188 277.793ZM9.24817 257.758C11.6766 259.09 9.60558 262.857 7.18086 261.527C4.75262 260.195 6.82346 256.428 9.24817 257.758ZM-79.3997 208.517C-79.1124 208.6 -78.8629 208.751 -78.6528 208.97C-78.5346 209.119 -78.4183 209.267 -78.3009 209.413L-78.0767 209.927C-78.0379 210.028 -78.0393 210.114 -78.0204 210.238L-77.9969 210.392C-77.9649 210.62 -77.9807 210.656 -78.0372 211.072C-78.1292 211.451 -78.31 211.78 -78.58 212.062C-78.7101 212.198 -78.8571 212.312 -79.0167 212.405C-79.166 212.497 -79.3214 212.564 -79.4832 212.616L-79.5646 212.64C-79.8414 212.732 -80.1191 212.751 -80.3989 212.698C-80.5968 212.703 -80.7813 212.657 -80.9535 212.563C-81.2407 212.48 -81.4904 212.329 -81.7002 212.11C-81.8184 211.961 -81.9348 211.813 -82.0523 211.666L-82.2764 211.153L-82.3631 210.599L-82.3336 210.318L-82.3047 210.036L-82.0937 209.488C-81.9576 209.218 -81.7697 209.003 -81.5235 208.839C-81.3887 208.703 -81.2288 208.606 -81.0453 208.552C-80.8807 208.454 -80.7031 208.402 -80.5116 208.396C-80.3281 208.342 -80.1407 208.339 -79.9541 208.382C-79.7563 208.377 -79.5718 208.423 -79.3997 208.517ZM42.187 271.702C42.3931 271.806 42.5587 271.952 42.682 272.14C42.7319 272.194 42.7772 272.253 42.8181 272.314C42.9701 272.568 43.0504 272.844 43.0598 273.138C43.0738 273.368 43.0324 273.584 42.933 273.787C42.8753 273.988 42.7729 274.166 42.6262 274.318L42.5809 274.363C42.4599 274.487 42.3247 274.589 42.1752 274.668C42.1593 274.679 42.1421 274.688 42.1239 274.695C41.892 274.824 41.6388 274.895 41.3689 274.903C41.0718 274.909 40.7926 274.843 40.5284 274.7C40.0042 274.413 39.7077 273.881 39.6707 273.294C39.6653 273.212 39.6858 273.122 39.6927 273.044C39.701 272.971 39.7037 272.874 39.7207 272.794C39.7948 272.493 39.9392 272.229 40.1537 272.005C40.3058 271.837 40.4854 271.717 40.6953 271.646C40.8891 271.543 41.0981 271.491 41.3214 271.493C41.6036 271.485 41.8697 271.545 42.1195 271.667L42.187 271.702ZM-59.3328 213.622C-59.0379 213.693 -58.7798 213.827 -58.5576 214.026L-58.5028 214.078C-58.3256 214.237 -58.2003 214.427 -58.1238 214.647C-58.0162 214.851 -57.9611 215.071 -57.9626 215.306C-57.9549 215.627 -58.0288 215.928 -58.1815 216.211C-58.3378 216.492 -58.5525 216.716 -58.8265 216.882C-59.0946 217.041 -59.3834 217.124 -59.6947 217.134L-59.9523 217.12C-60.1816 217.134 -60.3947 217.092 -60.5962 216.993C-60.7469 216.957 -60.8786 216.884 -60.9887 216.778C-61.1223 216.705 -61.2282 216.603 -61.3062 216.474C-61.4129 216.37 -61.4859 216.247 -61.5277 216.104C-61.6319 215.912 -61.6826 215.706 -61.6807 215.483L-61.6366 215.046L-61.4729 214.625L-61.2068 214.262L-61.0194 214.115C-60.8001 213.89 -60.5406 213.734 -60.2396 213.646C-59.9393 213.559 -59.6364 213.552 -59.3328 213.622ZM34.2435 260.881C34.5605 260.944 34.8355 261.08 35.0715 261.287C35.2528 261.386 35.3978 261.526 35.5046 261.705C35.6506 261.847 35.7518 262.014 35.8088 262.209C35.9509 262.473 36.0196 262.756 36.0184 263.062L35.9566 263.657C35.9072 264.037 35.6095 264.474 35.3628 264.749C35.1595 264.975 34.9168 265.136 34.6353 265.232C34.464 265.333 34.2803 265.387 34.0813 265.393C33.8242 265.455 33.5655 265.458 33.3049 265.401L33.2338 265.384L33.2085 265.377C33.2036 265.377 33.2001 265.375 33.1964 265.373C33.1934 265.374 33.1895 265.372 33.1877 265.371C33.0869 265.344 32.989 265.307 32.8925 265.259C32.5913 265.171 32.3286 265.013 32.1051 264.78C31.9825 264.625 31.8589 264.468 31.7353 264.312C31.6551 264.133 31.5777 263.952 31.4988 263.772C31.4683 263.577 31.438 263.382 31.4065 263.189C31.3852 262.876 31.444 262.58 31.5803 262.305C31.6305 262.099 31.728 261.921 31.8751 261.768C31.9756 261.584 32.1144 261.441 32.2915 261.333C32.5113 261.126 32.7691 260.986 33.0679 260.911C33.2629 260.88 33.4562 260.849 33.6502 260.82C33.849 260.84 34.0476 260.86 34.2435 260.881ZM-80.2605 189.447C-79.9393 189.525 -79.6594 189.678 -79.4214 189.908L-79.1319 190.271C-79.0016 190.473 -78.9291 190.688 -78.9126 190.922C-78.8551 191.151 -78.8595 191.383 -78.9242 191.615C-78.9692 191.956 -79.2271 192.396 -79.4717 192.635C-79.7487 192.908 -80.0429 193.084 -80.4123 193.199C-81.0247 193.389 -81.6891 193.176 -82.1535 192.763C-82.2817 192.649 -82.3851 192.508 -82.4673 192.359C-82.7329 191.89 -82.7655 191.308 -82.5004 190.83C-82.472 190.778 -82.4398 190.728 -82.404 190.68C-82.3719 190.56 -82.3214 190.446 -82.2544 190.333L-81.9692 189.945L-81.9596 189.935C-81.7399 189.711 -81.4806 189.554 -81.1796 189.466C-80.9023 189.387 -80.622 189.373 -80.3402 189.427L-80.2697 189.442L-80.2605 189.447ZM82.3383 224.502C84.1086 220.074 84.6551 214.565 77.5155 213.819L76.9959 213.745C75.2618 213.501 73.1967 213.298 71.6339 214.074C70.5573 214.61 69.841 216.398 69.2039 217.363C67.0245 220.439 65.429 223.829 64.0298 227.315C60.335 235.258 54.3689 242.315 47.3414 247.522C47.7016 254.477 49.3393 261.679 54.0112 267.058C57.4987 261.287 61.835 256.123 66.2267 251.034L66.4129 250.81C68.3304 248.48 70.0398 245.948 72.9317 244.722C78.4702 242.856 82.0738 247.608 87.6795 242.805C87.3329 242.299 88.0531 241.615 88.5437 242.091C90.352 243.546 92.7152 240.009 91.8351 238.362C90.8844 236.706 93.2045 235.888 93.2328 234.394C93.1682 233.708 92.4456 233.29 92.4301 232.531C92.7146 229.927 97.86 230.981 93.9979 225.751C93.1455 224.794 91.8337 224.378 90.768 223.788C89.1163 223.073 87.2603 223.496 85.6323 223.056C84.9741 227.967 78.8862 229.704 77.0985 224.513C74.1542 225.283 69.6939 228.272 75.4754 228.909C78.6268 228.634 81.7046 227.733 84.9026 228.253L84.9688 228.266C86.1415 228.486 91.6509 228.757 90.4316 230.469C87.9395 231.148 85.2625 229.656 82.6751 229.898C79.3952 229.673 76.1138 231.688 73.0043 229.93C69.8768 233.92 76.3153 233.98 78.8312 233.787L79.4978 233.79C82.8853 233.811 86.2553 233.957 89.3122 235.611C90.1562 236.067 89.441 237.362 88.5977 236.914C84.6126 234.76 80.0182 235.471 75.6787 235.493C73.9471 237.873 78.3093 238.808 79.9385 239.21C81.5444 239.818 84.8238 239.518 85.6613 241.086C85.4521 242.678 83.2597 241.348 82.2595 241.317C84.8886 244.991 81.1685 244.355 81.6572 241.194L81.3244 241.136C78.4932 240.629 71.7894 239.104 74.7006 235.431C73.6133 235.339 72.4195 234.985 71.5706 234.24C67.2033 236.485 64.1147 232.995 71.038 233.63C70.0999 232.353 70.9204 229.859 72.5923 229.68C68.3398 226.998 74.1393 224.172 76.8044 223.632C76.7279 223.364 76.6586 223.095 76.6019 222.83C75.2773 222.755 74.0069 222.453 72.7676 221.913C71.582 221.395 72.3852 219.334 73.5865 219.788C74.8738 220.275 76.1491 220.56 77.5304 220.536C79.5027 220.722 78.4236 223.98 79.9619 224.96C80.7377 225.61 81.7453 225.169 82.3383 224.502ZM24.3488 242.374C24.7341 242.585 24.9881 242.934 25.1277 243.343C25.2671 243.753 25.177 244.202 24.9925 244.578C24.8922 244.779 24.7508 244.94 24.5684 245.062C24.4144 245.206 24.2329 245.304 24.0228 245.358C23.6223 245.473 23.1513 245.422 22.7866 245.222C22.4013 245.011 22.1471 244.662 22.0074 244.253C21.8693 243.841 21.958 243.394 22.1436 243.016C22.2429 242.817 22.3845 242.656 22.5667 242.534C22.7053 242.404 22.867 242.31 23.0504 242.255L23.1123 242.238C23.5141 242.121 23.9837 242.174 24.3488 242.374ZM40.8437 239.989L40.9048 240.024C41.2297 240.205 41.4872 240.452 41.6792 240.769C41.7496 240.931 41.821 241.09 41.8897 241.251C41.9897 241.6 41.9981 241.949 41.9157 242.302C41.828 242.668 41.6521 242.989 41.3904 243.26C41.26 243.427 41.0939 243.567 40.9021 243.662C40.5974 243.84 40.2694 243.937 39.9162 243.948C39.5517 243.958 39.2098 243.874 38.8884 243.7C38.5691 243.523 38.3143 243.279 38.1268 242.967C37.9464 242.663 37.8522 242.334 37.84 241.983C37.815 241.769 37.8441 241.554 37.9152 241.354C38.0028 240.987 38.1787 240.667 38.4405 240.396C38.6755 240.155 38.9501 239.982 39.2668 239.876L39.3407 239.853C39.6002 239.766 39.861 239.748 40.1248 239.798C40.3785 239.803 40.6182 239.866 40.8437 239.989ZM-48.3081 191.22C-48.1505 191.258 -48.0153 191.332 -47.8986 191.444C-47.6999 191.565 -47.5428 191.731 -47.4277 191.939C-47.3686 192.077 -47.3087 192.214 -47.2487 192.351L-47.2178 192.509C-47.1537 192.85 -47.1709 192.893 -47.2193 193.333C-47.2677 193.567 -47.3682 193.772 -47.5225 193.948C-47.5967 194.083 -47.701 194.19 -47.8319 194.27C-47.9389 194.378 -48.0628 194.454 -48.2081 194.495C-48.3369 194.571 -48.4754 194.614 -48.6253 194.618C-48.8417 194.671 -49.062 194.668 -49.2837 194.607L-49.7115 194.442C-49.7592 194.406 -49.8089 194.369 -49.8577 194.335C-49.9192 194.299 -49.976 194.259 -50.0292 194.215L-50.0822 194.169L-50.1289 194.124C-50.1898 194.063 -50.245 193.996 -50.2939 193.923C-50.4033 193.814 -50.4807 193.688 -50.5243 193.538C-50.6319 193.339 -50.6859 193.122 -50.6837 192.889L-50.6772 192.816C-50.6777 192.733 -50.6719 192.652 -50.6557 192.57C-50.6575 192.424 -50.6239 192.288 -50.5556 192.159C-50.4992 191.969 -50.4042 191.802 -50.2677 191.657L-50.2206 191.61L-49.892 191.349C-49.755 191.275 -49.6131 191.201 -49.4614 191.161C-49.3719 191.141 -49.1619 191.106 -49.0475 191.094L-48.9783 191.089C-48.7411 191.074 -48.5168 191.117 -48.3081 191.22ZM-69.1865 176.321C-68.3435 175.417 -66.7834 175.841 -66.4448 177.003C-66.1066 178.165 -67.194 179.362 -68.3905 179.053L-68.5273 179.016C-69.6837 178.717 -70.0956 177.298 -69.2813 176.424L-69.1865 176.321ZM62.6537 237.485C62.7033 237.377 62.8568 237.413 62.89 237.511C63.3437 238.801 63.3859 240.073 64.1292 241.288C64.8769 242.508 66.0268 243.073 66.9417 244.098C67.2518 244.447 66.971 244.963 66.5098 244.886C63.9493 244.458 61.5717 239.844 62.6537 237.485ZM-38.219 181.946C-37.9393 182.003 -37.6924 182.124 -37.4829 182.309C-37.3199 182.398 -37.1905 182.522 -37.0962 182.679C-36.966 182.807 -36.8769 182.957 -36.825 183.13C-36.7334 183.284 -36.6859 183.452 -36.6787 183.632C-36.6149 183.893 -36.6192 184.156 -36.6919 184.42L-36.8922 184.935L-37.2184 185.38C-37.3577 185.489 -37.4982 185.6 -37.6357 185.71L-37.9243 185.844C-38.1566 185.949 -38.1791 185.939 -38.6369 186.002C-38.9162 186.02 -39.1801 185.97 -39.4241 185.848C-39.608 185.805 -39.7673 185.717 -39.9039 185.585C-40.0651 185.496 -40.1948 185.372 -40.2907 185.214C-40.4194 185.087 -40.5099 184.937 -40.562 184.763C-40.6881 184.528 -40.7493 184.275 -40.7477 184.003C-40.7305 183.827 -40.7121 183.649 -40.6932 183.474L-40.495 182.958L-40.1667 182.514L-40.1551 182.501C-39.9052 182.248 -39.6098 182.07 -39.2704 181.969L-38.7584 181.888C-38.5681 181.875 -38.3963 181.909 -38.219 181.946ZM48.0533 229.732C48.6435 229.872 49.1255 230.33 49.2949 230.912C49.4648 231.495 49.3051 232.137 48.8827 232.574C48.4694 232.998 47.8449 233.183 47.2686 233.043C47.0963 233.001 46.9322 232.94 46.7825 232.849C46.5258 232.705 46.3209 232.508 46.1678 232.256L46.0019 231.873C45.932 231.666 45.9184 231.459 45.9583 231.249C45.9611 231.029 46.021 230.823 46.1371 230.629L46.1548 230.593C46.1876 230.519 46.2356 230.454 46.2955 230.398C46.3353 230.325 46.385 230.261 46.4411 230.202C46.8507 229.776 47.4799 229.596 48.0533 229.732ZM-59.8092 164.044C-59.6412 164.129 -59.5058 164.246 -59.4048 164.401C-59.2812 164.531 -59.1981 164.683 -59.1557 164.86C-59.0961 165.033 -59.0857 165.207 -59.1189 165.382C-59.1213 165.566 -59.1723 165.738 -59.2682 165.9C-59.3872 166.117 -59.5535 166.288 -59.7626 166.415C-59.8704 166.462 -59.978 166.509 -60.0847 166.554C-60.3152 166.623 -60.5471 166.628 -60.7823 166.574L-60.9232 166.55C-61.1319 166.517 -61.3044 166.427 -61.4728 166.304C-61.6492 166.173 -61.7969 166.025 -61.8873 165.821C-61.9906 165.648 -62.0448 165.462 -62.0503 165.261L-62.0201 164.964C-61.9977 164.871 -61.9399 164.744 -61.8986 164.655C-61.8914 164.642 -61.8854 164.631 -61.8801 164.617C-61.8404 164.545 -61.7218 164.381 -61.6637 164.319C-61.5394 164.189 -61.377 164.09 -61.2152 164.02C-61.0637 163.937 -60.8976 163.898 -60.7198 163.899L-60.7026 163.896L-60.6837 163.894C-60.6251 163.888 -60.5642 163.883 -60.5023 163.875C-60.2582 163.87 -60.0259 163.925 -59.8092 164.044ZM36.5659 215.192C36.8623 215.355 37.0966 215.582 37.2709 215.871C37.2781 215.879 37.2852 215.888 37.2905 215.896C37.456 216.175 37.5435 216.476 37.5541 216.8C37.563 217.135 37.4864 217.45 37.3258 217.743C37.1643 218.037 36.941 218.269 36.6536 218.442C36.3747 218.607 36.0737 218.695 35.7497 218.705C35.7393 218.707 35.7281 218.705 35.7169 218.704C35.38 218.712 35.0633 218.635 34.7659 218.474C34.4724 218.311 34.2371 218.085 34.0626 217.797C33.7232 217.23 33.7098 216.511 34.0268 215.933C34.3441 215.355 34.9571 214.98 35.6166 214.963C35.9537 214.955 36.2714 215.031 36.5659 215.192ZM-39.1835 170.858L-39.1325 170.884C-38.932 170.984 -38.7711 171.126 -38.6525 171.309C-38.5079 171.463 -38.4081 171.646 -38.3545 171.856L-38.2079 172.23L-38.1644 172.337C-38.1573 172.355 -38.1506 172.373 -38.1444 172.39C-38.0632 172.673 -38.057 172.956 -38.1228 173.243C-38.1789 173.398 -38.2377 173.549 -38.301 173.7C-38.4637 174.093 -38.8905 174.353 -39.2757 174.484C-39.4816 174.552 -39.6893 174.566 -39.8994 174.528C-40.1187 174.523 -40.3262 174.462 -40.5187 174.347C-40.9014 174.092 -41.236 173.797 -41.3542 173.327C-41.3674 173.272 -41.3775 173.215 -41.3894 173.158L-41.4745 172.765C-41.553 172.49 -41.5605 172.214 -41.4949 171.936C-41.4435 171.798 -41.3909 171.663 -41.3384 171.528C-41.1469 171.139 -40.7665 170.885 -40.3698 170.75C-40.0031 170.626 -39.5301 170.686 -39.1835 170.858ZM-46.3935 161.827C-44.4673 162.884 -46.1105 165.871 -48.033 164.817C-49.9578 163.761 -48.3146 160.774 -46.3935 161.827ZM52.7607 210.76L52.8209 210.794C53.1386 210.971 53.393 211.214 53.5807 211.527L53.7885 212C53.8853 212.343 53.8947 212.685 53.8154 213.032C53.7493 213.201 53.6834 213.37 53.6202 213.537C53.4953 213.787 53.3183 213.986 53.0914 214.137C52.9011 214.317 52.6743 214.441 52.4133 214.507C52.1578 214.591 51.9016 214.61 51.6427 214.56C51.3706 214.555 51.1143 214.482 50.8765 214.339C50.5574 214.162 50.3026 213.919 50.115 213.606C50.0456 213.447 49.9779 213.29 49.9073 213.133C49.8181 212.817 49.803 212.501 49.8652 212.182L49.8823 212.102L50.0767 211.594C50.2006 211.346 50.3773 211.146 50.6043 210.996C50.7958 210.814 51.0217 210.692 51.2824 210.626C51.5382 210.541 51.7961 210.524 52.0532 210.573C52.3025 210.578 52.5388 210.639 52.7607 210.76ZM47.1528 200.406C47.3282 200.495 47.4682 200.617 47.5757 200.778C47.7019 200.912 47.7875 201.072 47.8344 201.254C47.9688 201.577 47.9057 202.038 47.7359 202.348C47.5662 202.657 47.2106 202.959 46.8668 203.019C46.6269 203.087 46.3846 203.094 46.1409 203.037L45.7848 202.9C45.4543 202.738 45.219 202.39 45.1052 202.052C45.0822 201.984 45.0611 201.917 45.0373 201.851C44.9339 201.544 45.0006 201.207 45.1389 200.923C45.2135 200.774 45.3204 200.654 45.4571 200.563C45.573 200.453 45.7091 200.38 45.8667 200.339C45.9353 200.324 46.003 200.306 46.0728 200.288C46.4501 200.194 46.8065 200.238 47.1528 200.406ZM107.594 220.59C109.625 219.775 109.495 218.33 107.465 217.694C104.08 216.392 100.022 216.758 96.4633 216.664C92.5567 216.603 88.7114 216.211 84.7971 216.021C85.6425 217.502 85.9182 219.248 85.8753 221.044C87.9235 220.739 90.0596 221.227 91.9011 222.148C96.894 220.808 102.708 223.063 107.594 220.59ZM-38.9078 146.642C-38.5786 146.824 -38.312 147.072 -38.1072 147.386L-38.0643 147.454L-37.8366 147.979C-37.7415 148.262 -37.7221 148.548 -37.7757 148.834C-37.7815 149.135 -37.8651 149.419 -38.0228 149.685C-38.1619 149.96 -38.3557 150.182 -38.606 150.348C-38.8199 150.549 -39.0699 150.684 -39.3601 150.757C-39.5477 150.839 -39.7495 150.873 -39.9628 150.863C-40.156 150.841 -40.3479 150.822 -40.542 150.803C-40.7485 150.762 -40.9563 150.657 -41.1522 150.562C-41.4975 150.37 -41.7719 150.106 -41.9768 149.767L-42.201 149.254C-42.2925 148.977 -42.3132 148.698 -42.2599 148.416C-42.2547 148.146 -42.1873 147.89 -42.0555 147.65L-42.018 147.585C-42.01 147.57 -42.0008 147.553 -41.9896 147.538C-41.872 147.376 -41.7522 147.215 -41.633 147.054C-41.4314 146.832 -41.1917 146.671 -40.9139 146.578C-40.8206 146.513 -40.7217 146.474 -40.6131 146.456C-40.2346 146.345 -39.8543 146.337 -39.4688 146.425C-39.2826 146.499 -39.0951 146.57 -38.9078 146.642ZM49.7329 188.873L49.7888 188.905C50.0389 189.042 50.2359 189.232 50.3828 189.474C50.4374 189.598 50.4905 189.721 50.5435 189.844C50.6214 190.111 50.6281 190.38 50.5647 190.649L50.4138 191.043C50.3144 191.237 50.1789 191.392 50.0013 191.509C49.8525 191.649 49.6765 191.745 49.4722 191.797C49.274 191.864 49.0741 191.878 48.8713 191.839C48.6603 191.836 48.4612 191.778 48.2743 191.666C48.0261 191.53 47.8274 191.339 47.6816 191.095C47.6276 190.973 47.5728 190.849 47.5198 190.726C47.4503 190.483 47.4388 190.236 47.4861 189.99L47.5004 189.923L47.6519 189.528C47.7491 189.333 47.8846 189.179 48.0619 189.061C48.2119 188.92 48.3898 188.824 48.5911 188.773C48.7913 188.707 48.9914 188.694 49.1924 188.732C49.3835 188.735 49.564 188.782 49.7329 188.873ZM-24.2871 145.663L-24.223 145.7C-23.8554 145.904 -23.5635 146.184 -23.3466 146.544C-23.2675 146.725 -23.1882 146.906 -23.1103 147.089C-22.9956 147.482 -22.9862 147.878 -23.0779 148.278L-23.3026 148.859C-23.446 149.146 -23.6486 149.375 -23.9095 149.548C-24.1302 149.757 -24.391 149.898 -24.6927 149.974C-24.9847 150.072 -25.2806 150.093 -25.5792 150.035C-25.8919 150.03 -26.1857 149.946 -26.4611 149.78C-26.8297 149.578 -27.1216 149.297 -27.3385 148.937C-27.4175 148.757 -27.4957 148.574 -27.5766 148.392C-27.6884 147.998 -27.6979 147.603 -27.607 147.204L-27.3815 146.621C-27.2391 146.336 -27.0356 146.105 -26.7746 145.932C-26.5549 145.725 -26.2931 145.582 -25.9942 145.507C-25.6992 145.409 -25.4035 145.387 -25.105 145.445C-24.8162 145.45 -24.5446 145.523 -24.2871 145.663ZM47.0959 178.188C47.289 178.236 47.4574 178.328 47.6014 178.465C47.8474 178.615 48.0411 178.82 48.1835 179.078L48.4042 179.585C48.4066 179.594 48.4092 179.603 48.4107 179.613C48.5143 179.973 48.5237 180.338 48.4388 180.704L48.2323 181.239C48.1003 181.501 47.9145 181.713 47.6758 181.871C47.4888 182.047 47.2719 182.17 47.0253 182.244L46.9315 182.27C46.6575 182.361 46.3834 182.382 46.1065 182.329C45.9106 182.335 45.7259 182.289 45.5555 182.196C45.2723 182.115 45.0246 181.965 44.8163 181.747C44.702 181.6 44.5844 181.453 44.4672 181.307L44.4342 181.253C44.0335 180.626 44.0395 179.776 44.3922 179.133C44.7449 178.489 45.4596 178.026 46.2037 178.026C46.2245 178.028 46.2443 178.027 46.2663 178.027C46.5611 178.008 46.8378 178.061 47.0959 178.188Z" fill="#1C1C1C"/>
<path fill-rule="evenodd" clip-rule="evenodd" d="M98.7777 79.7463C90.4684 71.406 54.7717 55.7046 53.584 55.8725C51.5772 56.2623 42.8787 56.2204 41.3803 56.4782C26.4614 61.3061 27.3076 81.0913 19.9977 92.7774C17.6944 97.0815 13.728 99.9893 10.6317 103.647C9.09444 105.611 7.9483 107.885 8.00996 110.439C8.08783 114.985 11.8768 117.976 14.5059 121.233C15.796 122.887 16.8084 124.785 17.636 126.707C22.6485 140.669 24.8328 149.546 40.1119 155.396C39.8122 156.115 40.0475 157.112 40.959 157.217C43.0938 157.463 45.2399 157.659 47.3696 157.951C47.2484 159.064 48.187 159.916 49.3584 159.516L49.3595 159.524C54.0677 158.668 58.1226 156.189 61.7842 153.163C64.0858 151.521 66.2455 149.675 68.2352 147.645C68.4602 147.416 68.5833 147.168 68.6289 146.921C77.6173 137.908 84.9642 127.242 90.2497 115.664C91.3433 113.277 92.1859 110.712 93.5571 108.465C94.796 106.435 96.7739 104.956 98.522 103.391C106.572 97.0775 105.262 86.681 98.7777 79.7463Z" fill="white"/>
<path fill-rule="evenodd" clip-rule="evenodd" d="M107.369 67.0379L107.519 67.0139C109.153 66.744 110.873 66.16 112.242 67.4836C113.365 68.5693 113.432 70.0284 112.99 71.5051C113.623 71.3049 114.253 71.0838 114.881 70.8428C116.59 70.1887 118.559 72.0934 118.014 73.8215C116.918 77.304 115.197 80.516 112.863 83.3264C112.509 83.7519 112.14 84.1663 111.755 84.565C112.924 84.0806 114.066 83.5328 115.167 82.9001C116.361 82.2124 117.499 83.5021 116.993 84.6585C116.862 84.9581 116.718 85.2553 116.563 85.5483C116.92 85.9468 116.975 86.5702 116.552 87.0659C114.218 89.7921 111.735 92.3812 109.116 94.8281C111.154 94.8561 113.195 95.3297 114.536 96.8342C116.665 99.2264 115.711 102.459 113.831 104.66C111.468 107.428 107.989 108.921 104.411 109.188C103.84 109.487 103.27 109.792 102.71 110.114C101.956 111.477 100.96 112.703 99.766 113.694C98.4233 114.807 96.7566 115.491 95.0218 115.754C94.0788 116.454 92.5657 116.514 91.6706 115.776L91.624 115.737L91.6212 115.738C91.3747 116.793 91.088 117.839 90.7706 118.87C88.3106 126.859 83.4642 133.921 78.2018 140.32L78.0337 140.524C73.34 146.213 68.3241 152.019 62.353 156.417C56.9532 160.392 50.1852 162.781 43.5508 160.656C35.746 158.157 29.1285 151.705 25.0471 144.758C23.5679 142.24 27.4798 139.888 28.9375 142.423C31.0426 146.08 33.7382 149.306 36.9805 152.005C40.0122 154.526 43.6847 156.832 47.6893 157.249C53.2668 157.831 58.5123 154.655 62.6191 151.209C65.041 149.174 67.2566 146.918 69.4265 144.623C72.218 141.673 74.9606 138.667 77.5152 135.507C82.2783 129.613 86.3849 123.031 88.737 115.79C89.4881 113.481 90.0815 111.068 90.4597 108.643C90.4231 108.437 90.4012 108.218 90.3986 107.99C90.3694 106.229 90.678 104.414 90.9051 102.651C90.8815 101.512 90.7933 100.382 90.6615 99.2512C90.1618 98.1129 89.7283 96.9513 89.3995 95.7628C92.3671 95.5454 95.2732 94.8296 97.9039 93.3302C98.3378 93.083 98.3878 92.6466 98.2263 92.2965C96.3542 93.0769 94.2719 93.4652 92.1887 93.6785C91.0505 93.9172 89.8897 94.0558 88.7204 94.1149C88.0282 93.8961 87.3504 93.6347 86.7002 93.3687C84.8484 92.6109 83.1367 91.5757 81.5299 90.3931C78.0552 87.8364 64.5955 74.7714 56.9805 72.8037C55.3942 72.3939 54.0526 73.283 52.672 74.0516C51.4729 74.7212 50.1963 75.1196 48.8391 75.2798L48.688 75.2966C46.0554 75.5714 39.9268 77.6472 36.2682 80.4934C31.5444 84.1679 21.628 97.5047 22.4805 98.1338C24.7097 99.7807 25.3482 101.78 26.5638 104.216C26.6447 104.376 26.4366 104.575 26.3035 104.422C25.2648 103.245 24.0159 102.201 22.7821 101.23C21.6668 100.351 20.3942 99.6049 18.9678 99.3938C16.7788 99.0706 15.0551 100.109 13.747 101.629C13.2354 102.223 12.7872 102.891 12.3987 103.582L12.2871 103.783C11.0864 105.974 10.1625 108.627 10.8665 111.115C11.1655 112.174 11.8283 113.14 12.7177 113.794C13.6907 114.511 14.5992 114.392 15.6995 114.675C16.9664 115.001 17.4318 116.209 16.8047 117.106C16.9271 117.441 17.036 117.782 17.1411 118.127L17.1408 118.128L17.1419 118.13C17.2535 118.278 17.3455 118.444 17.4144 118.622C17.5261 118.914 17.5954 119.205 17.6213 119.492C17.9008 119.725 18.1053 120.064 18.1769 120.517C18.3256 121.45 18.4314 122.369 18.4968 123.282C18.8223 124.538 19.1431 125.794 19.4456 127.056C19.8107 128.575 20.1386 130.103 20.4756 131.628L20.6451 132.391C20.8284 133.212 21.0098 134.032 21.1902 134.854L21.2454 135.097C21.4337 135.912 21.5864 136.521 21.2069 137.337C20.9238 137.941 20.0784 137.993 19.631 137.574C18.942 136.927 18.9152 136.092 18.7773 135.203L18.3603 132.62C18.2612 131.997 18.1574 131.373 18.0554 130.751C17.5134 131.498 16.3103 131.679 15.5167 131.289L15.3324 131.198C13.481 130.261 11.4121 128.792 10.7315 126.751C9.76456 127.038 8.71891 127.108 7.60233 126.881C5.06512 126.367 3.50529 123.957 3.62619 121.658C1.52815 121.455 -0.471176 120.549 -2.01312 119.006C-2.90163 118.115 -2.54373 116.594 -1.36277 116.191L-1.31013 116.174L-1.29633 116.169C-1.33994 115.887 -1.29073 115.599 -1.15942 115.327C-1.00007 114.998 -0.580078 114.786 -0.464096 114.46C-0.0218658 113.218 -2.34614 113.043 -3.07299 112.966C-3.2118 112.951 -3.33005 112.916 -3.43089 112.865C-4.49108 112.63 -4.82622 110.883 -3.80342 110.154C-1.51533 108.526 0.755981 106.867 3.05501 105.25C2.89252 105.221 2.72837 105.186 2.57014 105.145C0.345192 104.576 -1.49377 102.318 0.246132 100.214C0.65274 99.7185 1.36021 99.6147 1.95015 99.7165C3.10002 99.9133 3.69401 100.552 4.60941 100.65C5.6396 100.761 6.86641 100.603 7.93397 100.405C9.07288 100.195 10.1481 99.8475 11.179 99.3957C12.0428 98.3918 13.0552 97.5345 14.2343 96.9663C14.3055 96.9331 14.3768 96.8998 14.4489 96.8695C10.7318 93.5039 13.5995 89.6036 13.7583 84.8403L13.7684 84.4438C13.8552 81.247 14.2799 77.8219 16.4838 75.3362C16.8741 74.897 17.304 74.5085 17.7648 74.1779C17.3988 74.0325 17.0329 73.8825 16.6689 73.7334C15.8328 73.3906 15.5896 71.9362 16.3122 71.3611C16.6916 71.0606 17.0804 70.7821 17.478 70.5229C18.5775 69.8098 19.7504 69.2574 20.993 68.8591C19.6897 68.0984 18.3652 67.372 17.1408 66.5028C15.9836 65.6824 15.0561 64.2939 15.8757 62.8897C16.6592 61.552 18.4149 61.1772 19.8834 61.1204C21.7646 60.2698 23.8036 59.8237 25.8541 59.7858C25.5835 59.5471 25.299 59.3241 24.9984 59.1181L24.8468 59.0166C23.9945 58.4575 23.3284 57.774 22.7251 56.9585C22.1856 56.2288 22.7517 55.2231 23.5035 54.9726C25.9364 54.1587 27.9295 55.9514 29.1907 57.8742C29.153 57.6488 29.1004 57.4228 29.032 57.1966L28.989 57.0609C28.5613 55.7664 30.5912 55.1789 31.0175 56.469C31.1522 56.8767 31.246 57.291 31.3039 57.7072L31.3488 57.675C33.7824 55.9696 36.6142 54.8017 39.5266 54.2187L40.2087 54.086C45.4498 53.0539 47.3394 52.2387 51.8763 55.3023C52.1489 54.3221 52.7048 53.356 53.1913 52.5778L53.2572 52.4728C55.0972 49.5529 58.1934 46.5482 61.8827 46.8071C62.8398 46.8765 63.3926 47.9246 62.7081 48.6893C62.225 49.2319 61.7195 49.7405 61.1806 50.209C62.1944 49.8852 63.23 49.6312 64.279 49.4497C68.5548 48.7094 73.649 48.8495 77.1934 51.6613C79.1398 53.2086 80.0856 55.4822 81.2662 57.5954C82.4521 59.721 84.1022 61.5011 86.0863 62.9051C88.8575 64.8686 92.0148 66.1544 95.2365 67.2175C97.727 67.4434 100.241 67.4866 102.752 67.4247C104.295 67.3868 105.842 67.2685 107.369 67.0379ZM18.8644 103.835C19.5789 104.017 20.28 104.404 20.8215 104.906C22.2187 106.203 22.9825 108.386 22.1389 110.148C21.7577 110.945 20.7298 111.343 19.8986 111.145C18.9559 110.922 18.4715 110.135 18.3453 109.232C18.2082 108.265 18.488 107.452 18.2015 106.485L18.1341 106.264C17.8804 105.461 17.4353 104.358 16.6295 104.07C16.5111 104.027 16.5109 103.834 16.6546 103.836C17.4394 103.837 18.0685 103.63 18.8644 103.835ZM31.7014 100.397C32.1154 100.321 32.3429 100.802 32.0243 101.064L32.0006 101.082C31.2693 101.612 31.2071 102.669 31.29 103.493C31.3603 104.205 30.4222 104.329 30.0737 103.848C29.0957 102.495 30.1836 100.674 31.7014 100.397ZM48.323 81.559C48.3945 81.3716 48.6656 81.4263 48.6304 81.6312C48.0454 85.0394 46.9363 87.7336 45.1124 90.6768L44.9497 90.9375C43.1737 93.7619 40.9673 96.5721 37.8854 98.0014C37.1721 98.331 36.5137 97.5456 37.0311 96.923C39.1035 94.4318 41.5988 92.3558 43.5524 89.7561C45.5946 87.0386 47.1077 84.7324 48.323 81.559ZM33.387 86.9214C33.9512 86.2353 35.5594 86.0929 35.7322 87.188C35.789 87.559 35.3779 87.7506 35.0842 87.7149C34.8094 87.6799 34.6746 87.4468 34.4279 87.3694C34.2282 87.3071 34.0353 87.3472 33.8636 87.4526L33.8272 87.4762C33.4701 87.7142 33.147 87.214 33.387 86.9214ZM36.2493 80.5606C37.1005 80.0102 38.3464 80.0452 38.9108 80.9887C39.0965 81.3003 38.7319 81.7102 38.4066 81.5125L38.2135 81.3961C37.6324 81.0493 37.0328 80.736 36.3285 80.8379C36.1716 80.8603 36.1358 80.6357 36.2493 80.5606ZM49.4477 60.0188C47.6632 57.654 44.7796 57.3237 42.0223 57.7629C41.7942 57.7993 41.6371 57.9016 41.5401 58.038C43.1075 58.2432 44.6635 58.6675 46.1272 59.1162C47.3241 59.483 48.4914 59.9277 49.6102 60.4642C49.6093 60.3217 49.5623 60.1706 49.4477 60.0188Z" fill="#1C1C1C"/>
<path fill-rule="evenodd" clip-rule="evenodd" d="M47.6364 142.309C46.6699 141.118 46.0238 139.661 45.8055 138.132C45.7295 137.601 45.8743 137.163 46.133 136.832C46.4238 136.46 46.8688 136.222 47.3349 136.154C47.8024 136.087 48.2835 136.19 48.6491 136.473C48.9668 136.718 49.2083 137.098 49.2656 137.643L49.2795 137.753C49.4039 138.672 49.7391 139.553 50.2665 140.292C50.7749 141.004 51.4625 141.583 52.312 141.932C53.9297 142.595 55.4317 142.347 57.1616 141.84C57.3774 141.774 57.5957 141.704 57.8161 141.633C57.9775 141.547 58.1467 141.527 58.3069 141.556C58.4847 141.588 58.6532 141.684 58.7791 141.824C58.9005 141.959 58.9802 142.132 58.9977 142.314C59.0144 142.486 58.9777 142.668 58.864 142.838C58.1257 143.942 56.9518 144.644 55.645 144.985C54.1936 145.363 52.5835 145.292 51.2699 144.857C49.8228 144.377 48.5779 143.469 47.6364 142.309ZM61.9383 126.877C62.8705 128.495 63.914 131.647 61.2527 132.931C58.4616 133.819 57.0807 130.288 56.3528 128.635C55.5974 127.248 53.2341 128.452 53.8367 129.917C59.2286 141.624 69.6362 131.389 63.1943 126.265C62.485 125.701 61.7161 126.413 61.9383 126.877ZM49.9564 110.128C51.1636 108.294 54.3242 109.46 53.5733 111.519C52.9005 113.363 51.737 114.757 50.131 115.869C48.5966 116.931 47.1316 115.239 47.7232 113.83C48.5163 111.942 49.2055 111.269 49.9564 110.128ZM72.6624 121.477C73.3624 121.166 74.1504 121.125 74.7421 121.717C76.5906 123.568 74.2268 126.339 72.6189 127.437C71.7455 128.033 70.2726 127.497 70.058 126.433C69.7086 124.698 70.5294 122.065 72.4422 121.594C72.5098 121.552 72.5816 121.512 72.6624 121.477ZM57.086 103.115L57.4671 103.245C58.645 103.649 60.0807 104.203 60.3672 105.486C60.5192 106.166 60.1904 107.095 59.407 107.237C58.0288 107.486 57.1379 106.608 55.9584 106.046C54.9863 105.583 53.9949 105.243 52.9447 105.004C50.6407 104.481 48.4477 104.631 46.1206 104.839C45.8152 104.867 45.744 104.456 45.9651 104.306C48.0023 102.92 50.7721 102.383 53.2066 102.465C54.5059 102.509 55.8531 102.693 57.086 103.115ZM75.2681 111.966L75.5043 112.167C78.0687 114.361 81.1684 117.635 80.9789 121.234C80.8105 121.665 80.7079 121.721 80.6321 121.753L80.6069 121.763C80.5435 121.791 80.4775 121.841 80.2731 121.8C80.231 121.762 80.1889 121.723 80.1466 121.683C79.6083 121.173 79.2354 120.673 78.883 120.174L78.502 119.63C78.0592 119 77.605 118.379 77.0733 117.812C75.9384 116.603 74.6909 115.506 73.3402 114.544C73.0474 114.336 72.804 114.065 72.6656 113.753C72.5342 113.458 72.4924 113.125 72.5873 112.766C72.7099 112.3 72.9092 112.007 73.3313 111.758C73.6485 111.571 73.9901 111.508 74.3219 111.547C74.6602 111.586 74.9895 111.732 75.2681 111.966Z" fill="#1C1C1C"/>
</g>
</svg>
