<svg width="25" height="24" viewBox="0 0 25 24" fill="none" xmlns="http://www.w3.org/2000/svg">
<g id="help-circle 1">
<path id="Vector" d="M12.1543 22C17.6771 22 22.1543 17.5228 22.1543 12C22.1543 6.47715 17.6771 2 12.1543 2C6.63145 2 2.1543 6.47715 2.1543 12C2.1543 17.5228 6.63145 22 12.1543 22Z" stroke="black" stroke-width="2" stroke-linecap="round" stroke-linejoin="round"/>
<path id="Vector_2" d="M9.24414 9.00002C9.47924 8.33169 9.94329 7.76813 10.5541 7.40915C11.1649 7.05018 11.883 6.91896 12.5813 7.03873C13.2796 7.15851 13.913 7.52154 14.3692 8.06355C14.8255 8.60555 15.0752 9.29154 15.0741 10C15.0741 12 12.0741 13 12.0741 13" stroke="black" stroke-width="2" stroke-linecap="round" stroke-linejoin="round"/>
<path id="Vector_3" d="M12.1543 17H12.1643" stroke="black" stroke-width="2" stroke-linecap="round" stroke-linejoin="round"/>
</g>
</svg>
