<svg width="320" height="177" viewBox="0 0 320 177" fill="none" xmlns="http://www.w3.org/2000/svg">
<path d="M-326.982 154.356C-217.674 108.225 7.66095 16.731 34.5361 19.8C68.1301 23.6362 -259.999 151.972 -212.049 163.405C-164.099 174.838 151.163 13.6677 191.785 16.8662C232.408 20.0647 -95.6223 159.81 -47.6751 164.946C0.272172 170.083 296.522 9.79773 344.472 21.2307C392.422 32.6636 86.2799 166.645 119.967 169.297C153.654 171.95 460.606 21.3558 516.091 25.7245C571.576 30.0932 237.193 155.555 284.647 166.949C332.102 178.343 629.044 9.26306 688.399 15.1276C747.754 20.9922 385.624 163.328 430.209 166.838C474.795 170.349 820.178 0.148406 871.902 7.96467" stroke="#5557FF" stroke-width="15"/>
</svg>
