<svg width="25" height="24" viewBox="0 0 25 24" fill="none" xmlns="http://www.w3.org/2000/svg">
<g id="help-circle 1">
<path id="Vector" d="M12.1543 22C17.6771 22 22.1543 17.5228 22.1543 12C22.1543 6.47715 17.6771 2 12.1543 2C6.63145 2 2.1543 6.47715 2.1543 12C2.1543 17.5228 6.63145 22 12.1543 22Z" stroke="white" stroke-width="2" stroke-linecap="round" stroke-linejoin="round"/>
<path id="Vector_2" d="M9.24414 9.00008C9.47924 8.33175 9.94329 7.76819 10.5541 7.40921C11.1649 7.05024 11.883 6.91902 12.5813 7.03879C13.2796 7.15857 13.913 7.52161 14.3692 8.06361C14.8255 8.60561 15.0752 9.2916 15.0741 10.0001C15.0741 12.0001 12.0741 13.0001 12.0741 13.0001" stroke="white" stroke-width="2" stroke-linecap="round" stroke-linejoin="round"/>
<path id="Vector_3" d="M12.1543 17H12.1643" stroke="white" stroke-width="2" stroke-linecap="round" stroke-linejoin="round"/>
</g>
</svg>
