<svg width="61" height="153" viewBox="0 0 61 153" fill="none" xmlns="http://www.w3.org/2000/svg">
<mask id="mask0_454_572" style="mask-type:alpha" maskUnits="userSpaceOnUse" x="0" y="0" width="61" height="153">
<rect width="61" height="152.5" fill="#D9D9D9"/>
</mask>
<g mask="url(#mask0_454_572)">
<path fill-rule="evenodd" clip-rule="evenodd" d="M17.3414 66.7785C19.9665 68.3916 23.533 71.853 23.3373 72.7077C23.0319 74.0424 19.9525 77.9853 19.8522 80.9639C19.8095 82.2336 21.7665 83.191 22.3283 83.9203C24.2079 86.3604 30.4045 92.4315 30.4956 95.8466C30.5321 97.2147 27.1966 112.113 25.5737 119.757C25.3907 120.619 25.2671 121.441 25.193 122.224L25.5636 121.787C28.5438 118.264 30.2631 116.084 30.7214 115.249C31.4376 113.943 33.4181 107.863 35.2277 107.033C37.0192 106.211 40.1253 106.44 41.2553 107.03L41.2889 107.048C42.0227 107.45 42.7853 107.57 43.5767 107.407L44.5862 107.443C49.7194 107.63 52.6789 107.812 53.4647 107.988C54.7185 108.268 56.1945 109.945 54.7246 110.441C53.7447 110.772 51.5545 111.106 48.154 111.444L46.8158 111.674L46.8961 111.795C47.7526 113.089 48.1679 114.012 48.1421 114.561C48.1155 115.128 47.7208 115.599 46.958 115.974L46.9882 116.073C47.2381 116.902 47.3132 117.407 47.2137 117.588L46.7273 118.475C46.8331 119.56 46.6068 120.291 46.0485 120.671C45.4901 121.05 44.8126 121.273 44.0161 121.338C42.9634 122.236 42.0078 122.761 41.1492 122.915C40.2907 123.068 39.0427 122.904 37.4053 122.421L34.3459 124.86L30.8346 128.719L27.5728 133.385L27.6674 133.584C28.1039 134.513 28.3543 135.161 28.1317 135.567C27.7849 136.199 16.6957 149.459 11.7662 147.621C10.7001 147.223 5.9677 143.709 5.03704 141.419L4.98082 141.581C4.06558 144.188 3.30121 145.383 2.68773 145.166C-4.85186 142.507 -24.6898 132.082 -56.8262 113.892C-47.5908 96.5971 -40.4409 85.627 -35.3766 80.9817C-22.4244 69.1012 -14.2354 67.1085 -12.0928 67.7284C-10.216 68.2713 -3.15331 69.1426 -1.19688 69.4188C0.0802002 69.5991 0.964397 68.5245 2.16977 69.1856L2.26694 69.2396C3.42622 69.8907 4.34557 70.6662 5.2553 70.385C7.64271 69.647 8.41156 67.2348 10.188 65.4956C11.1668 64.5373 14.1201 64.799 17.3414 66.7785Z" fill="white"/>
<path fill-rule="evenodd" clip-rule="evenodd" d="M7.6683 66.834C7.99886 66.607 8.39693 66.8782 8.59621 67.1728C9.09447 68.2375 7.57708 68.9395 6.93967 69.5558C5.55773 70.6713 3.75751 71.5148 1.96886 71.4094C1.30123 72.9056 0.650978 74.4072 -0.087532 75.8703C0.492153 79.1177 3.10114 81.6178 5.47064 83.7397C9.08936 87.2598 15.2302 87.4824 18.9838 84.0537C17.856 82.2235 18.6633 79.4938 20.0855 78.0605C20.1936 77.9643 20.4078 78.013 20.4004 78.1826C20.3428 79.352 19.6651 80.4456 19.6749 81.6375C24.3142 84.7921 29.6198 90.1064 30.6549 95.8271C30.9895 98.5887 30.1388 101.475 29.5792 104.156C28.4759 109.711 27.0164 115.195 25.8816 120.739L26.5463 119.936C28.3747 117.725 30.1783 115.457 31.2367 112.769L31.297 112.646C32.2891 110.589 33.7014 106.531 35.9916 106.031C37.9813 105.729 40.4846 105.981 41.9729 107.44C45.8681 107.764 49.8575 106.899 53.6932 107.814C54.8353 108.165 56.1744 109.225 55.168 110.485C53.1598 112.552 49.8261 111.953 47.2128 112.154C48.263 113.165 48.9437 115.49 47.2622 116.27C47.2411 116.289 47.2241 116.302 47.209 116.312C47.8006 117.087 47.4323 118.018 46.8309 118.66C46.7032 118.847 46.7444 118.649 46.7621 118.891C47.1877 120.207 45.5257 122.312 44.1542 121.662C43.6384 122.809 42.3474 123.489 41.1248 123.598C39.8073 123.716 38.3992 122.98 37.1168 123.426C33.4328 125.702 30.6482 129.247 28.3696 132.917C29.3504 134.056 29.6998 136.046 27.9352 136.603C27.9117 136.594 27.8881 136.584 27.8647 136.574C26.2627 137.953 24.997 139.665 23.6591 141.289C21.4339 144.092 18.498 146.175 15.3248 147.786C11.4187 150.08 6.24166 146.537 4.69132 142.824C4.38564 143.407 0.17609 149.544 -0.314804 150C-0.917927 150.453 -1.30153 148.5 2.5 143.75C0.592499 143.771 2.04263 140.814 3.42757 142.132C4.37625 140.106 5.37887 138.107 6.39542 136.115C4.23505 135.702 5.82596 132.614 7.36855 134.252L7.82802 133.409C11.3544 126.947 14.9779 120.51 19.3416 114.573C19.683 114.138 20.0705 113.747 20.4095 113.314C20.4448 113.269 20.514 113.325 20.4884 113.373C15.703 122.41 10.1896 131.073 5.88169 140.377C6.30536 140.811 6.18788 141.506 6.37795 142.053C6.79057 143.284 7.72312 144.285 8.76489 145.026C11.6434 147.174 13.5123 146.96 16.3883 145.01C15.5323 145.085 15.0915 143.882 15.8367 143.428L15.8597 143.415C16.6413 142.93 17.5302 143.965 16.9571 144.674C19.58 143.203 21.6941 141.081 23.6374 138.818L23.8781 138.553C24.7363 137.61 25.7596 136.552 26.9287 135.915C23.624 132.828 21.5027 127.782 23.1473 123.358C20.4903 125.889 17.5252 128.161 14.6302 130.452C13.6725 131.275 12.8992 132.301 11.8141 132.957C11.5624 133.108 11.2651 132.87 11.3204 132.595C12.0491 130.078 14.7386 128.778 16.6349 127.192C17.905 126.404 22.6121 122.208 23.7655 122.824C25.5755 116.468 26.9323 109.919 28.3556 103.443C30.9047 95.0426 28.4767 91.8214 22.9463 85.7029C20.7332 92.6603 23.0237 101.826 16.4166 106.773L16.2501 106.904C15.5454 107.462 14.8896 108.055 14.6661 108.969C14.4492 109.857 14.5531 110.788 14.5494 111.691C14.5061 116.78 10.5343 120.572 7.4725 124.218C3.80798 128.452 0.153515 132.697 -3.54173 136.905C-4.27637 137.746 -4.95286 138.656 -5.77863 139.409C-6.20479 139.797 -6.99771 139.303 -6.63889 138.774C-5.94447 137.747 -5.06185 136.858 -4.25649 135.918C0.845261 129.766 6.37146 123.952 11.3043 117.668C14.845 112.955 12.3829 110.582 14.3038 107.336C15.6243 105.862 17.4926 104.924 18.4209 103.09C21.6768 97.7022 20.1569 90.9506 22.6028 85.3155L21.8989 84.5231C21.5474 84.1266 21.197 83.729 20.8502 83.3284C14.3449 100.627 4.65848 116.636 -5.32911 132.127C-5.97122 132.742 -8.59834 138.061 -9.32707 137.061C-9.53588 137.324 -9.84667 137.525 -10.1811 137.34C-13.2408 135.698 -16.3124 134.076 -19.3767 132.442C-20.767 131.504 -23.0865 130.959 -23.8685 129.431C-25.0814 128.232 -23.1098 124.245 -22.7325 122.645L-22.3285 121.553C-15.7208 103.711 -8.66955 85.6683 2.22787 69.9658C-0.26746 68.7194 -2.21902 71.0812 -3.45395 72.9029C-6.23274 76.8944 -10.974 79.0439 -13.4577 83.2606C-14.0395 84.295 -14.396 85.4107 -14.5042 86.594C-14.6849 89.5397 -14.2613 93.292 -17.121 95.1241C-19.9235 96.2342 -20.0713 96.8499 -20.8319 99.7042C-23.651 108.973 -25.1438 118.552 -26.7901 128.076C-29.0966 130.864 -26.3469 117.326 -26.2066 116.268C-28.2367 116.196 -27.649 113.063 -25.7203 113.875C-24.7397 109.307 -23.6495 104.761 -22.3549 100.271L-22.3169 100.145C-21.7005 98.0802 -21.2944 95.4893 -19.078 94.5735C-13.7949 92.9998 -17.3302 86.0629 -14.3344 82.2891C-15.1991 82.4079 -15.8664 81.418 -15.4324 80.66C-14.9875 79.7827 -13.5878 79.976 -13.3915 80.9392C-10.9658 77.8749 -7.35571 76.0183 -4.9052 72.9805L-4.79119 72.8373C-3.9339 71.7588 -3.18922 70.5377 -2.00958 69.7733C-3.08882 69.8539 -4.16537 69.807 -5.23916 69.6977C-4.39503 71.8545 -8.0644 71.3877 -6.71148 69.5133C-16.6136 67.2995 -20.437 69.6892 -27.9191 75.8892C-27.0205 75.641 -26.4209 76.9288 -27.1702 77.4629C-27.8698 78.0747 -28.9681 77.1813 -28.5202 76.3658L-28.8503 76.6285C-33.2491 80.1361 -37.5376 83.8478 -41.0792 88.241C-39.2399 88.9363 -41.1715 91.4272 -42.2962 89.8093C-45.2927 93.8004 -47.7119 98.1879 -50.031 102.596C-48.1768 102.63 -49.5412 105.221 -50.6092 103.683C-52.5181 107.291 -54.402 110.912 -56.3053 114.523C-56.711 115.291 -57.8834 114.644 -57.4862 113.875C-54.6077 108.302 -51.8366 102.657 -48.7012 97.2222C-43.5773 87.6151 -35.7879 79.9192 -27.0106 73.6099C-17.9939 65.7477 -12.3844 67.3678 -1.62357 69.5461C-0.0842133 68.7516 2.38184 68.5543 3.42677 70.1564C4.98693 69.2742 6.27532 67.9217 7.6683 66.834ZM-26.8994 92.5123C-26.7985 92.4097 -26.642 92.5352 -26.7021 92.6579C-27.4724 94.2446 -28.3936 95.7616 -29.3499 97.2548C-29.9333 98.1666 -30.5307 99.0694 -31.1133 99.9734C-32.6511 102.358 -34.1562 104.763 -35.628 107.19C-35.5814 107.195 -35.5348 107.202 -35.488 107.214C-35.273 107.265 -35.0858 107.368 -34.9268 107.521C-34.7855 107.66 -34.6843 107.821 -34.6232 108.008L-34.6107 108.048C-34.5602 108.2 -34.5491 108.353 -34.5782 108.507C-34.5812 108.656 -34.6187 108.798 -34.6916 108.93L-34.7106 108.963C-34.8161 109.154 -34.9604 109.305 -35.1472 109.417C-35.3276 109.524 -35.5227 109.581 -35.7329 109.589C-35.9501 109.594 -36.153 109.544 -36.3442 109.44C-36.3656 109.431 -36.3871 109.422 -36.4079 109.411C-36.5527 109.339 -36.6688 109.237 -36.7561 109.106L-36.7715 109.09C-37.5095 110.326 -38.2396 111.567 -38.9595 112.814C-39.5877 113.9 -40.2243 114.981 -40.8497 116.069L-41.1618 116.613L-41.8488 117.818C-42.1296 118.314 -42.389 118.795 -42.8176 119.173L-42.8678 119.217C-43.1628 119.464 -43.4985 119.85 -43.9217 119.846C-44.2594 119.843 -44.583 119.598 -44.5836 119.243C-44.5846 118.946 -44.2954 118.678 -44.0248 118.626C-44.023 118.614 -44.0234 118.602 -44.0225 118.589C-44.0054 118.49 -44.0059 118.387 -43.9855 118.289C-43.9207 117.977 -43.7424 117.705 -43.5913 117.427C-43.323 116.938 -43.0381 116.458 -42.7572 115.977C-42.1583 114.953 -41.5553 113.933 -40.945 112.917C-38.8963 109.508 -36.726 106.166 -34.5235 102.854L-33.7795 101.737C-32.79 100.251 -31.7948 98.766 -30.7473 97.3225C-30.6974 97.2534 -30.6474 97.1844 -30.5965 97.1157C-30.6732 97.0051 -30.7312 96.8781 -30.7644 96.7538C-30.8966 96.2549 -30.8171 95.6611 -30.7631 95.1416L-30.7511 95.0231C-30.6968 94.4671 -30.6246 93.9137 -30.451 93.3798L-30.4354 93.3305C-30.3642 93.1016 -30.2466 92.6913 -29.9735 92.7113C-29.8311 92.7218 -29.7793 92.7985 -29.8046 92.9328C-29.8081 92.9502 -29.8211 92.9648 -29.8364 92.9732C-29.8223 93.1605 -29.7522 93.3666 -29.7334 93.5432L-29.6679 94.1454L-29.6374 94.4467C-29.6006 94.8321 -29.5442 95.2126 -29.4793 95.5929C-28.6754 94.52 -27.8367 93.4722 -26.8994 92.5123ZM-28.6438 125.29C-28.0994 125.2 -27.5688 125.702 -27.8707 126.253C-28.174 126.806 -28.882 126.625 -29.098 126.118L-29.1093 126.094L-29.1193 126.069C-29.2375 125.794 -29.0137 125.369 -28.7194 125.303L-28.6966 125.298C-28.679 125.294 -28.6618 125.292 -28.6438 125.29ZM-44.6364 115.119L-44.6041 115.138C-44.4318 115.232 -44.2954 115.364 -44.1941 115.533C-44.1563 115.617 -44.1197 115.702 -44.0824 115.788C-44.0288 115.971 -44.0246 116.157 -44.0682 116.344L-44.173 116.617C-44.2406 116.751 -44.3346 116.858 -44.4573 116.939C-44.5612 117.037 -44.6834 117.103 -44.8233 117.139C-44.9617 117.185 -45.0997 117.194 -45.2389 117.167C-45.3737 117.165 -45.5005 117.132 -45.6197 117.067L-45.652 117.048C-45.8251 116.953 -45.9615 116.822 -46.0628 116.653C-46.1008 116.568 -46.1372 116.483 -46.1746 116.398C-46.2272 116.214 -46.2323 116.028 -46.1887 115.841C-46.1537 115.751 -46.1179 115.66 -46.0838 115.569C-46.0162 115.435 -45.9215 115.328 -45.7996 115.246C-45.6957 115.149 -45.5736 115.082 -45.4337 115.047C-45.2952 115.001 -45.1573 114.991 -45.0179 115.018C-44.8832 115.02 -44.7557 115.054 -44.6364 115.119ZM-0.314804 137.137L-0.0898895 137.303C0.113613 137.483 0.206593 137.757 0.2244 138.021C0.233753 138.162 0.207783 138.295 0.146767 138.42C0.107655 138.555 0.0354309 138.673 -0.0691147 138.774C-0.161896 138.877 -0.273365 138.951 -0.402363 138.995C-0.453941 139.023 -0.508301 139.045 -0.564568 139.06C-0.710228 139.145 -0.870667 139.166 -1.03611 139.186C-1.17111 139.195 -1.29837 139.17 -1.41812 139.111C-1.50617 139.09 -1.58397 139.047 -1.65059 138.984C-1.76331 138.915 -1.85287 138.821 -1.91783 138.702C-1.95211 138.624 -1.98598 138.546 -2.01952 138.468C-2.03826 138.379 -2.05247 138.291 -2.06227 138.201C-2.05362 138.113 -2.04468 138.026 -2.0356 137.94C-1.99734 137.74 -1.8882 137.605 -1.76547 137.452C-1.74518 137.425 -1.72345 137.403 -1.69796 137.381L-1.64845 137.338C-1.51793 137.227 -1.46325 137.195 -1.30153 137.124L-1.23907 137.095C-1.2079 137.081 -1.17654 137.068 -1.14387 137.058C-1.05114 137.03 -0.93877 137.025 -0.843262 137.009C-0.655403 137.005 -0.479298 137.048 -0.314804 137.137ZM-31.4342 119.297L-31.4035 119.314C-31.2697 119.389 -31.162 119.491 -31.0825 119.623L-30.9951 119.824C-30.9538 119.968 -30.9499 120.112 -30.9835 120.259C-31.0116 120.331 -31.0389 120.402 -31.0658 120.473C-31.1185 120.578 -31.1925 120.663 -31.2892 120.727C-31.3696 120.803 -31.4652 120.854 -31.576 120.883C-31.6831 120.918 -31.7923 120.926 -31.9017 120.906C-32.0056 120.903 -32.1047 120.878 -32.1972 120.827L-32.2248 120.811C-32.36 120.737 -32.4671 120.634 -32.5467 120.502L-32.6346 120.302C-32.6759 120.158 -32.6793 120.013 -32.6458 119.866C-32.6176 119.795 -32.5908 119.724 -32.5634 119.652C-32.5107 119.547 -32.4366 119.462 -32.3405 119.399C-32.2592 119.323 -32.164 119.271 -32.0537 119.243C-31.946 119.207 -31.837 119.199 -31.7281 119.221C-31.6239 119.222 -31.5267 119.248 -31.4342 119.297ZM-37.3786 115.638C-37.1841 115.742 -37.0176 115.905 -36.9208 116.104C-36.8269 116.297 -36.7749 116.479 -36.7969 116.697C-36.803 116.757 -36.8085 116.815 -36.8173 116.873C-36.854 117.129 -36.9561 117.35 -37.1801 117.497C-37.3969 117.64 -37.6749 117.602 -37.9136 117.549C-38.1161 117.505 -38.3179 117.406 -38.4571 117.248C-38.5265 117.171 -38.5929 117.092 -38.6448 117.002C-38.7409 116.832 -38.7612 116.683 -38.7863 116.498C-38.7911 116.326 -38.7518 116.165 -38.6695 116.015C-38.5866 115.864 -38.472 115.745 -38.3244 115.656C-38.0356 115.483 -37.6741 115.478 -37.3786 115.638ZM-47.2942 110.432C-47.0496 110.566 -46.8968 110.797 -46.8541 111.069C-46.8113 111.344 -46.8888 111.615 -47.0862 111.819C-47.2949 112.035 -47.627 112.142 -47.9224 112.063C-48.1409 112.005 -48.2974 111.916 -48.4713 111.779C-48.6181 111.662 -48.6893 111.498 -48.7586 111.329C-48.8368 111.136 -48.7645 110.901 -48.6478 110.743C-48.5321 110.585 -48.3923 110.517 -48.2174 110.481L-48.215 110.479L-48.2783 110.489C-48.2534 110.483 -48.2282 110.477 -48.2028 110.47C-48.1922 110.464 -48.182 110.456 -48.1718 110.449C-48.0392 110.369 -47.8963 110.328 -47.7429 110.323C-47.583 110.32 -47.434 110.355 -47.2942 110.432ZM11.2594 138.897C11.4135 138.935 11.5487 139.009 11.6632 139.118C11.7497 139.196 11.8109 139.289 11.8471 139.396C11.8947 139.485 11.9214 139.581 11.9251 139.682L11.9255 139.717C11.9325 139.954 11.8364 140.169 11.6812 140.344C11.4891 140.561 11.1377 140.661 10.8593 140.584L10.8502 140.581L10.8407 140.579C10.7234 140.555 10.6198 140.505 10.5325 140.427C10.434 140.367 10.3568 140.286 10.3012 140.183C10.2305 140.053 10.1887 139.911 10.1782 139.764C10.1703 139.646 10.1921 139.536 10.2428 139.432C10.2619 139.356 10.2985 139.29 10.3526 139.232C10.4127 139.134 10.4936 139.057 10.597 139L10.7993 138.912L10.817 138.909C10.9634 138.866 11.1109 138.862 11.2594 138.897ZM4.62408 128.879C5.83829 129.545 4.80279 131.429 3.59043 130.764C2.37631 130.098 3.41173 128.214 4.62408 128.879ZM-39.6999 104.259C-39.5562 104.3 -39.4314 104.376 -39.3264 104.485C-39.2673 104.56 -39.2091 104.634 -39.1504 104.707L-39.0384 104.964C-39.019 105.014 -39.0197 105.057 -39.0102 105.119L-38.9984 105.196C-38.9824 105.31 -38.9904 105.328 -39.0186 105.536C-39.0646 105.726 -39.155 105.89 -39.29 106.031C-39.355 106.099 -39.4285 106.156 -39.5083 106.203C-39.583 106.249 -39.6607 106.282 -39.7416 106.308L-39.7823 106.32C-39.9207 106.366 -40.0596 106.375 -40.1995 106.349C-40.2984 106.352 -40.3906 106.329 -40.4768 106.282C-40.6203 106.24 -40.7452 106.165 -40.8501 106.055C-40.9092 105.981 -40.9674 105.907 -41.0261 105.833L-41.1382 105.577L-41.1815 105.3L-41.1668 105.159L-41.1523 105.018L-41.0469 104.744C-40.9788 104.609 -40.8849 104.502 -40.7617 104.42C-40.6943 104.352 -40.6144 104.303 -40.5227 104.276C-40.4404 104.227 -40.3515 104.201 -40.2558 104.198C-40.1641 104.171 -40.0703 104.17 -39.9771 104.191C-39.8782 104.189 -39.7859 104.211 -39.6999 104.259ZM21.0935 135.851C21.1965 135.903 21.2794 135.976 21.341 136.07C21.3659 136.097 21.3886 136.127 21.409 136.157C21.4851 136.284 21.5252 136.422 21.5299 136.569C21.5369 136.684 21.5162 136.792 21.4665 136.894C21.4376 136.994 21.3864 137.083 21.3131 137.159L21.2905 137.182C21.2299 137.244 21.1623 137.295 21.0876 137.334C21.0797 137.34 21.0711 137.344 21.062 137.348C20.946 137.412 20.8194 137.448 20.6844 137.452C20.5359 137.455 20.3963 137.422 20.2642 137.35C20.0021 137.207 19.8539 136.941 19.8353 136.647C19.8327 136.606 19.8429 136.561 19.8464 136.522C19.8505 136.486 19.8518 136.437 19.8604 136.397C19.8974 136.247 19.9696 136.115 20.0768 136.003C20.1529 135.919 20.2427 135.859 20.3477 135.823C20.4445 135.772 20.549 135.746 20.6607 135.747C20.8018 135.743 20.9349 135.773 21.0598 135.834L21.0935 135.851ZM-29.6664 106.811C-29.5189 106.847 -29.3899 106.914 -29.2788 107.013L-29.2514 107.039C-29.1628 107.119 -29.1001 107.214 -29.0619 107.324C-29.0081 107.426 -28.9805 107.536 -28.9813 107.653C-28.9774 107.814 -29.0144 107.964 -29.0908 108.106C-29.1689 108.246 -29.2763 108.358 -29.4133 108.441C-29.5473 108.521 -29.6917 108.562 -29.8473 108.567L-29.9761 108.56C-30.0908 108.567 -30.1973 108.546 -30.2981 108.497C-30.3735 108.479 -30.4393 108.442 -30.4944 108.389C-30.5611 108.353 -30.6141 108.302 -30.6531 108.237C-30.7064 108.185 -30.7429 108.124 -30.7638 108.052C-30.8159 107.956 -30.8413 107.853 -30.8403 107.742L-30.8183 107.523L-30.7364 107.313L-30.6034 107.131L-30.5097 107.058C-30.4 106.945 -30.2703 106.867 -30.1198 106.823C-29.9696 106.78 -29.8182 106.776 -29.6664 106.811ZM17.1218 130.441C17.2803 130.472 17.4178 130.54 17.5357 130.644C17.6264 130.693 17.6989 130.763 17.7523 130.853C17.8253 130.924 17.8759 131.007 17.9044 131.105C17.9754 131.237 18.0098 131.378 18.0092 131.531L17.9783 131.829C17.9536 132.019 17.8047 132.237 17.6814 132.375C17.5797 132.488 17.4584 132.568 17.3176 132.616C17.232 132.667 17.1402 132.694 17.0407 132.697C16.9121 132.728 16.7827 132.729 16.6525 132.701L16.6169 132.692L16.6043 132.689C16.6018 132.689 16.6 132.688 16.5982 132.687C16.5967 132.687 16.5948 132.686 16.5938 132.686C16.5434 132.672 16.4945 132.654 16.4462 132.63C16.2957 132.586 16.1643 132.507 16.0525 132.39C15.9912 132.313 15.9295 132.234 15.8676 132.156C15.8276 132.067 15.7889 131.976 15.7494 131.886C15.7341 131.789 15.719 131.691 15.7033 131.595C15.6926 131.438 15.722 131.29 15.7902 131.153C15.8152 131.05 15.864 130.961 15.9375 130.884C15.9878 130.792 16.0572 130.721 16.1457 130.667C16.2556 130.563 16.3846 130.493 16.534 130.456C16.6314 130.44 16.7281 130.425 16.8251 130.41C16.9245 130.42 17.0238 130.43 17.1218 130.441ZM-40.1302 94.724C-39.9696 94.7626 -39.8297 94.8394 -39.7107 94.9541L-39.566 95.1359C-39.5008 95.2368 -39.4646 95.3445 -39.4563 95.4612C-39.4275 95.5757 -39.4297 95.6915 -39.4621 95.8076C-39.4846 95.9784 -39.6135 96.1982 -39.7358 96.3179C-39.8744 96.4541 -40.0215 96.5421 -40.2062 96.5999C-40.5124 96.6947 -40.8446 96.5885 -41.0767 96.3816C-41.1409 96.3247 -41.1925 96.2542 -41.2337 96.1798C-41.3664 95.9454 -41.3828 95.6545 -41.2502 95.415C-41.236 95.3891 -41.2199 95.3641 -41.202 95.3403C-41.186 95.2803 -41.1607 95.2231 -41.1272 95.1666L-40.9846 94.9725L-40.9798 94.9679C-40.8699 94.8557 -40.7403 94.7775 -40.5898 94.7335C-40.4511 94.6938 -40.311 94.6868 -40.1701 94.714L-40.1349 94.7214L-40.1302 94.724ZM41.1692 112.251C42.0543 110.037 42.3276 107.283 38.7578 106.91L38.498 106.873C37.6309 106.751 36.5984 106.649 35.817 107.037C35.2786 107.305 34.9205 108.199 34.602 108.682C33.5122 110.22 32.7145 111.915 32.0149 113.658C30.1675 117.629 27.1844 121.158 23.6707 123.761C23.8508 127.239 24.6696 130.84 27.0056 133.529C28.7494 130.644 30.9175 128.062 33.1133 125.517L33.2065 125.405C34.1652 124.24 35.0199 122.974 36.4658 122.361C39.2351 121.428 41.0369 123.804 43.8397 121.403C43.6664 121.15 44.0266 120.808 44.2719 121.046C45.176 121.773 46.3576 120.005 45.9175 119.181C45.4422 118.353 46.6022 117.944 46.6164 117.197C46.5841 116.854 46.2228 116.645 46.215 116.266C46.3573 114.964 48.93 115.491 46.9989 112.876C46.5728 112.397 45.9169 112.189 45.384 111.894C44.5582 111.537 43.6301 111.748 42.8162 111.528C42.4871 113.984 39.4431 114.852 38.5493 112.257C37.0771 112.642 34.847 114.136 37.7377 114.455C39.3134 114.317 40.8523 113.867 42.4513 114.127L42.4844 114.133C43.0708 114.243 45.8254 114.379 45.2158 115.235C43.9697 115.574 42.6312 114.828 41.3375 114.949C39.6976 114.837 38.0569 115.844 36.5022 114.965C34.9384 116.96 38.1576 116.99 39.4156 116.894L39.7489 116.895C41.4427 116.906 43.1277 116.979 44.6561 117.806C45.0781 118.034 44.7205 118.681 44.2988 118.457C42.3063 117.38 40.0091 117.736 37.8394 117.746C36.9735 118.937 39.1546 119.404 39.9692 119.605C40.7722 119.909 42.4119 119.759 42.8307 120.543C42.7261 121.339 41.6299 120.674 41.1298 120.659C42.4443 122.496 40.5842 122.178 40.8286 120.597L40.6622 120.568C39.2466 120.315 35.8947 119.552 37.3503 117.716C36.8066 117.67 36.2097 117.493 35.7853 117.12C33.6016 118.243 32.0574 116.498 35.519 116.815C35.0499 116.177 35.4602 114.93 36.2961 114.84C34.1699 113.499 37.0696 112.086 38.4022 111.816C38.3639 111.682 38.3293 111.548 38.3009 111.415C37.6387 111.378 37.0034 111.227 36.3838 110.957C35.791 110.698 36.1926 109.667 36.7933 109.894C37.4369 110.138 38.0745 110.28 38.7652 110.268C39.7514 110.361 39.2118 111.99 39.9809 112.48C40.3689 112.805 40.8727 112.585 41.1692 112.251ZM12.1744 121.187C12.3671 121.293 12.4941 121.467 12.5638 121.672C12.6336 121.877 12.5885 122.101 12.4963 122.289C12.4461 122.39 12.3754 122.47 12.2842 122.531C12.2072 122.603 12.1165 122.652 12.0114 122.679C11.8111 122.737 11.5757 122.711 11.3933 122.611C11.2006 122.506 11.0736 122.331 11.0037 122.126C10.9346 121.921 10.979 121.697 11.0718 121.508C11.1215 121.409 11.1923 121.328 11.2834 121.267C11.3527 121.202 11.4335 121.155 11.5252 121.128L11.5562 121.119C11.7571 121.061 11.9919 121.087 12.1744 121.187ZM20.4219 119.995L20.4524 120.012C20.6149 120.103 20.7436 120.226 20.8396 120.385C20.8748 120.466 20.9105 120.545 20.9448 120.626C20.9949 120.8 20.9991 120.975 20.9579 121.151C20.914 121.334 20.8261 121.495 20.6952 121.63C20.63 121.714 20.5469 121.784 20.451 121.831C20.2987 121.92 20.1347 121.969 19.9581 121.974C19.7758 121.979 19.6049 121.937 19.4442 121.85C19.2845 121.762 19.1571 121.64 19.0634 121.484C18.9732 121.332 18.9261 121.167 18.92 120.992C18.9075 120.885 18.922 120.777 18.9576 120.677C19.0014 120.494 19.0893 120.334 19.2203 120.198C19.3377 120.078 19.4751 119.991 19.6334 119.938L19.6703 119.927C19.8001 119.883 19.9305 119.874 20.0624 119.899C20.1893 119.902 20.3091 119.933 20.4219 119.995ZM-24.1541 95.6101C-24.0753 95.6292 -24.0077 95.6663 -23.9493 95.7224C-23.8499 95.7829 -23.7714 95.8658 -23.7139 95.9698C-23.6843 96.0389 -23.6544 96.1073 -23.6243 96.1756L-23.6089 96.2547C-23.5769 96.4255 -23.5854 96.4469 -23.6096 96.6669C-23.6339 96.7838 -23.6841 96.8864 -23.7612 96.9743C-23.7983 97.0419 -23.8505 97.0953 -23.9159 97.1353C-23.9694 97.1892 -24.0314 97.2275 -24.1041 97.2479C-24.1684 97.286 -24.2377 97.307 -24.3126 97.3095C-24.4209 97.3357 -24.531 97.3343 -24.6419 97.3036L-24.8558 97.2212C-24.8796 97.2034 -24.9045 97.1849 -24.9289 97.1679C-24.9596 97.1498 -24.988 97.1296 -25.0146 97.1076L-25.0411 97.0846L-25.0645 97.0622C-25.0949 97.0317 -25.1225 96.9983 -25.147 96.9615C-25.2016 96.9074 -25.2403 96.844 -25.2622 96.7694C-25.316 96.67 -25.343 96.561 -25.3419 96.4448L-25.3386 96.4081C-25.3388 96.3668 -25.3359 96.3264 -25.3278 96.285C-25.3287 96.2122 -25.312 96.1443 -25.2778 96.0798C-25.2496 95.9847 -25.2021 95.901 -25.1338 95.8288L-25.1103 95.8052L-24.946 95.6747C-24.8775 95.6377 -24.8065 95.6006 -24.7307 95.5807C-24.686 95.5705 -24.581 95.5535 -24.5238 95.5474L-24.4892 95.5445C-24.3706 95.5372 -24.2584 95.5589 -24.1541 95.6101ZM-34.5933 88.161C-34.1717 87.7088 -33.3917 87.9209 -33.2224 88.5018C-33.0533 89.0829 -33.597 89.6812 -34.1952 89.5267L-34.2637 89.5084C-34.8418 89.3588 -35.0478 88.6493 -34.6406 88.2122L-34.5933 88.161ZM31.3269 118.743C31.3516 118.689 31.4284 118.707 31.445 118.756C31.6719 119.401 31.693 120.037 32.0646 120.644C32.4385 121.254 33.0134 121.537 33.4709 122.049C33.6259 122.224 33.4855 122.482 33.2549 122.443C31.9747 122.229 30.7858 119.922 31.3269 118.743ZM-19.1095 90.9731C-18.9696 91.0016 -18.8462 91.0621 -18.7414 91.1545C-18.6599 91.1992 -18.5953 91.2612 -18.5481 91.34C-18.483 91.4035 -18.4385 91.4786 -18.4125 91.565C-18.3667 91.6421 -18.343 91.7262 -18.3394 91.816C-18.3074 91.947 -18.3096 92.0783 -18.346 92.2103L-18.4461 92.4675L-18.6092 92.6902C-18.6788 92.7447 -18.7491 92.8003 -18.8179 92.8554L-18.9621 92.9222C-19.0783 92.9749 -19.0895 92.9699 -19.3185 93.0015C-19.4581 93.0103 -19.5901 92.9851 -19.7121 92.9242C-19.804 92.9027 -19.8837 92.859 -19.952 92.7926C-20.0325 92.7484 -20.0974 92.6863 -20.1453 92.607C-20.2097 92.544 -20.2549 92.4685 -20.281 92.3819C-20.344 92.2642 -20.3747 92.1377 -20.3738 92.002C-20.3653 91.9139 -20.356 91.8248 -20.3466 91.7373L-20.2475 91.4795L-20.0834 91.2573L-20.0775 91.2509C-19.9526 91.1242 -19.8049 91.0352 -19.6352 90.9848L-19.3792 90.9444C-19.284 90.9376 -19.1982 90.9546 -19.1095 90.9731ZM24.0266 114.866C24.3218 114.936 24.5628 115.165 24.6475 115.456C24.7324 115.748 24.6526 116.069 24.4414 116.287C24.2347 116.499 23.9225 116.592 23.6343 116.522C23.5482 116.501 23.4661 116.47 23.3912 116.425C23.2629 116.353 23.1604 116.254 23.0839 116.128L23.001 115.937C22.966 115.833 22.9592 115.73 22.9792 115.625C22.9805 115.515 23.0105 115.412 23.0686 115.315L23.0774 115.297C23.0938 115.26 23.1178 115.227 23.1478 115.199C23.1676 115.163 23.1925 115.131 23.2206 115.101C23.4253 114.888 23.7399 114.798 24.0266 114.866ZM-29.9046 82.0222C-29.8206 82.0646 -29.7529 82.1234 -29.7024 82.2005C-29.6406 82.2658 -29.599 82.3416 -29.5779 82.4303C-29.5481 82.5166 -29.5429 82.6038 -29.5594 82.6911C-29.5607 82.7834 -29.5862 82.8694 -29.6341 82.9503C-29.6936 83.0587 -29.7768 83.1444 -29.8813 83.2076C-29.9352 83.2312 -29.989 83.2546 -30.0423 83.2772C-30.1576 83.3116 -30.2735 83.3143 -30.3912 83.2871L-30.4616 83.275C-30.566 83.2588 -30.6522 83.2139 -30.7364 83.1521C-30.8246 83.0868 -30.8985 83.0125 -30.9437 82.9106C-30.9953 82.8244 -31.0224 82.7312 -31.0252 82.6309L-31.01 82.4825C-30.9988 82.4357 -30.9699 82.372 -30.9493 82.3278C-30.9457 82.3213 -30.9427 82.3158 -30.94 82.3087C-30.9202 82.2726 -30.8609 82.1908 -30.8318 82.1596C-30.7697 82.0948 -30.6885 82.0453 -30.6076 82.0102C-30.5318 81.9687 -30.4488 81.949 -30.3599 81.9496L-30.3513 81.9483L-30.3419 81.9474C-30.3125 81.9442 -30.2821 81.9416 -30.2512 81.938C-30.1291 81.9351 -30.013 81.9628 -29.9046 82.0222ZM18.283 107.596C18.4311 107.678 18.5483 107.791 18.6355 107.936C18.639 107.94 18.6426 107.944 18.6452 107.948C18.728 108.088 18.7718 108.238 18.7771 108.4C18.7815 108.568 18.7432 108.725 18.6629 108.872C18.5822 109.019 18.4705 109.135 18.3268 109.221C18.1873 109.304 18.0369 109.348 17.8748 109.353C17.8697 109.354 17.8641 109.353 17.8585 109.352C17.69 109.356 17.5317 109.318 17.383 109.237C17.2362 109.156 17.1185 109.043 17.0313 108.899C16.8616 108.615 16.8549 108.256 17.0134 107.967C17.1721 107.678 17.4785 107.49 17.8083 107.482C17.9769 107.478 18.1357 107.516 18.283 107.596ZM-19.5917 85.4291L-19.5662 85.4424C-19.466 85.4924 -19.3856 85.5631 -19.3262 85.6548C-19.2539 85.7317 -19.2041 85.823 -19.1772 85.9281L-19.104 86.1152L-19.0822 86.1686C-19.0787 86.1775 -19.0753 86.1865 -19.0722 86.1955C-19.0316 86.3369 -19.0285 86.4785 -19.0614 86.6219C-19.0895 86.6994 -19.1189 86.7748 -19.1505 86.8503C-19.2318 87.0467 -19.4453 87.1768 -19.6378 87.2424C-19.7408 87.2763 -19.8446 87.2831 -19.9497 87.264C-20.0594 87.2619 -20.1631 87.2313 -20.2593 87.1737C-20.4507 87.046 -20.618 86.8987 -20.6771 86.6638C-20.6837 86.6361 -20.6888 86.608 -20.6947 86.5794L-20.7373 86.3825C-20.7765 86.2454 -20.7803 86.107 -20.7475 85.9683C-20.7217 85.8993 -20.6954 85.8317 -20.6692 85.7642C-20.5735 85.5696 -20.3833 85.4425 -20.1849 85.3754C-20.0015 85.313 -19.7651 85.3431 -19.5917 85.4291ZM-23.1968 80.9139C-22.2336 81.4422 -23.0552 82.9357 -24.0165 82.4085C-24.9789 81.8807 -24.1573 80.3871 -23.1968 80.9139ZM26.3804 105.38L26.4104 105.397C26.5693 105.486 26.6965 105.607 26.7904 105.764L26.8942 106C26.9426 106.172 26.9473 106.343 26.9077 106.516C26.8747 106.601 26.8417 106.685 26.8101 106.769C26.7477 106.894 26.6591 106.993 26.5457 107.069C26.4506 107.159 26.3371 107.221 26.2066 107.254C26.0789 107.296 25.9508 107.305 25.8214 107.28C25.6853 107.278 25.5571 107.241 25.4383 107.17C25.2787 107.081 25.1513 106.96 25.0575 106.803C25.0228 106.724 24.9889 106.645 24.9536 106.567C24.909 106.409 24.9015 106.251 24.9326 106.091L24.9412 106.051L25.0383 105.797C25.1003 105.673 25.1886 105.573 25.3021 105.498C25.3979 105.407 25.5109 105.346 25.6412 105.313C25.7691 105.271 25.898 105.262 26.0266 105.287C26.1512 105.289 26.2694 105.32 26.3804 105.38ZM23.5764 100.203C23.6641 100.248 23.7341 100.309 23.7878 100.389C23.8509 100.456 23.8937 100.536 23.9172 100.627C23.9844 100.789 23.9528 101.019 23.868 101.174C23.7831 101.329 23.6053 101.48 23.4334 101.51C23.3134 101.544 23.1923 101.547 23.0704 101.519L22.8924 101.45C22.7272 101.369 22.6095 101.195 22.5526 101.026C22.5411 100.992 22.5306 100.959 22.5186 100.926C22.4669 100.772 22.5003 100.604 22.5695 100.462C22.6068 100.387 22.6602 100.327 22.7285 100.282C22.7865 100.227 22.8545 100.19 22.9333 100.17C22.9677 100.162 23.0015 100.153 23.0364 100.144C23.2251 100.097 23.4033 100.119 23.5764 100.203ZM53.797 110.295C54.8123 109.888 54.7475 109.165 53.7323 108.847C52.0399 108.196 50.0109 108.379 48.2316 108.332C46.2784 108.302 44.3557 108.106 42.3985 108.011C42.8213 108.751 42.9591 109.624 42.9377 110.522C43.9617 110.37 45.0298 110.614 45.9506 111.074C48.447 110.404 51.354 111.532 53.797 110.295ZM-19.4539 73.3212C-19.2893 73.4125 -19.156 73.5361 -19.0536 73.693L-19.0321 73.7272L-18.9183 73.9897C-18.8708 74.1314 -18.861 74.2741 -18.8878 74.4174C-18.8907 74.5676 -18.9326 74.7098 -19.0114 74.8426C-19.081 74.9804 -19.1779 75.0911 -19.303 75.1744C-19.4099 75.2748 -19.535 75.3424 -19.6801 75.3785C-19.7738 75.4199 -19.8747 75.4369 -19.9814 75.4315C-20.078 75.4206 -20.174 75.4114 -20.271 75.4016C-20.3742 75.3811 -20.4781 75.3289 -20.5761 75.2812C-20.7488 75.1853 -20.8859 75.0534 -20.9884 74.8839L-21.1005 74.6273C-21.1462 74.4888 -21.1566 74.3493 -21.13 74.2085C-21.1273 74.073 -21.0936 73.9453 -21.0278 73.8253L-21.009 73.7927C-21.005 73.7854 -21.0004 73.7769 -20.9948 73.7692C-20.936 73.6881 -20.8761 73.6077 -20.8165 73.5272C-20.7157 73.416 -20.5958 73.3359 -20.4569 73.2892C-20.4103 73.2569 -20.3609 73.237 -20.3065 73.2282C-20.1173 73.1729 -19.9272 73.1688 -19.7344 73.2129C-19.6413 73.2496 -19.5476 73.2852 -19.4539 73.3212ZM24.8665 94.4367L24.8944 94.4526C25.0194 94.5211 25.1179 94.6161 25.1914 94.7372C25.2187 94.7993 25.2452 94.8607 25.2717 94.9222C25.3107 95.0557 25.3141 95.1901 25.2824 95.3246L25.2069 95.5217C25.1572 95.6187 25.0894 95.6961 25.0006 95.7548C24.9262 95.8247 24.8383 95.8729 24.7361 95.8988C24.637 95.9323 24.537 95.9391 24.4356 95.9196C24.3302 95.9184 24.2306 95.8891 24.1372 95.8332C24.0131 95.7651 23.9137 95.6695 23.8408 95.5476C23.8138 95.487 23.7864 95.4249 23.7599 95.3634C23.7251 95.2416 23.7194 95.1185 23.743 94.9952L23.7502 94.9615L23.826 94.7643C23.8746 94.667 23.9423 94.5896 24.0309 94.531C24.1059 94.4601 24.1949 94.4124 24.2955 94.3868C24.3957 94.3536 24.4957 94.3472 24.5962 94.3661C24.6918 94.3676 24.782 94.3915 24.8665 94.4367ZM-12.1435 72.8319L-12.1115 72.8501C-11.9277 72.9522 -11.7818 73.0925 -11.6733 73.2725C-11.6338 73.363 -11.5941 73.4534 -11.5551 73.5447C-11.4978 73.7412 -11.4931 73.939 -11.5389 74.1392L-11.6513 74.4296C-11.723 74.5734 -11.8243 74.6878 -11.9548 74.7741C-12.0651 74.8789 -12.1955 74.9495 -12.3463 74.9872C-12.4924 75.0362 -12.6403 75.0466 -12.7896 75.0178C-12.9459 75.0151 -13.0929 74.9732 -13.2305 74.8904C-13.4148 74.7893 -13.5608 74.649 -13.6693 74.4689C-13.7087 74.3786 -13.7478 74.2874 -13.7883 74.1964C-13.8442 73.9994 -13.8489 73.8015 -13.8035 73.6022L-13.6907 73.311C-13.6196 73.168 -13.5178 73.0528 -13.3873 72.9664C-13.2775 72.8628 -13.1465 72.7911 -12.9971 72.7538C-12.8496 72.7046 -12.7017 72.6939 -12.5525 72.7228C-12.4081 72.7252 -12.2723 72.7619 -12.1435 72.8319ZM23.548 89.0943C23.6445 89.1182 23.7287 89.1644 23.8007 89.2329C23.9237 89.3075 24.0206 89.4101 24.0917 89.5395L24.2021 89.793C24.2033 89.7971 24.2046 89.8016 24.2053 89.8068C24.2571 89.987 24.2618 90.1693 24.2194 90.3521L24.1161 90.6197C24.0501 90.751 23.9573 90.8566 23.8379 90.9359C23.7444 91.0237 23.636 91.0852 23.5127 91.1222L23.4658 91.1354C23.3287 91.1808 23.1917 91.1912 23.0532 91.1647C22.9553 91.1677 22.8629 91.1448 22.7777 91.0981C22.6362 91.0577 22.5123 90.9826 22.4081 90.8735C22.351 90.8 22.2922 90.7268 22.2336 90.6538L22.2171 90.6265C22.0167 90.3131 22.0197 89.8881 22.1961 89.5665C22.3725 89.2449 22.7298 89.0131 23.1019 89.0134C23.1123 89.0144 23.1222 89.0137 23.1331 89.0137C23.2805 89.0042 23.4189 89.0307 23.548 89.0943Z" fill="#1C1C1C"/>
<path fill-rule="evenodd" clip-rule="evenodd" d="M49.3888 39.8734C45.2342 35.7032 27.3859 27.8525 26.792 27.9365C25.7886 28.1314 21.4394 28.1104 20.6901 28.2393C13.2307 30.6533 13.6538 40.5459 9.99887 46.389C8.84721 48.541 6.864 49.9949 5.31585 51.8237C4.54722 52.8056 3.97415 53.9429 4.00498 55.2198C4.04391 57.4926 5.93842 58.9881 7.25295 60.6169C7.89802 61.4439 8.40421 62.3925 8.81801 63.3536C11.3243 70.3348 12.4164 74.7731 20.0559 77.6984C19.9061 78.0577 20.0237 78.556 20.4795 78.6087C21.5469 78.7318 22.6199 78.8299 23.6848 78.9757C23.6242 79.5323 24.0935 79.9581 24.6792 79.7584L24.6797 79.7625C27.0339 79.334 29.0613 78.0947 30.8921 76.5816C32.0429 75.7606 33.1228 74.8376 34.1176 73.8229C34.2301 73.7081 34.2916 73.584 34.3145 73.4607C38.8086 68.9541 42.4821 63.6211 45.1248 57.8321C45.6716 56.6386 46.0929 55.3564 46.7785 54.2328C47.398 53.2176 48.387 52.4783 49.261 51.6958C53.2861 48.539 52.6311 43.3408 49.3888 39.8734Z" fill="white"/>
<path fill-rule="evenodd" clip-rule="evenodd" d="M53.6843 33.5192L53.7595 33.5072C54.5763 33.3723 55.4367 33.0802 56.121 33.742C56.6823 34.2849 56.7159 35.0144 56.4952 35.7528C56.8116 35.6527 57.1264 35.5421 57.4407 35.4216C58.2948 35.0946 59.2796 36.047 59.0069 36.911C58.4591 38.6523 57.5987 40.2583 56.4316 41.6635C56.2547 41.8762 56.0699 42.0834 55.8775 42.2828C56.4621 42.0406 57.0328 41.7666 57.5834 41.4503C58.1805 41.1064 58.7496 41.7513 58.4964 42.3295C58.4311 42.4793 58.3592 42.6279 58.2813 42.7744C58.4599 42.9736 58.4877 43.2854 58.2759 43.5332C57.109 44.8963 55.8676 46.1909 54.5581 47.4143C55.5769 47.4283 56.5976 47.6651 57.2681 48.4174C58.3325 49.6135 57.8556 51.2297 56.9157 52.3305C55.7339 53.7143 53.9943 54.4608 52.2054 54.5945C51.9198 54.744 51.635 54.8963 51.3551 55.0574C50.9778 55.7387 50.4802 56.3517 49.883 56.8473C49.2117 57.4036 48.3783 57.7456 47.5109 57.8773C47.0394 58.2275 46.2829 58.2572 45.8353 57.8885L45.812 57.8687L45.8106 57.8691C45.6874 58.3969 45.544 58.9197 45.3853 59.4353C44.1553 63.4296 41.7321 66.9607 39.1009 70.1601L39.0169 70.2621C36.67 73.1066 34.162 76.0097 31.1765 78.2086C28.4766 80.1965 25.0926 81.3909 21.7754 80.3284C17.873 79.0787 14.5643 75.8526 12.5235 72.3794C11.784 71.1204 13.7399 69.9442 14.4688 71.2117C15.5213 73.0401 16.8691 74.6532 18.4902 76.0028C20.0061 77.2632 21.8423 78.4162 23.8447 78.625C26.6334 78.9155 29.2561 77.3276 31.3096 75.6046C32.5205 74.5875 33.6283 73.4595 34.7132 72.3117C36.109 70.8367 37.4803 69.3338 38.7576 67.754C41.1391 64.8068 43.1924 61.5157 44.3685 57.8953C44.7441 56.7406 45.0407 55.5341 45.2298 54.3217C45.2115 54.2188 45.2006 54.1092 45.1993 53.9952C45.1847 53.1145 45.339 52.2072 45.4526 51.3258C45.4407 50.7565 45.3966 50.1911 45.3308 49.6259C45.0809 49.0567 44.8642 48.4759 44.6997 47.8816C46.1835 47.773 47.6366 47.415 48.952 46.6654C49.1689 46.5417 49.1939 46.3235 49.1132 46.1485C48.1771 46.5387 47.1359 46.7328 46.0943 46.8395C45.5253 46.9589 44.9449 47.0281 44.3602 47.0577C44.0141 46.9483 43.6752 46.8176 43.3501 46.6846C42.4242 46.3057 41.5683 45.7881 40.765 45.1968C39.0276 43.9185 32.2978 37.386 28.4902 36.4021C27.6971 36.1972 27.0263 36.6417 26.336 37.026C25.7365 37.3608 25.0981 37.56 24.4195 37.6401L24.344 37.6486C23.0277 37.7859 19.9634 38.8238 18.1341 40.2469C15.7722 42.0842 10.814 48.7526 11.2403 49.0671C12.3549 49.8906 12.6741 50.8901 13.2819 52.1081C13.3223 52.1882 13.2183 52.2878 13.1517 52.2115C12.6324 51.6229 12.0079 51.1008 11.391 50.6154C10.8334 50.1758 10.1971 49.8027 9.4839 49.6972C8.38942 49.5356 7.52754 50.0548 6.87349 50.8145C6.6177 51.1117 6.39361 51.4456 6.19933 51.791L6.14354 51.8915C5.54319 52.9873 5.08126 54.3137 5.43323 55.558C5.58274 56.0871 5.91415 56.5702 6.35884 56.8973C6.84536 57.2557 7.29962 57.1963 7.84975 57.3378C8.4832 57.5008 8.71592 58.1045 8.40234 58.5532C8.46355 58.7206 8.51801 58.8915 8.57053 59.0637L8.57039 59.0642L8.57095 59.0651C8.62675 59.1391 8.67274 59.2222 8.70718 59.311C8.76305 59.4574 8.79768 59.6029 8.81064 59.7462C8.95039 59.8626 9.05266 60.032 9.08843 60.259C9.16281 60.7252 9.21571 61.1845 9.24838 61.6411C9.41114 62.2692 9.57154 62.8971 9.72282 63.5285C9.90536 64.2877 10.0693 65.0518 10.2378 65.8144L10.3225 66.1956C10.4142 66.6063 10.5049 67.0164 10.5951 67.4274L10.6227 67.5488C10.7168 67.9561 10.7932 68.2606 10.6035 68.6686C10.4619 68.9707 10.0392 68.9967 9.81552 68.7873C9.47102 68.4637 9.45758 68.0464 9.38866 67.6019L9.18016 66.3103C9.1306 65.9987 9.07869 65.687 9.02769 65.3757C8.75671 65.749 8.15517 65.8397 7.75837 65.645L7.66619 65.599C6.74052 65.1305 5.70606 64.3963 5.36575 63.3757C4.88228 63.5191 4.35946 63.5541 3.80117 63.4408C2.53256 63.1837 1.75264 61.9785 1.8131 60.8293C0.764076 60.7276 -0.235588 60.2745 -1.00656 59.5033C-1.45082 59.0577 -1.27187 58.2973 -0.681385 58.0956L-0.655067 58.0871L-0.648163 58.0846C-0.669968 57.9438 -0.645363 57.7996 -0.579708 57.6639C-0.500034 57.4991 -0.290039 57.3932 -0.232048 57.2304C-0.0109329 56.6093 -1.17307 56.5219 -1.5365 56.4833C-1.6059 56.4759 -1.66502 56.458 -1.71545 56.4327C-2.24554 56.3151 -2.41311 55.4417 -1.90171 55.0772C-0.757664 54.2631 0.377991 53.4337 1.5275 52.6251C1.44626 52.6107 1.36419 52.5934 1.28507 52.5729C0.172596 52.2881 -0.746883 51.1595 0.123066 50.1071C0.32637 49.8595 0.680107 49.8076 0.975075 49.8585C1.55001 49.9569 1.847 50.2765 2.3047 50.325C2.8198 50.381 3.4332 50.3016 3.96698 50.2027C4.53644 50.098 5.07403 49.924 5.58949 49.6981C6.02142 49.1961 6.5276 48.7675 7.11715 48.4834C7.15277 48.4668 7.18839 48.4502 7.22443 48.435C5.36592 46.7522 6.79976 44.802 6.87914 42.4204L6.88421 42.2221C6.92762 40.6237 7.13993 38.9112 8.24188 37.6683C8.43703 37.4487 8.652 37.2545 8.88242 37.0892C8.69939 37.0165 8.51645 36.9415 8.33443 36.867C7.91642 36.6955 7.7948 35.9684 8.15612 35.6808C8.34578 35.5305 8.54021 35.3913 8.73901 35.2617C9.28877 34.9051 9.87518 34.629 10.4965 34.4298C9.84484 34.0495 9.18262 33.6863 8.57042 33.2516C7.99179 32.8415 7.52804 32.1472 7.93786 31.4451C8.3296 30.7763 9.20745 30.5888 9.94169 30.5604C10.8823 30.1351 11.9018 29.9121 12.927 29.8931C12.7917 29.7738 12.6495 29.6623 12.4992 29.5593L12.4234 29.5085C11.9972 29.229 11.6642 28.8872 11.3625 28.4795C11.0928 28.1146 11.3758 27.6118 11.7518 27.4865C12.9682 27.0796 13.9647 27.9759 14.5953 28.9373C14.5765 28.8247 14.5502 28.7116 14.516 28.5986L14.4945 28.5307C14.2806 27.8834 15.2956 27.5897 15.5088 28.2348C15.5761 28.4386 15.623 28.6457 15.652 28.8539L15.6744 28.8377C16.8912 27.9851 18.3071 27.4011 19.7633 27.1096L20.1043 27.0432C22.7249 26.5272 23.6697 26.1196 25.9382 27.6514C26.0745 27.1613 26.3524 26.6782 26.5956 26.2891L26.6286 26.2367C27.5486 24.7767 29.0967 23.2743 30.9413 23.4038C31.4199 23.4385 31.6963 23.9625 31.3541 24.3449C31.1125 24.6162 30.8598 24.8705 30.5903 25.1048C31.0972 24.9428 31.615 24.8159 32.1395 24.7251C34.2774 24.3549 36.8245 24.425 38.5967 25.8309C39.5699 26.6045 40.0428 27.7413 40.6331 28.7979C41.2261 29.8608 42.0511 30.7508 43.0432 31.4528C44.4287 32.4345 46.0074 33.0774 47.6182 33.609C48.8635 33.7219 50.1203 33.7435 51.3758 33.7126C52.1476 33.6936 52.921 33.6345 53.6843 33.5192ZM9.43221 51.9178C9.78947 52.0089 10.14 52.2024 10.4108 52.4533C11.1094 53.1016 11.4913 54.1934 11.0695 55.0745C10.8788 55.4725 10.3649 55.6715 9.9493 55.5726C9.47793 55.4611 9.23575 55.0679 9.17263 54.6162C9.10411 54.1327 9.24398 53.7261 9.10076 53.2426L9.06705 53.1324C8.94019 52.7307 8.71764 52.1792 8.31477 52.0353C8.25555 52.0137 8.25546 51.9172 8.32729 51.918C8.71968 51.9187 9.03426 51.8152 9.43221 51.9178ZM15.8507 50.199C16.0577 50.1606 16.1715 50.4012 16.0121 50.5322L16.0003 50.5413C15.6346 50.806 15.6036 51.3349 15.645 51.747C15.6801 52.1025 15.2111 52.1647 15.0368 51.9245C14.5478 51.2477 15.0918 50.3371 15.8507 50.199ZM24.1615 40.7797C24.1972 40.686 24.3328 40.7134 24.3152 40.8158C24.0227 42.5199 23.4682 43.867 22.5562 45.3386L22.4748 45.469C21.5868 46.8812 20.4836 48.2863 18.9427 49.001C18.5861 49.1657 18.2569 48.7731 18.5156 48.4618C19.5518 47.2162 20.7994 46.1781 21.7762 44.8783C22.7973 43.5196 23.5539 42.3665 24.1615 40.7797ZM16.6935 43.4609C16.9756 43.1179 17.7797 43.0467 17.8661 43.5943C17.8945 43.7798 17.6889 43.8755 17.5421 43.8577C17.4047 43.8402 17.3373 43.7237 17.214 43.6849C17.1141 43.6538 17.0176 43.6738 16.9318 43.7266L16.9136 43.7383C16.7351 43.8574 16.5735 43.6072 16.6935 43.4609ZM18.1246 40.2805C18.5503 40.0054 19.1732 40.0228 19.4554 40.4946C19.5483 40.6504 19.366 40.8553 19.2033 40.7565L19.1068 40.6983C18.8162 40.5249 18.5164 40.3683 18.1643 40.4192C18.0858 40.4304 18.0679 40.3181 18.1246 40.2805ZM24.7239 30.0097C23.8316 28.8272 22.3898 28.6621 21.0111 28.8817C20.8971 28.8999 20.8185 28.9511 20.7701 29.0192C21.5538 29.1218 22.3317 29.334 23.0636 29.5584C23.662 29.7417 24.2457 29.9641 24.8051 30.2323C24.8046 30.1611 24.7811 30.0855 24.7239 30.0097Z" fill="#1C1C1C"/>
<path fill-rule="evenodd" clip-rule="evenodd" d="M23.8182 71.1547C23.3349 70.5592 23.0119 69.8306 22.9027 69.0664C22.8648 68.8008 22.9372 68.5819 23.0665 68.4164C23.2119 68.2303 23.4344 68.1113 23.6674 68.0774C23.9012 68.0435 24.1417 68.0955 24.3245 68.2365C24.4834 68.3591 24.6042 68.5491 24.6328 68.8216L24.6398 68.8768C24.702 69.336 24.8696 69.7767 25.1333 70.1462C25.3875 70.5023 25.7313 70.792 26.156 70.9661C26.9649 71.2978 27.7159 71.1736 28.5808 70.9201C28.6887 70.8874 28.7979 70.8525 28.908 70.8166C28.9888 70.7736 29.0734 70.7639 29.1535 70.7783C29.2424 70.7944 29.3266 70.8425 29.3895 70.9123C29.4502 70.9797 29.4901 71.0662 29.4989 71.157C29.5072 71.2433 29.4888 71.3342 29.432 71.4192C29.0629 71.9711 28.4759 72.3225 27.8225 72.4927C27.0968 72.6818 26.2917 72.6465 25.635 72.4287C24.9114 72.1888 24.289 71.7349 23.8182 71.1547ZM30.9691 63.4389C31.4353 64.2478 31.957 65.824 30.6263 66.4656C29.2308 66.9095 28.5403 65.1442 28.1764 64.3175C27.7987 63.6244 26.617 64.2262 26.9183 64.9589C29.6143 70.8122 34.8181 65.6946 31.5971 63.1329C31.2425 62.8508 30.8581 63.2068 30.9691 63.4389ZM24.9782 55.0643C25.5818 54.1471 27.1621 54.7304 26.7866 55.7596C26.4502 56.6816 25.8685 57.3789 25.0655 57.9346C24.2983 58.4655 23.5658 57.6197 23.8616 56.9154C24.2582 55.9713 24.6028 55.6348 24.9782 55.0643ZM36.3312 60.7386C36.6812 60.5834 37.0752 60.5625 37.371 60.8587C38.2953 61.7843 37.1134 63.1696 36.3094 63.7186C35.8727 64.0166 35.1363 63.749 35.029 63.2168C34.8543 62.3492 35.2647 61.0329 36.2211 60.7971C36.2549 60.7764 36.2908 60.7564 36.3312 60.7386ZM28.543 51.5577L28.7336 51.6226C29.3225 51.8246 30.0404 52.102 30.1836 52.7433C30.2596 53.0834 30.0952 53.5479 29.7035 53.6187C29.0144 53.7433 28.569 53.3043 27.9792 53.0233C27.4931 52.7919 26.9975 52.6215 26.4723 52.5024C25.3204 52.2409 24.2238 52.3157 23.0603 52.4199C22.9076 52.4336 22.872 52.2283 22.9825 52.1531C24.0012 51.4604 25.386 51.192 26.6033 51.233C27.253 51.2549 27.9266 51.3469 28.543 51.5577ZM37.634 55.9834L37.7522 56.0836C39.0343 57.1808 40.5842 58.8178 40.4895 60.6171C40.4052 60.8327 40.354 60.8607 40.316 60.8765L40.3034 60.8818C40.2717 60.8957 40.2388 60.9208 40.1366 60.9003C40.1155 60.8813 40.0944 60.8618 40.0733 60.8418C39.8041 60.5869 39.6177 60.337 39.4415 60.0871L39.251 59.8152C39.0296 59.5005 38.8025 59.1897 38.5366 58.9064C37.9692 58.3018 37.3455 57.753 36.6701 57.2723C36.5237 57.1681 36.402 57.0326 36.3328 56.8769C36.2671 56.7291 36.2462 56.5628 36.2936 56.3831C36.355 56.1505 36.4546 56.0035 36.6656 55.8791C36.8242 55.7857 36.9951 55.7544 37.161 55.7736C37.3301 55.7931 37.4948 55.8662 37.634 55.9834Z" fill="#1C1C1C"/>
</g>
</svg>
