<svg width="184" height="95" viewBox="0 0 184 95" fill="none" xmlns="http://www.w3.org/2000/svg">
<path d="M7.47021 83.8037H171.812" stroke="black" stroke-width="0.5"/>
<ellipse cx="11.7949" cy="83.0133" rx="11.7949" ry="11.859" fill="#E0E0E0"/>
<ellipse cx="92.0002" cy="83.0133" rx="11.7949" ry="11.859" fill="#5557FF"/>
<path d="M183 83.0133C183 89.0156 178.162 93.8722 172.205 93.8722C166.248 93.8722 161.41 89.0156 161.41 83.0133C161.41 77.0109 166.248 72.1543 172.205 72.1543C178.162 72.1543 183 77.0109 183 83.0133Z" fill="#E0E0E0" stroke="#5557FF" stroke-width="2"/>
<path d="M110.185 25.6112L100.694 12.9209L95.0945 49.1899L122.632 28.3441L110.185 25.6112Z" fill="#5557FF"/>
<path d="M95.3923 48.9635L113.133 26.2501L110.185 25.6125L108.631 23.5475L95.3923 48.9635Z" fill="#5557FF"/>
<path d="M110.186 25.6113C109.712 26.8845 109.101 28.1074 108.362 29.2618C107.11 31.4696 105.3 34.4611 103.188 37.7118C101.075 40.9625 99.0744 43.8275 97.6154 45.9061C96.8983 47.0789 96.0539 48.179 95.0949 49.1899C95.6231 47.932 96.284 46.728 97.0681 45.5949C98.4 43.432 100.288 40.5011 102.416 37.2688C104.543 34.0365 106.243 31.415 107.795 28.9637C108.46 27.7684 109.261 26.6446 110.186 25.6113Z" fill="#263238"/>
<path d="M114.732 22.9639C120.33 17.0502 135.271 7.2112 150.26 15.1648C165.249 23.1184 171.591 44.7161 172.888 54.5208" stroke="black" stroke-width="0.5" stroke-linecap="round" stroke-dasharray="5 5"/>
</svg>
