<svg width="186" height="98" viewBox="0 0 186 98" fill="none" xmlns="http://www.w3.org/2000/svg">
<path d="M1 0V97" stroke="#263238" stroke-width="0.5" stroke-miterlimit="10"/>
<path d="M17.7271 0V97" stroke="#263238" stroke-width="0.5" stroke-miterlimit="10"/>
<path d="M34.4548 0V97" stroke="#263238" stroke-width="0.5" stroke-miterlimit="10"/>
<path d="M51.1819 0V97" stroke="#263238" stroke-width="0.5" stroke-miterlimit="10"/>
<path d="M67.9099 0V97" stroke="#263238" stroke-width="0.5" stroke-miterlimit="10"/>
<path d="M84.6367 0V97" stroke="#263238" stroke-width="0.5" stroke-miterlimit="10"/>
<path d="M101.363 0V97" stroke="#263238" stroke-width="0.5" stroke-miterlimit="10"/>
<path d="M118.09 0V97" stroke="#263238" stroke-width="0.5" stroke-miterlimit="10"/>
<path d="M134.818 0V97" stroke="#263238" stroke-width="0.5" stroke-miterlimit="10"/>
<path d="M151.545 0V97" stroke="#263238" stroke-width="0.5" stroke-miterlimit="10"/>
<path d="M168.273 0V97" stroke="#263238" stroke-width="0.5" stroke-miterlimit="10"/>
<path d="M185 0V97" stroke="#263238" stroke-width="0.5" stroke-miterlimit="10"/>
<path d="M1.83496 9.00586H184.166" stroke="#263238" stroke-width="0.5" stroke-miterlimit="10"/>
<path d="M1.83472 22.1709H184.166" stroke="#263238" stroke-width="0.5" stroke-miterlimit="10"/>
<path d="M1.83496 35.3359H184.166" stroke="#263238" stroke-width="0.5" stroke-miterlimit="10"/>
<path d="M1.83472 48.5H184.166" stroke="#263238" stroke-width="0.5" stroke-miterlimit="10"/>
<path d="M1.83472 61.6641H184.166" stroke="#263238" stroke-width="0.5" stroke-miterlimit="10"/>
<path d="M1.83496 74.8281H184.166" stroke="#263238" stroke-width="0.5" stroke-miterlimit="10"/>
<path d="M1.83496 87.9941H184.166" stroke="#263238" stroke-width="0.5" stroke-miterlimit="10"/>
<path d="M40.1416 35.3874L15.6733 97.8705H66.9206L42.4395 35.3874C42.3614 35.1858 42.2081 35.01 42.0016 34.8853C41.7951 34.7606 41.5461 34.6934 41.2906 34.6934C41.035 34.6934 40.7861 34.7606 40.5796 34.8853C40.3731 35.01 40.2197 35.1858 40.1416 35.3874Z" fill="#E0E0E0"/>
<path d="M86.7929 14.694L54.2241 97.8702H121.698L89.0908 14.694C89.0127 14.4924 88.8593 14.3166 88.6528 14.1919C88.4463 14.0672 88.1974 14 87.9418 14C87.6863 14 87.4373 14.0672 87.2308 14.1919C87.0243 14.3166 86.871 14.4924 86.7929 14.694Z" fill="#5557FF"/>
<path d="M129.721 49.6792L110.837 97.8708H150.89L131.967 49.6792C131.879 49.4923 131.724 49.3317 131.524 49.2186C131.323 49.1054 131.086 49.0449 130.844 49.0449C130.601 49.0449 130.365 49.1054 130.164 49.2186C129.964 49.3317 129.809 49.4923 129.721 49.6792Z" fill="#E0E0E0"/>
<path d="M155.588 66.2243L143.2 97.8699H170.274L157.886 66.2243C157.808 66.0227 157.655 65.8469 157.448 65.7222C157.242 65.5975 156.993 65.5303 156.737 65.5303C156.482 65.5303 156.233 65.5975 156.026 65.7222C155.82 65.8469 155.667 66.0227 155.588 66.2243Z" fill="#E0E0E0"/>
</svg>
